Asap-SemiBoldItalic.ufo
<glyph name="exclam" format="2">
  <advance width="294.0"/>
  <unicode hex="0021"/>
  <outline>
    <contour>
      <point x="123.35849056603773" y="215.20754716981133" type="curve" smooth="yes"/>
      <point x="134.35849056603774" y="215.20754716981133" type="line" smooth="yes"/>
      <point x="168.56603773584905" y="215.20754716981133"/>
      <point x="177.24528301886792" y="225.18867924528303"/>
      <point x="181.22641509433961" y="243.81132075471697" type="curve" smooth="yes"/>
      <point x="268.77358490566036" y="672.0754716981132" type="line" smooth="yes"/>
      <point x="272.75471698113205" y="692.0188679245283"/>
      <point x="254.83018867924528" y="702.0"/>
      <point x="218.56603773584905" y="702.0" type="curve" smooth="yes"/>
      <point x="183.37735849056602" y="702.0" type="line" smooth="yes"/>
      <point x="146.1320754716981" y="702.0"/>
      <point x="129.50943396226415" y="692.0188679245283"/>
      <point x="127.50943396226415" y="673.3962264150944" type="curve" smooth="yes"/>
      <point x="82.49056603773585" y="244.1509433962264" type="line" smooth="yes"/>
      <point x="80.49056603773585" y="224.52830188679246"/>
      <point x="87.49056603773585" y="215.20754716981133"/>
    </contour>
    <contour>
      <point x="93.09433962264151" y="-2.0" type="curve" smooth="yes"/>
      <point x="120.0" y="-2.0" type="line" smooth="yes"/>
      <point x="156.56603773584905" y="-2.0"/>
      <point x="173.8679245283019" y="7.981132075471698"/>
      <point x="175.8679245283019" y="26.60377358490566" type="curve" smooth="yes"/>
      <point x="184.8490566037736" y="109.77358490566037" type="line" smooth="yes"/>
      <point x="185.18867924528303" y="128.39622641509433"/>
      <point x="172.54716981132074" y="138.37735849056602"/>
      <point x="134.30188679245282" y="138.37735849056602" type="curve" smooth="yes"/>
      <point x="107.39622641509433" y="138.37735849056602" type="line" smooth="yes"/>
      <point x="69.47169811320755" y="138.37735849056602"/>
      <point x="53.18867924528302" y="128.39622641509433"/>
      <point x="51.528301886792455" y="109.77358490566037" type="curve" smooth="yes"/>
      <point x="42.54716981132076" y="26.60377358490566" type="line"/>
      <point x="42.54716981132076" y="7.981132075471698"/>
      <point x="54.509433962264154" y="-2.0"/>
    </contour>
  </outline>
</glyph>
<glyph name="numbersign" format="2">
  <advance width="534.0"/>
  <unicode hex="0023"/>
  <outline>
    <contour>
      <point x="71.71698113207547" y="-2.0" type="curve" smooth="yes"/>
      <point x="81.66037735849056" y="-2.0" type="line" smooth="yes"/>
      <point x="114.67924528301887" y="-2.0"/>
      <point x="130.9245283018868" y="7.320754716981132"/>
      <point x="136.24528301886792" y="25.943396226415093" type="curve" smooth="yes"/>
      <point x="182.9433962264151" y="187.41509433962264" type="line"/>
      <point x="285.0943396226415" y="187.41509433962264" type="line"/>
      <point x="238.39622641509433" y="22.962264150943398" type="line" smooth="yes"/>
      <point x="233.73584905660377" y="5.981132075471698"/>
      <point x="244.71698113207546" y="-2.0"/>
      <point x="273.9622641509434" y="-2.0" type="curve" smooth="yes"/>
      <point x="283.9056603773585" y="-2.0" type="line" smooth="yes"/>
      <point x="316.58490566037733" y="-2.0"/>
      <point x="333.1698113207547" y="7.320754716981132"/>
      <point x="338.49056603773585" y="25.943396226415093" type="curve" smooth="yes"/>
      <point x="384.8490566037736" y="187.41509433962264" type="line"/>
      <point x="456.35849056603774" y="187.41509433962264" type="line" smooth="yes"/>
      <point x="474.9811320754717" y="187.41509433962264"/>
      <point x="484.9811320754717" y="199.71698113207546"/>
      <point x="488.3018867924528" y="231.64150943396226" type="curve" smooth="yes"/>
      <point x="489.3018867924528" y="243.67924528301887" type="line" smooth="yes"/>
      <point x="492.2830188679245" y="273.9056603773585"/>
      <point x="485.62264150943395" y="286.20754716981133"/>
      <point x="467.0" y="286.20754716981133" type="curve" smooth="yes"/>
      <point x="413.47169811320754" y="286.20754716981133" type="line"/>
      <point x="449.188679245283" y="408.77358490566036" type="line"/>
      <point x="512.0377358490566" y="408.77358490566036" type="line" smooth="yes"/>
      <point x="530.6603773584906" y="408.77358490566036"/>
      <point x="540.6603773584906" y="421.07547169811323"/>
      <point x="543.9811320754717" y="453.0" type="curve" smooth="yes"/>
      <point x="544.9811320754717" y="465.0377358490566" type="line" smooth="yes"/>
      <point x="547.9622641509434" y="495.2641509433962"/>
      <point x="541.3018867924528" y="507.5660377358491"/>
      <point x="522.6792452830189" y="507.5660377358491" type="curve" smooth="yes"/>
      <point x="477.47169811320754" y="507.5660377358491" type="line"/>
      <point x="521.5094339622641" y="662.7169811320755" type="line" smooth="yes"/>
      <point x="525.8301886792453" y="678.0188679245283"/>
      <point x="513.8679245283018" y="686.0"/>
      <point x="485.9433962264151" y="686.0" type="curve" smooth="yes"/>
      <point x="475.66037735849056" y="686.0" type="line" smooth="yes"/>
      <point x="441.62264150943395" y="686.0"/>
      <point x="425.39622641509436" y="676.6792452830189"/>
      <point x="420.07547169811323" y="658.0566037735849" type="curve" smooth="yes"/>
      <point x="377.0377358490566" y="507.5660377358491" type="line"/>
      <point x="274.54716981132077" y="507.5660377358491" type="line"/>
      <point x="319.60377358490564" y="662.7169811320755" type="line" smooth="yes"/>
      <point x="323.92452830188677" y="678.0188679245283"/>
      <point x="311.62264150943395" y="686.0"/>
      <point x="283.6981132075472" y="686.0" type="curve" smooth="yes"/>
      <point x="273.75471698113205" y="686.0" type="line" smooth="yes"/>
      <point x="239.71698113207546" y="686.0"/>
      <point x="223.49056603773585" y="676.6792452830189"/>
      <point x="218.16981132075472" y="658.0566037735849" type="curve" smooth="yes"/>
      <point x="174.79245283018867" y="507.5660377358491" type="line"/>
      <point x="98.30188679245283" y="507.5660377358491" type="line" smooth="yes"/>
      <point x="79.67924528301887" y="507.5660377358491"/>
      <point x="69.67924528301887" y="495.2641509433962"/>
      <point x="66.35849056603773" y="463.33962264150944" type="curve" smooth="yes"/>
      <point x="65.35849056603773" y="451.3018867924528" type="line" smooth="yes"/>
      <point x="62.37735849056604" y="421.07547169811323"/>
      <point x="69.0377358490566" y="408.77358490566036"/>
      <point x="87.66037735849056" y="408.77358490566036" type="curve" smooth="yes"/>
      <point x="147.18867924528303" y="408.77358490566036" type="line"/>
      <point x="111.13207547169812" y="286.20754716981133" type="line"/>
      <point x="39.9622641509434" y="286.20754716981133" type="line" smooth="yes"/>
      <point x="21.339622641509433" y="286.20754716981133"/>
      <point x="11.339622641509434" y="273.9056603773585"/>
      <point x="8.018867924528301" y="241.9811320754717" type="curve" smooth="yes"/>
      <point x="7.018867924528302" y="229.9433962264151" type="line" smooth="yes"/>
      <point x="4.037735849056604" y="199.71698113207546"/>
      <point x="10.69811320754717" y="187.41509433962264"/>
      <point x="29.32075471698113" y="187.41509433962264" type="curve" smooth="yes"/>
      <point x="82.84905660377359" y="187.41509433962264" type="line"/>
      <point x="35.490566037735846" y="22.962264150943398" type="line" smooth="yes"/>
      <point x="30.830188679245285" y="5.320754716981132"/>
      <point x="42.47169811320755" y="-2.0"/>
    </contour>
    <contour>
      <point x="211.22641509433961" y="286.20754716981133" type="line"/>
      <point x="247.28301886792454" y="408.77358490566036" type="line"/>
      <point x="349.4339622641509" y="408.77358490566036" type="line"/>
      <point x="313.37735849056605" y="286.20754716981133" type="line"/>
    </contour>
  </outline>
</glyph>
<glyph name="dollar" format="2">
  <advance width="500.0"/>
  <unicode hex="0024"/>
  <outline>
    <contour>
      <point x="216.28301886792454" y="-72.62264150943396" type="curve"/>
      <point x="227.8490566037736" y="-72.62264150943396" type="line"/>
      <point x="240.18867924528303" y="-72.62264150943396"/>
      <point x="248.8490566037736" y="-66.62264150943396"/>
      <point x="249.8490566037736" y="-52.62264150943396" type="curve" smooth="yes"/>
      <point x="254.50943396226415" y="-5.320754716981132" type="line"/>
      <point x="364.66037735849056" y="5.679245283018868"/>
      <point x="467.50943396226415" y="73.15094339622641"/>
      <point x="467.50943396226415" y="226.54716981132074" type="curve" smooth="yes"/>
      <point x="467.50943396226415" y="339.22641509433964"/>
      <point x="376.188679245283" y="379.5660377358491"/>
      <point x="298.8301886792453" y="414.22641509433964" type="curve"/>
      <point x="317.8867924528302" y="594.3396226415094" type="line"/>
      <point x="360.3018867924528" y="593.3396226415094"/>
      <point x="386.33962264150944" y="580.9622641509434"/>
      <point x="404.35849056603774" y="573.2641509433962" type="curve" smooth="yes"/>
      <point x="414.6792452830189" y="568.9245283018868"/>
      <point x="421.33962264150944" y="564.9245283018868"/>
      <point x="426.33962264150944" y="564.9245283018868" type="curve" smooth="yes"/>
      <point x="445.58490566037733" y="564.9245283018868"/>
      <point x="481.50943396226415" y="620.4528301886793"/>
      <point x="481.50943396226415" y="642.0377358490566" type="curve" smooth="yes"/>
      <point x="481.50943396226415" y="652.3584905660377"/>
      <point x="473.52830188679246" y="663.0"/>
      <point x="460.22641509433964" y="672.9811320754717" type="curve" smooth="yes"/>
      <point x="433.8679245283019" y="692.6792452830189"/>
      <point x="381.75471698113205" y="705.0"/>
      <point x="329.8490566037736" y="706.6603773584906" type="curve"/>
      <point x="330.8490566037736" y="718.6415094339623"/>
      <point x="333.50943396226415" y="738.6037735849056"/>
      <point x="333.50943396226415" y="741.6037735849056" type="curve" smooth="yes"/>
      <point x="333.50943396226415" y="755.2641509433962"/>
      <point x="329.50943396226415" y="761.6037735849056"/>
      <point x="316.188679245283" y="761.6037735849056" type="curve"/>
      <point x="304.2830188679245" y="761.6037735849056" type="line" smooth="yes"/>
      <point x="289.60377358490564" y="761.6037735849056"/>
      <point x="283.62264150943395" y="755.6037735849056"/>
      <point x="282.2830188679245" y="741.6037735849056" type="curve" smooth="yes"/>
      <point x="278.2830188679245" y="705.3207547169811" type="line"/>
      <point x="161.54716981132074" y="693.6415094339623"/>
      <point x="60.735849056603776" y="625.5283018867924"/>
      <point x="60.735849056603776" y="488.0943396226415" type="curve" smooth="yes"/>
      <point x="60.735849056603776" y="371.8301886792453"/>
      <point x="155.32075471698113" y="334.20754716981133"/>
      <point x="235.64150943396226" y="300.8867924528302" type="curve"/>
      <point x="214.58490566037736" y="107.0377358490566" type="line"/>
      <point x="150.88679245283018" y="107.37735849056604"/>
      <point x="106.88679245283019" y="132.33962264150944"/>
      <point x="81.24528301886792" y="148.30188679245282" type="curve" smooth="yes"/>
      <point x="69.9245283018868" y="155.2830188679245"/>
      <point x="62.60377358490566" y="160.62264150943395"/>
      <point x="57.62264150943396" y="160.62264150943395" type="curve" smooth="yes"/>
      <point x="47.9811320754717" y="160.62264150943395"/>
      <point x="35.0188679245283" y="150.62264150943395"/>
      <point x="35.0188679245283" y="65.24528301886792" type="curve" smooth="yes"/>
      <point x="35.0188679245283" y="52.943396226415096"/>
      <point x="42.0" y="42.301886792452834"/>
      <point x="52.301886792452834" y="33.320754716981135" type="curve" smooth="yes"/>
      <point x="83.94339622641509" y="4.981132075471698"/>
      <point x="156.33962264150944" y="-4.660377358490566"/>
      <point x="203.28301886792454" y="-6.660377358490566" type="curve"/>
      <point x="201.62264150943398" y="-21.9811320754717"/>
      <point x="198.62264150943398" y="-48.64150943396226"/>
      <point x="198.62264150943398" y="-52.62264150943396" type="curve" smooth="yes"/>
      <point x="198.62264150943398" y="-66.62264150943396"/>
      <point x="201.62264150943398" y="-72.62264150943396"/>
    </contour>
    <contour>
      <point x="266.47169811320754" y="112.62264150943396" type="curve"/>
      <point x="284.20754716981133" y="276.3018867924528" type="line"/>
      <point x="315.0566037735849" y="258.58490566037733"/>
      <point x="338.20754716981133" y="237.52830188679246"/>
      <point x="338.20754716981133" y="202.66037735849056" type="curve" smooth="yes"/>
      <point x="338.20754716981133" y="153.81132075471697"/>
      <point x="307.0377358490566" y="123.30188679245282"/>
    </contour>
    <contour>
      <point x="249.60377358490567" y="437.1509433962264" type="line"/>
      <point x="214.81132075471697" y="454.8490566037736"/>
      <point x="189.69811320754718" y="475.20754716981133"/>
      <point x="189.69811320754718" y="509.3207547169811" type="curve" smooth="yes"/>
      <point x="189.69811320754718" y="544.3207547169811"/>
      <point x="210.28301886792454" y="578.3584905660377"/>
      <point x="265.66037735849056" y="590.0188679245283" type="curve"/>
    </contour>
  </outline>
</glyph>
<glyph name="percent" format="2">
  <advance width="765.0"/>
  <unicode hex="0025"/>
  <outline>
    <contour>
      <point x="198.0188679245283" y="375.0566037735849" type="curve" smooth="yes"/>
      <point x="283.60377358490564" y="375.0566037735849"/>
      <point x="362.60377358490564" y="428.7547169811321"/>
      <point x="362.60377358490564" y="573.3396226415094" type="curve" smooth="yes"/>
      <point x="362.60377358490564" y="683.3207547169811"/>
      <point x="294.3018867924528" y="707.3207547169811"/>
      <point x="232.67924528301887" y="707.3207547169811" type="curve" smooth="yes"/>
      <point x="163.03773584905662" y="707.3207547169811"/>
      <point x="67.43396226415095" y="673.9811320754717"/>
      <point x="67.43396226415095" y="508.6792452830189" type="curve" smooth="yes"/>
      <point x="67.43396226415095" y="398.7169811320755"/>
      <point x="136.39622641509433" y="375.0566037735849"/>
    </contour>
    <contour>
      <point x="539.2452830188679" y="-7.320754716981132" type="curve" smooth="yes"/>
      <point x="624.1698113207547" y="-7.320754716981132"/>
      <point x="704.4905660377359" y="45.716981132075475"/>
      <point x="704.4905660377359" y="189.64150943396226" type="curve" smooth="yes"/>
      <point x="704.4905660377359" y="300.2830188679245"/>
      <point x="635.5283018867924" y="324.9433962264151"/>
      <point x="573.9056603773585" y="324.9433962264151" type="curve" smooth="yes"/>
      <point x="502.9433962264151" y="324.9433962264151"/>
      <point x="409.3207547169811" y="290.9433962264151"/>
      <point x="409.3207547169811" y="125.64150943396227" type="curve" smooth="yes"/>
      <point x="409.3207547169811" y="16.339622641509433"/>
      <point x="477.62264150943395" y="-7.320754716981132"/>
    </contour>
    <contour>
      <point x="546.2264150943396" y="65.50943396226415" type="curve" smooth="yes"/>
      <point x="508.77358490566036" y="65.50943396226415"/>
      <point x="499.0943396226415" y="96.54716981132076"/>
      <point x="499.0943396226415" y="129.9245283018868" type="curve" smooth="yes"/>
      <point x="499.0943396226415" y="172.58490566037736"/>
      <point x="507.7169811320755" y="249.81132075471697"/>
      <point x="565.9245283018868" y="249.81132075471697" type="curve" smooth="yes"/>
      <point x="604.3962264150944" y="249.81132075471697"/>
      <point x="614.0754716981132" y="218.41509433962264"/>
      <point x="614.0754716981132" y="184.03773584905662" type="curve" smooth="yes"/>
      <point x="614.0754716981132" y="136.9056603773585"/>
      <point x="599.7169811320755" y="65.50943396226415"/>
    </contour>
    <contour>
      <point x="205.0" y="447.8867924528302" type="curve" smooth="yes"/>
      <point x="166.88679245283018" y="447.8867924528302"/>
      <point x="157.8679245283019" y="480.24528301886795"/>
      <point x="157.8679245283019" y="514.2830188679245" type="curve" smooth="yes"/>
      <point x="157.8679245283019" y="556.9433962264151"/>
      <point x="167.1509433962264" y="632.188679245283"/>
      <point x="224.69811320754718" y="632.188679245283" type="curve" smooth="yes"/>
      <point x="263.1698113207547" y="632.188679245283"/>
      <point x="272.8490566037736" y="601.4528301886793"/>
      <point x="272.8490566037736" y="568.3962264150944" type="curve" smooth="yes"/>
      <point x="272.8490566037736" y="521.2641509433962"/>
      <point x="259.811320754717" y="447.8867924528302"/>
    </contour>
    <component base="fraction" xOffset="229.62264150943398"/>
  </outline>
</glyph>
<glyph name="ampersand" format="2">
  <advance width="624.0"/>
  <unicode hex="0026"/>
  <outline>
    <contour>
      <point x="219.1509433962264" y="-7.320754716981132" type="curve" smooth="yes"/>
      <point x="295.45283018867923" y="-7.320754716981132"/>
      <point x="348.1698113207547" y="8.735849056603774"/>
      <point x="398.35849056603774" y="33.35849056603774" type="curve"/>
      <point x="421.35849056603774" y="2.641509433962264"/>
      <point x="458.39622641509436" y="-7.320754716981132"/>
      <point x="498.64150943396226" y="-7.320754716981132" type="curve" smooth="yes"/>
      <point x="531.2641509433962" y="-7.320754716981132"/>
      <point x="573.5283018867924" y="5.30188679245283"/>
      <point x="579.8490566037735" y="38.22641509433962" type="curve" smooth="yes"/>
      <point x="584.811320754717" y="63.37735849056604"/>
      <point x="585.8301886792453" y="80.69811320754717"/>
      <point x="585.8301886792453" y="89.0754716981132" type="curve" smooth="yes"/>
      <point x="585.8301886792453" y="97.73584905660377"/>
      <point x="583.4905660377359" y="100.0566037735849"/>
      <point x="578.5094339622641" y="100.0566037735849" type="curve" smooth="yes"/>
      <point x="572.8301886792453" y="100.0566037735849"/>
      <point x="562.4905660377359" y="93.71698113207547"/>
      <point x="538.1132075471698" y="93.71698113207547" type="curve" smooth="yes"/>
      <point x="513.7169811320755" y="93.71698113207547"/>
      <point x="499.0" y="106.0566037735849"/>
      <point x="502.6792452830189" y="141.22641509433961" type="curve" smooth="yes"/>
      <point x="520.377358490566" y="318.1698113207547" type="line"/>
      <point x="573.6037735849056" y="318.1698113207547" type="line" smooth="yes"/>
      <point x="592.2264150943396" y="318.1698113207547"/>
      <point x="601.2075471698113" y="331.1320754716981"/>
      <point x="604.5283018867924" y="361.37735849056605" type="curve" smooth="yes"/>
      <point x="606.188679245283" y="376.6792452830189" type="line" smooth="yes"/>
      <point x="609.5094339622641" y="406.92452830188677"/>
      <point x="602.8679245283018" y="419.8867924528302"/>
      <point x="583.2264150943396" y="419.8867924528302" type="curve" smooth="yes"/>
      <point x="531.0188679245283" y="419.8867924528302" type="line"/>
      <point x="538.377358490566" y="496.1132075471698" type="line" smooth="yes"/>
      <point x="541.0377358490566" y="518.7169811320755"/>
      <point x="526.7735849056604" y="531.0"/>
      <point x="491.52830188679246" y="531.0" type="curve" smooth="yes"/>
      <point x="478.62264150943395" y="531.0" type="line" smooth="yes"/>
      <point x="438.75471698113205" y="531.0"/>
      <point x="427.1132075471698" y="521.0377358490566"/>
      <point x="422.1320754716981" y="496.45283018867923" type="curve" smooth="yes"/>
      <point x="406.0943396226415" y="419.8867924528302" type="line"/>
      <point x="302.9433962264151" y="419.8867924528302" type="line" smooth="yes"/>
      <point x="232.0943396226415" y="419.8867924528302"/>
      <point x="198.43396226415095" y="459.75471698113205"/>
      <point x="198.43396226415095" y="505.45283018867923" type="curve" smooth="yes"/>
      <point x="198.43396226415095" y="552.9811320754717"/>
      <point x="227.32075471698113" y="605.6037735849056"/>
      <point x="303.35849056603774" y="605.6037735849056" type="curve" smooth="yes"/>
      <point x="330.77358490566036" y="605.6037735849056"/>
      <point x="348.39622641509436" y="598.9433962264151"/>
      <point x="354.75471698113205" y="598.9433962264151" type="curve" smooth="yes"/>
      <point x="367.7358490566038" y="598.9433962264151"/>
      <point x="392.9811320754717" y="634.9433962264151"/>
      <point x="392.9811320754717" y="672.3962264150944" type="curve" smooth="yes"/>
      <point x="392.9811320754717" y="704.6603773584906"/>
      <point x="334.0377358490566" y="707.3207547169811"/>
      <point x="296.1509433962264" y="707.3207547169811" type="curve" smooth="yes"/>
      <point x="168.56603773584905" y="707.3207547169811"/>
      <point x="73.16981132075472" y="635.7547169811321"/>
      <point x="73.16981132075472" y="514.7169811320755" type="curve" smooth="yes"/>
      <point x="73.16981132075472" y="454.0188679245283"/>
      <point x="106.22641509433963" y="409.0188679245283"/>
      <point x="154.9056603773585" y="388.35849056603774" type="curve"/>
      <point x="154.56603773584905" y="384.35849056603774" type="line"/>
      <point x="72.71698113207547" y="356.79245283018867"/>
      <point x="14.830188679245285" y="279.8301886792453"/>
      <point x="14.830188679245285" y="176.32075471698113" type="curve" smooth="yes"/>
      <point x="14.830188679245285" y="53.886792452830186"/>
      <point x="105.67924528301887" y="-7.320754716981132"/>
    </contour>
    <contour>
      <point x="247.69811320754718" y="94.39622641509433" type="curve" smooth="yes"/>
      <point x="192.35849056603774" y="94.39622641509433"/>
      <point x="143.77358490566039" y="122.69811320754717"/>
      <point x="143.77358490566039" y="189.9433962264151" type="curve" smooth="yes"/>
      <point x="143.77358490566039" y="278.8867924528302"/>
      <point x="196.30188679245282" y="318.1698113207547"/>
      <point x="285.0" y="318.1698113207547" type="curve" smooth="yes"/>
      <point x="394.45283018867923" y="318.1698113207547" type="line"/>
      <point x="388.0943396226415" y="259.5660377358491"/>
      <point x="375.41509433962267" y="143.16981132075472"/>
      <point x="375.41509433962267" y="124.13207547169812" type="curve"/>
      <point x="333.1698113207547" y="105.13207547169812"/>
      <point x="286.79245283018867" y="94.39622641509433"/>
    </contour>
  </outline>
</glyph>
<glyph name="quotesingle" format="2">
  <advance width="183.0"/>
  <unicode hex="0027"/>
  <outline>
    <contour>
      <point x="107.37735849056604" y="466.7169811320755" type="curve" smooth="yes"/>
      <point x="117.62264150943396" y="466.7169811320755" type="line" smooth="yes"/>
      <point x="135.9056603773585" y="466.7169811320755"/>
      <point x="146.22641509433961" y="474.0188679245283"/>
      <point x="150.20754716981133" y="490.60377358490564" type="curve" smooth="yes"/>
      <point x="191.22641509433961" y="669.4150943396227" type="line" smooth="yes"/>
      <point x="196.54716981132074" y="691.6981132075472"/>
      <point x="179.9245283018868" y="702.0"/>
      <point x="141.67924528301887" y="702.0" type="curve" smooth="yes"/>
      <point x="133.66037735849056" y="702.0" type="line" smooth="yes"/>
      <point x="96.41509433962264" y="702.0"/>
      <point x="77.79245283018868" y="692.0188679245283"/>
      <point x="77.79245283018868" y="671.4150943396227" type="curve" smooth="yes"/>
      <point x="77.79245283018868" y="490.60377358490564" type="line" smooth="yes"/>
      <point x="77.79245283018868" y="473.6792452830189"/>
      <point x="88.75471698113208" y="466.7169811320755"/>
    </contour>
  </outline>
</glyph>
<glyph name="parenleft" format="2">
  <advance width="301.0"/>
  <unicode hex="0028"/>
  <outline>
    <contour>
      <point x="290.8679245283019" y="783.0" type="curve" smooth="yes"/>
      <point x="281.8867924528302" y="783.0"/>
      <point x="272.5660377358491" y="778.6792452830189"/>
      <point x="264.24528301886795" y="769.0377358490566" type="curve"/>
      <point x="128.8679245283019" y="620.3396226415094"/>
      <point x="47.35849056603774" y="411.9056603773585"/>
      <point x="47.35849056603774" y="198.64150943396226" type="curve" smooth="yes"/>
      <point x="47.35849056603774" y="48.15094339622641"/>
      <point x="88.13207547169812" y="-90.22641509433963"/>
      <point x="161.9056603773585" y="-195.0566037735849" type="curve" smooth="yes"/>
      <point x="168.9056603773585" y="-204.69811320754718"/>
      <point x="176.56603773584905" y="-209.35849056603774"/>
      <point x="185.54716981132077" y="-209.35849056603774" type="curve" smooth="yes"/>
      <point x="208.16981132075472" y="-209.35849056603774"/>
      <point x="237.0188679245283" y="-184.0566037735849"/>
      <point x="237.0188679245283" y="-164.49056603773585" type="curve" smooth="yes"/>
      <point x="237.0188679245283" y="-160.1509433962264"/>
      <point x="235.67924528301887" y="-154.81132075471697"/>
      <point x="232.66037735849056" y="-149.47169811320754" type="curve" smooth="yes"/>
      <point x="177.24528301886792" y="-38.0377358490566"/>
      <point x="151.47169811320754" y="69.47169811320754"/>
      <point x="151.47169811320754" y="190.67924528301887" type="curve" smooth="yes"/>
      <point x="151.47169811320754" y="382.92452830188677"/>
      <point x="209.67924528301887" y="562.1509433962265"/>
      <point x="326.0188679245283" y="723.4528301886793" type="curve" smooth="yes"/>
      <point x="331.0377358490566" y="730.7924528301887"/>
      <point x="334.37735849056605" y="739.7924528301887"/>
      <point x="334.37735849056605" y="746.1320754716982" type="curve" smooth="yes"/>
      <point x="334.37735849056605" y="765.0754716981132"/>
      <point x="307.1509433962264" y="783.0"/>
    </contour>
  </outline>
</glyph>
<glyph name="parenright" format="2">
  <advance width="301.0"/>
  <unicode hex="0029"/>
  <outline>
    <contour>
      <point x="111.81132075471697" y="783.3396226415094" type="curve" smooth="yes"/>
      <point x="89.18867924528301" y="783.3396226415094"/>
      <point x="59.679245283018865" y="758.0377358490566"/>
      <point x="59.679245283018865" y="738.4716981132076" type="curve" smooth="yes"/>
      <point x="59.679245283018865" y="733.4716981132076"/>
      <point x="61.679245283018865" y="728.7924528301887"/>
      <point x="64.69811320754717" y="723.4528301886793" type="curve" smooth="yes"/>
      <point x="121.75471698113208" y="608.377358490566"/>
      <point x="145.88679245283018" y="505.8301886792453"/>
      <point x="145.88679245283018" y="384.9433962264151" type="curve" smooth="yes"/>
      <point x="145.88679245283018" y="195.64150943396226"/>
      <point x="92.11320754716981" y="16.56603773584905"/>
      <point x="-28.358490566037737" y="-152.16981132075472" type="curve" smooth="yes"/>
      <point x="-33.698113207547166" y="-159.49056603773585"/>
      <point x="-36.0377358490566" y="-165.47169811320754"/>
      <point x="-36.0377358490566" y="-171.47169811320754" type="curve" smooth="yes"/>
      <point x="-36.0377358490566" y="-190.0754716981132"/>
      <point x="-9.811320754716983" y="-209.0188679245283"/>
      <point x="7.490566037735849" y="-209.0188679245283" type="curve" smooth="yes"/>
      <point x="16.471698113207545" y="-209.0188679245283"/>
      <point x="25.452830188679243" y="-204.69811320754718"/>
      <point x="33.77358490566037" y="-195.0566037735849" type="curve"/>
      <point x="182.67924528301887" y="-28.528301886792455"/>
      <point x="250.66037735849056" y="184.8490566037736"/>
      <point x="250.66037735849056" y="377.3207547169811" type="curve" smooth="yes"/>
      <point x="250.66037735849056" y="526.4905660377359"/>
      <point x="209.22641509433961" y="663.5471698113207"/>
      <point x="135.45283018867923" y="769.0377358490566" type="curve" smooth="yes"/>
      <point x="128.45283018867923" y="778.6792452830189"/>
      <point x="120.79245283018868" y="783.3396226415094"/>
    </contour>
  </outline>
</glyph>
<glyph name="asterisk" format="2">
  <advance width="373.0"/>
  <unicode hex="002A"/>
  <outline>
    <contour>
      <point x="114.9622641509434" y="412.0188679245283" type="curve" smooth="yes"/>
      <point x="121.28301886792453" y="412.0188679245283"/>
      <point x="128.26415094339623" y="415.6792452830189"/>
      <point x="136.24528301886792" y="424.9811320754717" type="curve"/>
      <point x="209.67924528301887" y="514.0943396226415" type="line"/>
      <point x="263.75471698113205" y="424.9811320754717" type="line" smooth="yes"/>
      <point x="268.7358490566038" y="416.33962264150944"/>
      <point x="275.7169811320755" y="412.0188679245283"/>
      <point x="283.0377358490566" y="412.0188679245283" type="curve" smooth="yes"/>
      <point x="297.0" y="412.0188679245283"/>
      <point x="314.9622641509434" y="429.64150943396226"/>
      <point x="314.9622641509434" y="440.62264150943395" type="curve" smooth="yes"/>
      <point x="314.9622641509434" y="444.9433962264151"/>
      <point x="312.9622641509434" y="450.2641509433962"/>
      <point x="309.64150943396226" y="455.58490566037733" type="curve" smooth="yes"/>
      <point x="256.5660377358491" y="541.377358490566" type="line"/>
      <point x="343.37735849056605" y="568.0943396226415" type="line"/>
      <point x="359.33962264150944" y="572.4150943396227"/>
      <point x="364.66037735849056" y="579.7358490566038"/>
      <point x="364.66037735849056" y="593.3584905660377" type="curve" smooth="yes"/>
      <point x="364.66037735849056" y="611.3207547169811"/>
      <point x="353.0188679245283" y="620.9622641509434"/>
      <point x="342.7169811320755" y="620.9622641509434" type="curve" smooth="yes"/>
      <point x="339.0566037735849" y="620.9622641509434"/>
      <point x="335.39622641509436" y="620.3018867924528"/>
      <point x="331.07547169811323" y="619.3018867924528" type="curve" smooth="yes"/>
      <point x="244.9245283018868" y="591.9245283018868" type="line"/>
      <point x="254.60377358490567" y="681.7358490566038" type="line"/>
      <point x="254.60377358490567" y="699.6981132075472"/>
      <point x="250.60377358490567" y="708.3396226415094"/>
      <point x="230.66037735849056" y="708.3396226415094" type="curve" smooth="yes"/>
      <point x="212.03773584905662" y="708.3396226415094"/>
      <point x="203.0566037735849" y="700.3584905660377"/>
      <point x="201.39622641509433" y="681.7358490566038" type="curve" smooth="yes"/>
      <point x="191.71698113207546" y="591.9245283018868" type="line"/>
      <point x="110.24528301886792" y="619.3018867924528" type="line" smooth="yes"/>
      <point x="105.9245283018868" y="620.3018867924528"/>
      <point x="101.60377358490567" y="620.9622641509434"/>
      <point x="97.94339622641509" y="620.9622641509434" type="curve" smooth="yes"/>
      <point x="81.01886792452831" y="620.9622641509434"/>
      <point x="70.67924528301887" y="602.377358490566"/>
      <point x="70.67924528301887" y="587.0377358490566" type="curve" smooth="yes"/>
      <point x="70.67924528301887" y="578.3962264150944"/>
      <point x="76.0" y="571.7547169811321"/>
      <point x="87.30188679245283" y="568.0943396226415" type="curve" smooth="yes"/>
      <point x="167.11320754716982" y="541.377358490566" type="line"/>
      <point x="97.0" y="455.58490566037733" type="line" smooth="yes"/>
      <point x="90.67924528301887" y="448.92452830188677"/>
      <point x="87.69811320754717" y="441.9433962264151"/>
      <point x="87.69811320754717" y="436.62264150943395" type="curve" smooth="yes"/>
      <point x="87.69811320754717" y="425.9811320754717"/>
      <point x="103.0" y="412.0188679245283"/>
    </contour>
  </outline>
</glyph>
<glyph name="plus" format="2">
  <advance width="560.0"/>
  <unicode hex="002B"/>
  <outline>
    <contour>
      <point x="247.33962264150944" y="-0.679245283018868" type="curve" smooth="yes"/>
      <point x="258.9622641509434" y="-0.679245283018868" type="line" smooth="yes"/>
      <point x="288.52830188679246" y="-0.679245283018868"/>
      <point x="303.1698113207547" y="7.30188679245283"/>
      <point x="304.8301886792453" y="25.92452830188679" type="curve" smooth="yes"/>
      <point x="321.8490566037736" y="187.0943396226415" type="line"/>
      <point x="482.9811320754717" y="187.0943396226415" type="line" smooth="yes"/>
      <point x="499.2641509433962" y="187.0943396226415"/>
      <point x="510.2830188679245" y="197.0566037735849"/>
      <point x="512.6037735849056" y="225.66037735849056" type="curve" smooth="yes"/>
      <point x="514.2641509433962" y="244.62264150943398" type="line" smooth="yes"/>
      <point x="516.5849056603773" y="269.9056603773585"/>
      <point x="509.9056603773585" y="280.50943396226415"/>
      <point x="493.62264150943395" y="280.50943396226415" type="curve" smooth="yes"/>
      <point x="331.49056603773585" y="280.50943396226415" type="line"/>
      <point x="348.50943396226415" y="441.0" type="line" smooth="yes"/>
      <point x="350.50943396226415" y="461.62264150943395"/>
      <point x="339.52830188679246" y="469.60377358490564"/>
      <point x="307.9622641509434" y="469.60377358490564" type="curve" smooth="yes"/>
      <point x="296.33962264150944" y="469.60377358490564" type="line" smooth="yes"/>
      <point x="265.07547169811323" y="469.60377358490564"/>
      <point x="252.1320754716981" y="461.62264150943395"/>
      <point x="250.47169811320754" y="443.0" type="curve" smooth="yes"/>
      <point x="233.45283018867926" y="280.50943396226415" type="line"/>
      <point x="71.0" y="280.50943396226415" type="line" smooth="yes"/>
      <point x="53.35849056603774" y="280.50943396226415"/>
      <point x="44.37735849056604" y="270.8867924528302"/>
      <point x="41.716981132075475" y="244.58490566037736" type="curve" smooth="yes"/>
      <point x="40.056603773584904" y="226.30188679245282" type="line" smooth="yes"/>
      <point x="37.39622641509434" y="198.37735849056602"/>
      <point x="44.41509433962264" y="187.0943396226415"/>
      <point x="61.0377358490566" y="187.0943396226415" type="curve" smooth="yes"/>
      <point x="223.81132075471697" y="187.0943396226415" type="line"/>
      <point x="207.1320754716981" y="27.92452830188679" type="line" smooth="yes"/>
      <point x="205.1320754716981" y="7.30188679245283"/>
      <point x="215.43396226415095" y="-0.679245283018868"/>
    </contour>
  </outline>
</glyph>
<glyph name="comma" format="2">
  <advance width="198.0"/>
  <unicode hex="002C"/>
  <outline>
    <contour>
      <point x="23.71698113207547" y="-121.94339622641509" type="curve" smooth="yes"/>
      <point x="65.9622641509434" y="-121.94339622641509"/>
      <point x="169.0566037735849" y="5.566037735849051"/>
      <point x="173.1320754716981" y="102.45283018867924" type="curve"/>
      <point x="173.1320754716981" y="123.41509433962264"/>
      <point x="158.83018867924528" y="138.37735849056602"/>
      <point x="123.58490566037736" y="138.37735849056602" type="curve" smooth="yes"/>
      <point x="107.98113207547169" y="138.37735849056602" type="line" smooth="yes"/>
      <point x="71.0754716981132" y="138.37735849056602"/>
      <point x="53.113207547169814" y="122.73584905660377"/>
      <point x="51.113207547169814" y="98.45283018867924" type="curve" smooth="yes"/>
      <point x="41.47169811320755" y="6.037735849056604"/>
      <point x="15.584905660377359" y="-42.24528301886792"/>
      <point x="-5.528301886792452" y="-80.69811320754717" type="curve" smooth="yes"/>
      <point x="-10.528301886792452" y="-90.01886792452831"/>
      <point x="-13.528301886792452" y="-96.66037735849056"/>
      <point x="-13.528301886792452" y="-103.98113207547169" type="curve" smooth="yes"/>
      <point x="-13.528301886792452" y="-117.62264150943396"/>
      <point x="8.754716981132075" y="-121.94339622641509"/>
    </contour>
  </outline>
</glyph>
<glyph name="hyphen" format="2">
  <advance width="320.0"/>
  <unicode hex="002D"/>
  <outline>
    <contour>
      <point x="55.09433962264151" y="217.77358490566039" type="curve" smooth="yes"/>
      <point x="255.60377358490567" y="217.77358490566039" type="line" smooth="yes"/>
      <point x="272.22641509433964" y="217.77358490566039"/>
      <point x="282.9056603773585" y="227.73584905660377"/>
      <point x="285.5660377358491" y="257.0188679245283" type="curve" smooth="yes"/>
      <point x="287.22641509433964" y="275.64150943396226" type="line" smooth="yes"/>
      <point x="289.8867924528302" y="301.2641509433962"/>
      <point x="282.8679245283019" y="312.8867924528302"/>
      <point x="266.24528301886795" y="312.8867924528302" type="curve" smooth="yes"/>
      <point x="65.39622641509433" y="312.8867924528302" type="line" smooth="yes"/>
      <point x="47.41509433962264" y="312.8867924528302"/>
      <point x="38.09433962264151" y="302.92452830188677"/>
      <point x="35.43396226415094" y="276.2830188679245" type="curve" smooth="yes"/>
      <point x="33.77358490566038" y="257.66037735849056" type="line" smooth="yes"/>
      <point x="31.113207547169814" y="229.39622641509433"/>
      <point x="38.132075471698116" y="217.77358490566039"/>
    </contour>
  </outline>
</glyph>
<glyph name="period" format="2">
  <advance width="198.0"/>
  <unicode hex="002E"/>
  <outline>
    <contour>
      <point x="99.9245283018868" y="138.37735849056602" type="curve" smooth="yes"/>
      <point x="73.01886792452831" y="138.37735849056602" type="line" smooth="yes"/>
      <point x="36.09433962264151" y="138.37735849056602"/>
      <point x="18.150943396226417" y="128.39622641509433"/>
      <point x="16.49056603773585" y="109.77358490566037" type="curve" smooth="yes"/>
      <point x="8.169811320754718" y="26.60377358490566" type="line"/>
      <point x="8.169811320754718" y="7.320754716981132"/>
      <point x="18.49056603773585" y="-2.0"/>
      <point x="58.056603773584904" y="-2.0" type="curve" smooth="yes"/>
      <point x="84.9622641509434" y="-2.0" type="line" smooth="yes"/>
      <point x="121.54716981132076" y="-2.0"/>
      <point x="139.83018867924528" y="7.981132075471698"/>
      <point x="141.49056603773585" y="26.60377358490566" type="curve" smooth="yes"/>
      <point x="149.81132075471697" y="109.77358490566037" type="line"/>
      <point x="149.81132075471697" y="127.73584905660377"/>
      <point x="138.16981132075472" y="138.37735849056602"/>
    </contour>
  </outline>
</glyph>
<glyph name="slash" format="2">
  <advance width="422.0"/>
  <unicode hex="002F"/>
  <outline>
    <contour>
      <point x="13.679245283018869" y="-79.0" type="curve" smooth="yes"/>
      <point x="27.264150943396224" y="-79.0" type="line" smooth="yes"/>
      <point x="55.20754716981132" y="-79.0"/>
      <point x="70.47169811320754" y="-73.98113207547169"/>
      <point x="80.11320754716981" y="-55.698113207547166" type="curve" smooth="yes"/>
      <point x="449.8490566037736" y="667.3962264150944" type="line" smooth="yes"/>
      <point x="455.8301886792453" y="679.3584905660377"/>
      <point x="458.1698113207547" y="684.377358490566"/>
      <point x="458.1698113207547" y="688.0377358490566" type="curve" smooth="yes"/>
      <point x="458.1698113207547" y="696.6792452830189"/>
      <point x="447.22641509433964" y="702.0"/>
      <point x="415.66037735849056" y="702.0" type="curve" smooth="yes"/>
      <point x="405.0377358490566" y="702.0" type="line" smooth="yes"/>
      <point x="377.4339622641509" y="702.0"/>
      <point x="361.8679245283019" y="696.6792452830189"/>
      <point x="353.22641509433964" y="680.3962264150944" type="curve" smooth="yes"/>
      <point x="-17.886792452830186" y="-47.113207547169814" type="line" smooth="yes"/>
      <point x="-21.867924528301884" y="-55.075471698113205"/>
      <point x="-25.50943396226415" y="-62.37735849056604"/>
      <point x="-25.50943396226415" y="-65.0377358490566" type="curve" smooth="yes"/>
      <point x="-25.50943396226415" y="-73.67924528301887"/>
      <point x="-16.22641509433962" y="-79.0"/>
    </contour>
  </outline>
</glyph>
<glyph name="zero" format="2">
  <advance width="535.0"/>
  <unicode hex="0030"/>
  <outline>
    <contour>
      <point x="239.66037735849056" y="-7.320754716981132" type="curve" smooth="yes"/>
      <point x="387.79245283018867" y="-7.320754716981132"/>
      <point x="515.9433962264151" y="144.79245283018867"/>
      <point x="515.9433962264151" y="426.33962264150944" type="curve" smooth="yes"/>
      <point x="515.9433962264151" y="610.433962264151"/>
      <point x="436.8490566037736" y="707.3207547169811"/>
      <point x="314.66037735849056" y="707.3207547169811" type="curve" smooth="yes"/>
      <point x="165.20754716981133" y="707.3207547169811"/>
      <point x="39.056603773584904" y="554.2075471698113"/>
      <point x="39.056603773584904" y="270.3207547169811" type="curve" smooth="yes"/>
      <point x="39.056603773584904" y="88.56603773584905"/>
      <point x="117.81132075471699" y="-7.320754716981132"/>
    </contour>
    <contour>
      <point x="250.30188679245282" y="94.39622641509433" type="curve" smooth="yes"/>
      <point x="200.18867924528303" y="94.39622641509433"/>
      <point x="166.32075471698113" y="146.0943396226415"/>
      <point x="166.32075471698113" y="260.75471698113205" type="curve" smooth="yes"/>
      <point x="166.32075471698113" y="497.07547169811323"/>
      <point x="238.26415094339623" y="605.6037735849056"/>
      <point x="304.0188679245283" y="605.6037735849056" type="curve" smooth="yes"/>
      <point x="354.1320754716981" y="605.6037735849056"/>
      <point x="388.6792452830189" y="552.566037735849"/>
      <point x="388.6792452830189" y="435.5660377358491" type="curve" smooth="yes"/>
      <point x="388.6792452830189" y="201.26415094339623"/>
      <point x="315.0566037735849" y="94.39622641509433"/>
    </contour>
  </outline>
</glyph>
<glyph name="one" format="2">
  <advance width="535.0"/>
  <unicode hex="0031"/>
  <outline>
    <contour>
      <point x="53.22641509433962" y="0.0" type="curve" smooth="yes"/>
      <point x="446.0188679245283" y="0.0" type="line" smooth="yes"/>
      <point x="464.9622641509434" y="0.0"/>
      <point x="474.62264150943395" y="12.962264150943396"/>
      <point x="477.9433962264151" y="43.20754716981132" type="curve" smooth="yes"/>
      <point x="479.60377358490564" y="58.84905660377358" type="line" smooth="yes"/>
      <point x="482.58490566037733" y="87.73584905660377"/>
      <point x="475.60377358490564" y="101.71698113207547"/>
      <point x="456.3207547169811" y="101.71698113207547" type="curve" smooth="yes"/>
      <point x="336.0566037735849" y="101.71698113207547" type="line"/>
      <point x="396.75471698113205" y="677.0377358490566" type="line" smooth="yes"/>
      <point x="398.41509433962267" y="690.6603773584906"/>
      <point x="377.811320754717" y="703.3207547169811"/>
      <point x="361.1509433962264" y="703.3207547169811" type="curve"/>
      <point x="113.58490566037736" y="655.622641509434" type="line" smooth="yes"/>
      <point x="88.66037735849056" y="650.9622641509434"/>
      <point x="86.64150943396227" y="636.6981132075472"/>
      <point x="86.64150943396227" y="610.433962264151" type="curve" smooth="yes"/>
      <point x="86.64150943396227" y="585.8301886792453"/>
      <point x="90.64150943396227" y="555.2264150943396"/>
      <point x="114.22641509433961" y="558.5471698113207" type="curve" smooth="yes"/>
      <point x="260.188679245283" y="581.2830188679245" type="line"/>
      <point x="209.79245283018867" y="101.71698113207547" type="line"/>
      <point x="63.52830188679245" y="101.71698113207547" type="line" smooth="yes"/>
      <point x="44.58490566037736" y="101.71698113207547"/>
      <point x="34.924528301886795" y="88.75471698113208"/>
      <point x="31.60377358490566" y="58.509433962264154" type="curve" smooth="yes"/>
      <point x="29.943396226415093" y="42.867924528301884" type="line" smooth="yes"/>
      <point x="26.962264150943398" y="13.981132075471699"/>
      <point x="33.943396226415096" y="0.0"/>
    </contour>
  </outline>
</glyph>
<glyph name="two" format="2">
  <advance width="535.0"/>
  <unicode hex="0032"/>
  <outline>
    <contour>
      <point x="46.0377358490566" y="0.0" type="curve" smooth="yes"/>
      <point x="429.9433962264151" y="0.0" type="line" smooth="yes"/>
      <point x="448.5660377358491" y="0.0"/>
      <point x="457.54716981132077" y="12.962264150943396"/>
      <point x="460.8679245283019" y="43.20754716981132" type="curve" smooth="yes"/>
      <point x="462.52830188679246" y="58.16981132075472" type="line" smooth="yes"/>
      <point x="465.8490566037736" y="88.41509433962264"/>
      <point x="458.8679245283019" y="101.37735849056604"/>
      <point x="440.24528301886795" y="101.37735849056604" type="curve" smooth="yes"/>
      <point x="184.60377358490567" y="101.37735849056604" type="line"/>
      <point x="390.22641509433964" y="325.09433962264154" type="line" smooth="yes"/>
      <point x="473.9811320754717" y="418.811320754717"/>
      <point x="500.9433962264151" y="470.79245283018867"/>
      <point x="500.9433962264151" y="543.4528301886793" type="curve" smooth="yes"/>
      <point x="500.9433962264151" y="635.433962264151"/>
      <point x="424.3018867924528" y="707.3207547169811"/>
      <point x="298.33962264150944" y="707.3207547169811" type="curve" smooth="yes"/>
      <point x="225.77358490566039" y="707.3207547169811"/>
      <point x="101.75471698113208" y="676.6415094339623"/>
      <point x="101.75471698113208" y="617.7924528301887" type="curve" smooth="yes"/>
      <point x="101.75471698113208" y="595.188679245283"/>
      <point x="121.39622641509433" y="559.2264150943396"/>
      <point x="143.9433962264151" y="559.2264150943396" type="curve" smooth="yes"/>
      <point x="161.60377358490567" y="559.2264150943396"/>
      <point x="199.35849056603774" y="604.9433962264151"/>
      <point x="276.49056603773585" y="604.9433962264151" type="curve" smooth="yes"/>
      <point x="333.9622641509434" y="604.9433962264151"/>
      <point x="371.6792452830189" y="577.2075471698113"/>
      <point x="371.6792452830189" y="526.4905660377359" type="curve" smooth="yes"/>
      <point x="371.6792452830189" y="489.79245283018867"/>
      <point x="350.35849056603774" y="445.75471698113205"/>
      <point x="317.22641509433964" y="409.60377358490564" type="curve" smooth="yes"/>
      <point x="23.41509433962264" y="88.73584905660377" type="line"/>
      <point x="21.41509433962264" y="85.41509433962264"/>
      <point x="20.754716981132077" y="80.43396226415095"/>
      <point x="20.754716981132077" y="73.79245283018868" type="curve" smooth="yes"/>
      <point x="20.754716981132077" y="47.20754716981132"/>
      <point x="32.735849056603776" y="0.0"/>
    </contour>
  </outline>
</glyph>
<glyph name="three" format="2">
  <advance width="535.0"/>
  <unicode hex="0033"/>
  <outline>
    <contour>
      <point x="221.28301886792454" y="-7.320754716981132" type="curve" smooth="yes"/>
      <point x="348.0377358490566" y="-7.320754716981132"/>
      <point x="469.2641509433962" y="72.83018867924528"/>
      <point x="469.2641509433962" y="229.9811320754717" type="curve" smooth="yes"/>
      <point x="469.2641509433962" y="306.77358490566036"/>
      <point x="430.45283018867923" y="361.4339622641509"/>
      <point x="367.8679245283019" y="384.35849056603774" type="curve"/>
      <point x="368.20754716981133" y="388.35849056603774" type="line"/>
      <point x="432.8679245283019" y="413.6792452830189"/>
      <point x="480.92452830188677" y="472.9622641509434"/>
      <point x="480.92452830188677" y="554.0" type="curve" smooth="yes"/>
      <point x="480.92452830188677" y="651.377358490566"/>
      <point x="408.9056603773585" y="707.3207547169811"/>
      <point x="294.2830188679245" y="707.3207547169811" type="curve" smooth="yes"/>
      <point x="207.18867924528303" y="707.3207547169811"/>
      <point x="98.05660377358491" y="683.3207547169811"/>
      <point x="98.05660377358491" y="638.7924528301887" type="curve" smooth="yes"/>
      <point x="98.05660377358491" y="614.8679245283018"/>
      <point x="119.01886792452831" y="573.2641509433962"/>
      <point x="135.30188679245282" y="573.2641509433962" type="curve" smooth="yes"/>
      <point x="152.96226415094338" y="573.2641509433962"/>
      <point x="184.69811320754718" y="604.9433962264151"/>
      <point x="265.79245283018867" y="604.9433962264151" type="curve" smooth="yes"/>
      <point x="328.0377358490566" y="604.9433962264151"/>
      <point x="351.0188679245283" y="570.811320754717"/>
      <point x="351.0188679245283" y="530.8301886792453" type="curve" smooth="yes"/>
      <point x="351.0188679245283" y="477.9056603773585"/>
      <point x="311.0566037735849" y="419.54716981132077"/>
      <point x="226.47169811320754" y="419.54716981132077" type="curve" smooth="yes"/>
      <point x="203.43396226415095" y="419.54716981132077" type="line" smooth="yes"/>
      <point x="183.79245283018867" y="419.54716981132077"/>
      <point x="175.1509433962264" y="407.60377358490564"/>
      <point x="171.49056603773585" y="376.6792452830189" type="curve" smooth="yes"/>
      <point x="169.49056603773585" y="359.6792452830189" type="line" smooth="yes"/>
      <point x="166.16981132075472" y="330.45283018867923"/>
      <point x="172.49056603773585" y="318.1698113207547"/>
      <point x="192.1320754716981" y="318.1698113207547" type="curve" smooth="yes"/>
      <point x="223.47169811320754" y="318.1698113207547" type="line" smooth="yes"/>
      <point x="301.50943396226415" y="318.1698113207547"/>
      <point x="340.66037735849056" y="289.20754716981133"/>
      <point x="340.66037735849056" y="225.35849056603774" type="curve" smooth="yes"/>
      <point x="340.66037735849056" y="133.33962264150944"/>
      <point x="278.6792452830189" y="94.39622641509433"/>
      <point x="214.0188679245283" y="94.39622641509433" type="curve" smooth="yes"/>
      <point x="127.30188679245283" y="94.39622641509433"/>
      <point x="103.88679245283019" y="121.79245283018868"/>
      <point x="88.22641509433961" y="121.79245283018868" type="curve" smooth="yes"/>
      <point x="74.90566037735849" y="121.79245283018868"/>
      <point x="48.9811320754717" y="98.67924528301887"/>
      <point x="48.9811320754717" y="60.58490566037736" type="curve" smooth="yes"/>
      <point x="48.9811320754717" y="7.849056603773587"/>
      <point x="150.94339622641508" y="-7.320754716981132"/>
    </contour>
  </outline>
</glyph>
<glyph name="four" format="2">
  <advance width="535.0"/>
  <unicode hex="0034"/>
  <outline>
    <contour>
      <point x="336.77358490566036" y="-2.0" type="curve" smooth="yes"/>
      <point x="363.07547169811323" y="-2.0" type="line" smooth="yes"/>
      <point x="396.92452830188677" y="-2.0"/>
      <point x="413.8867924528302" y="7.981132075471698"/>
      <point x="415.54716981132077" y="26.60377358490566" type="curve" smooth="yes"/>
      <point x="428.5660377358491" y="150.49056603773585" type="line"/>
      <point x="478.41509433962267" y="150.49056603773585" type="line" smooth="yes"/>
      <point x="497.0377358490566" y="150.49056603773585"/>
      <point x="505.6792452830189" y="162.43396226415095"/>
      <point x="509.33962264150944" y="193.69811320754718" type="curve" smooth="yes"/>
      <point x="511.33962264150944" y="210.69811320754718" type="line" smooth="yes"/>
      <point x="514.6603773584906" y="240.9433962264151"/>
      <point x="508.33962264150944" y="252.20754716981133"/>
      <point x="489.7169811320755" y="252.20754716981133" type="curve" smooth="yes"/>
      <point x="439.20754716981133" y="252.20754716981133" type="line"/>
      <point x="483.22641509433964" y="673.3962264150944" type="line" smooth="yes"/>
      <point x="484.8867924528302" y="691.6792452830189"/>
      <point x="472.2830188679245" y="702.0"/>
      <point x="436.07547169811323" y="702.0" type="curve" smooth="yes"/>
      <point x="412.811320754717" y="702.0" type="line" smooth="yes"/>
      <point x="388.9056603773585" y="702.0"/>
      <point x="370.62264150943395" y="698.9811320754717"/>
      <point x="359.3207547169811" y="684.6981132075472" type="curve" smooth="yes"/>
      <point x="5.433962264150944" y="240.22641509433961" type="line" smooth="yes"/>
      <point x="3.433962264150944" y="238.22641509433961"/>
      <point x="2.433962264150944" y="229.9056603773585"/>
      <point x="2.433962264150944" y="222.56603773584905" type="curve" smooth="yes"/>
      <point x="2.433962264150944" y="196.96226415094338"/>
      <point x="12.415094339622643" y="150.49056603773585"/>
      <point x="26.37735849056604" y="150.49056603773585" type="curve" smooth="yes"/>
      <point x="302.64150943396226" y="150.49056603773585" type="line"/>
      <point x="289.62264150943395" y="26.60377358490566" type="line"/>
      <point x="289.62264150943395" y="7.6415094339622645"/>
      <point x="300.9056603773585" y="-2.0"/>
    </contour>
    <contour>
      <point x="136.45283018867923" y="252.20754716981133" type="line"/>
      <point x="346.66037735849056" y="526.7547169811321" type="line"/>
      <point x="350.66037735849056" y="525.4150943396227" type="line"/>
      <point x="341.35849056603774" y="484.9056603773585"/>
      <point x="332.35849056603774" y="433.52830188679246"/>
      <point x="327.0188679245283" y="384.188679245283" type="curve" smooth="yes"/>
      <point x="313.2830188679245" y="252.20754716981133" type="line"/>
    </contour>
  </outline>
</glyph>
<glyph name="five" format="2">
  <advance width="535.0"/>
  <unicode hex="0035"/>
  <outline>
    <contour>
      <point x="197.32075471698113" y="-7.320754716981132" type="curve" smooth="yes"/>
      <point x="321.8867924528302" y="-7.320754716981132"/>
      <point x="473.20754716981133" y="51.264150943396224"/>
      <point x="473.20754716981133" y="250.24528301886792" type="curve" smooth="yes"/>
      <point x="473.20754716981133" y="390.5660377358491"/>
      <point x="372.35849056603774" y="433.8867924528302"/>
      <point x="246.26415094339623" y="433.8867924528302" type="curve" smooth="yes"/>
      <point x="211.43396226415095" y="433.8867924528302" type="line"/>
      <point x="239.83018867924528" y="598.2830188679245" type="line"/>
      <point x="448.92452830188677" y="598.2830188679245" type="line" smooth="yes"/>
      <point x="467.54716981132077" y="598.2830188679245"/>
      <point x="476.188679245283" y="610.2264150943396"/>
      <point x="479.8490566037736" y="641.4905660377359" type="curve" smooth="yes"/>
      <point x="481.8490566037736" y="658.4905660377359" type="line" smooth="yes"/>
      <point x="485.1698113207547" y="688.7358490566038"/>
      <point x="478.8490566037736" y="700.0"/>
      <point x="460.22641509433964" y="700.0" type="curve" smooth="yes"/>
      <point x="173.0754716981132" y="700.0" type="line" smooth="yes"/>
      <point x="146.1320754716981" y="700.0"/>
      <point x="134.1320754716981" y="689.0188679245283"/>
      <point x="129.81132075471697" y="663.3962264150944" type="curve"/>
      <point x="81.16981132075472" y="368.79245283018867" type="line" smooth="yes"/>
      <point x="76.50943396226415" y="338.50943396226415"/>
      <point x="88.81132075471699" y="332.1698113207547"/>
      <point x="111.11320754716981" y="332.1698113207547" type="curve" smooth="yes"/>
      <point x="211.96226415094338" y="332.1698113207547" type="line" smooth="yes"/>
      <point x="302.79245283018867" y="332.1698113207547"/>
      <point x="343.62264150943395" y="296.45283018867923"/>
      <point x="343.62264150943395" y="232.66037735849056" type="curve" smooth="yes"/>
      <point x="343.62264150943395" y="142.0943396226415"/>
      <point x="289.45283018867923" y="94.39622641509433"/>
      <point x="207.62264150943398" y="94.39622641509433" type="curve" smooth="yes"/>
      <point x="114.69811320754717" y="94.39622641509433"/>
      <point x="76.35849056603773" y="132.35849056603774"/>
      <point x="62.0188679245283" y="132.35849056603774" type="curve" smooth="yes"/>
      <point x="50.679245283018865" y="132.35849056603774"/>
      <point x="35.9811320754717" y="105.94339622641509"/>
      <point x="35.9811320754717" y="53.9811320754717" type="curve" smooth="yes"/>
      <point x="35.9811320754717" y="7.849056603773587"/>
      <point x="131.33962264150944" y="-7.320754716981132"/>
    </contour>
  </outline>
</glyph>
<glyph name="six" format="2">
  <advance width="535.0"/>
  <unicode hex="0036"/>
  <outline>
    <contour>
      <point x="237.32075471698113" y="-6.981132075471698" type="curve" smooth="yes"/>
      <point x="358.39622641509436" y="-6.981132075471698"/>
      <point x="490.8490566037736" y="70.49056603773585"/>
      <point x="490.8490566037736" y="240.22641509433961" type="curve" smooth="yes"/>
      <point x="490.8490566037736" y="368.0377358490566"/>
      <point x="394.7358490566038" y="420.188679245283"/>
      <point x="315.8867924528302" y="420.188679245283" type="curve" smooth="yes"/>
      <point x="276.0188679245283" y="420.188679245283"/>
      <point x="239.2830188679245" y="412.45283018867923"/>
      <point x="201.0" y="392.47169811320754" type="curve"/>
      <point x="243.67924528301887" y="492.58490566037733"/>
      <point x="335.6792452830189" y="568.7358490566038"/>
      <point x="451.5660377358491" y="612.9056603773585" type="curve" smooth="yes"/>
      <point x="462.54716981132077" y="616.9056603773585"/>
      <point x="464.52830188679246" y="621.5849056603773"/>
      <point x="464.52830188679246" y="635.1509433962265" type="curve" smooth="yes"/>
      <point x="464.52830188679246" y="656.0943396226415"/>
      <point x="455.54716981132077" y="703.3207547169811"/>
      <point x="428.2830188679245" y="703.3207547169811" type="curve" smooth="yes"/>
      <point x="381.7358490566038" y="703.3207547169811"/>
      <point x="33.79245283018868" y="569.188679245283"/>
      <point x="33.79245283018868" y="204.9245283018868" type="curve" smooth="yes"/>
      <point x="33.79245283018868" y="55.79245283018868"/>
      <point x="125.50943396226415" y="-6.981132075471698"/>
    </contour>
    <contour>
      <point x="250.32075471698113" y="94.73584905660377" type="curve" smooth="yes"/>
      <point x="203.22641509433961" y="94.73584905660377"/>
      <point x="161.37735849056602" y="120.73584905660377"/>
      <point x="161.37735849056602" y="206.62264150943398" type="curve" smooth="yes"/>
      <point x="161.37735849056602" y="235.71698113207546"/>
      <point x="166.0566037735849" y="264.0566037735849"/>
      <point x="170.73584905660377" y="291.07547169811323" type="curve"/>
      <point x="198.75471698113208" y="305.75471698113205"/>
      <point x="232.8679245283019" y="318.47169811320754"/>
      <point x="268.6981132075472" y="318.47169811320754" type="curve" smooth="yes"/>
      <point x="323.75471698113205" y="318.47169811320754"/>
      <point x="362.2641509433962" y="287.47169811320754"/>
      <point x="362.2641509433962" y="225.60377358490567" type="curve" smooth="yes"/>
      <point x="362.2641509433962" y="143.37735849056602"/>
      <point x="304.35849056603774" y="94.73584905660377"/>
    </contour>
  </outline>
</glyph>
<glyph name="seven" format="2">
  <advance width="535.0"/>
  <unicode hex="0037"/>
  <outline>
    <contour>
      <point x="112.09433962264151" y="-2.0" type="curve" smooth="yes"/>
      <point x="143.9056603773585" y="-2.0" type="line" smooth="yes"/>
      <point x="169.8490566037736" y="-2.0"/>
      <point x="189.47169811320754" y="2.6792452830188678"/>
      <point x="197.45283018867923" y="16.641509433962263" type="curve" smooth="yes"/>
      <point x="529.7358490566038" y="608.2830188679245" type="line" smooth="yes"/>
      <point x="532.3962264150944" y="613.6037735849056"/>
      <point x="534.0566037735849" y="623.566037735849"/>
      <point x="534.0566037735849" y="631.8867924528302" type="curve" smooth="yes"/>
      <point x="534.0566037735849" y="659.811320754717"/>
      <point x="524.0754716981132" y="700.0"/>
      <point x="506.79245283018867" y="700.0" type="curve" smooth="yes"/>
      <point x="117.45283018867924" y="700.0" type="line" smooth="yes"/>
      <point x="98.83018867924528" y="700.0"/>
      <point x="90.18867924528303" y="688.0566037735849"/>
      <point x="86.52830188679246" y="656.7924528301887" type="curve" smooth="yes"/>
      <point x="84.52830188679246" y="639.7924528301887" type="line" smooth="yes"/>
      <point x="81.20754716981132" y="609.5471698113207"/>
      <point x="87.52830188679246" y="598.2830188679245"/>
      <point x="106.15094339622641" y="598.2830188679245" type="curve" smooth="yes"/>
      <point x="388.47169811320754" y="598.2830188679245" type="line"/>
      <point x="67.50943396226415" y="33.283018867924525" type="line" smooth="yes"/>
      <point x="62.84905660377359" y="25.62264150943396"/>
      <point x="61.18867924528302" y="20.30188679245283"/>
      <point x="61.18867924528302" y="15.641509433962264" type="curve" smooth="yes"/>
      <point x="61.18867924528302" y="-0.9811320754716979"/>
      <point x="86.41509433962264" y="-2.0"/>
    </contour>
  </outline>
</glyph>
<glyph name="eight" format="2">
  <advance width="535.0"/>
  <unicode hex="0038"/>
  <outline>
    <contour>
      <point x="246.64150943396226" y="-7.320754716981132" type="curve" smooth="yes"/>
      <point x="414.8679245283019" y="-7.320754716981132"/>
      <point x="493.52830188679246" y="104.9622641509434"/>
      <point x="493.52830188679246" y="222.69811320754718" type="curve" smooth="yes"/>
      <point x="493.52830188679246" y="313.0377358490566"/>
      <point x="452.1509433962264" y="357.3018867924528"/>
      <point x="398.1320754716981" y="383.64150943396226" type="curve"/>
      <point x="453.1698113207547" y="409.3018867924528"/>
      <point x="505.52830188679246" y="456.0188679245283"/>
      <point x="505.52830188679246" y="548.0188679245283" type="curve" smooth="yes"/>
      <point x="505.52830188679246" y="641.7735849056604"/>
      <point x="432.47169811320754" y="707.3207547169811"/>
      <point x="315.62264150943395" y="707.3207547169811" type="curve" smooth="yes"/>
      <point x="174.60377358490567" y="707.3207547169811"/>
      <point x="90.49056603773585" y="617.2264150943396"/>
      <point x="90.49056603773585" y="505.75471698113205" type="curve" smooth="yes"/>
      <point x="90.49056603773585" y="443.39622641509436"/>
      <point x="116.18867924528303" y="403.35849056603774"/>
      <point x="153.20754716981133" y="376.6981132075472" type="curve"/>
      <point x="68.49056603773585" y="344.0188679245283"/>
      <point x="28.471698113207548" y="259.41509433962267"/>
      <point x="28.471698113207548" y="174.67924528301887" type="curve" smooth="yes"/>
      <point x="28.471698113207548" y="67.18867924528301"/>
      <point x="101.60377358490567" y="-7.320754716981132"/>
    </contour>
    <contour>
      <point x="255.96226415094338" y="94.39622641509433" type="curve" smooth="yes"/>
      <point x="196.54716981132074" y="94.39622641509433"/>
      <point x="157.73584905660377" y="131.0943396226415"/>
      <point x="157.73584905660377" y="193.9245283018868" type="curve" smooth="yes"/>
      <point x="157.73584905660377" y="263.0188679245283"/>
      <point x="190.47169811320754" y="305.07547169811323"/>
      <point x="239.66037735849056" y="334.1509433962264" type="curve"/>
      <point x="311.66037735849056" y="304.1509433962264"/>
      <point x="364.60377358490564" y="283.188679245283"/>
      <point x="364.60377358490564" y="209.37735849056602" type="curve" smooth="yes"/>
      <point x="364.60377358490564" y="136.45283018867923"/>
      <point x="309.45283018867923" y="94.39622641509433"/>
    </contour>
    <contour>
      <point x="304.35849056603774" y="423.8490566037736" type="curve"/>
      <point x="255.56603773584905" y="443.20754716981133"/>
      <point x="216.0943396226415" y="465.20754716981133"/>
      <point x="216.0943396226415" y="519.3584905660377" type="curve" smooth="yes"/>
      <point x="216.0943396226415" y="578.2075471698113"/>
      <point x="257.52830188679246" y="605.6037735849056"/>
      <point x="301.6792452830189" y="605.6037735849056" type="curve" smooth="yes"/>
      <point x="345.811320754717" y="605.6037735849056"/>
      <point x="380.58490566037733" y="580.5849056603773"/>
      <point x="380.58490566037733" y="532.0943396226415" type="curve" smooth="yes"/>
      <point x="380.58490566037733" y="485.58490566037733"/>
      <point x="349.77358490566036" y="449.54716981132077"/>
    </contour>
  </outline>
</glyph>
<glyph name="nine" format="2">
  <advance width="535.0"/>
  <unicode hex="0039"/>
  <outline>
    <contour>
      <point x="121.39622641509433" y="-2.981132075471698" type="curve" smooth="yes"/>
      <point x="167.9433962264151" y="-2.981132075471698"/>
      <point x="515.8867924528302" y="131.1509433962264"/>
      <point x="515.8867924528302" y="495.41509433962267" type="curve" smooth="yes"/>
      <point x="515.8867924528302" y="644.5471698113207"/>
      <point x="424.1698113207547" y="707.3207547169811"/>
      <point x="312.35849056603774" y="707.3207547169811" type="curve" smooth="yes"/>
      <point x="191.28301886792454" y="707.3207547169811"/>
      <point x="58.83018867924528" y="629.8490566037735"/>
      <point x="58.83018867924528" y="460.1132075471698" type="curve" smooth="yes"/>
      <point x="58.83018867924528" y="332.3018867924528"/>
      <point x="154.9433962264151" y="280.1509433962264"/>
      <point x="233.79245283018867" y="280.1509433962264" type="curve" smooth="yes"/>
      <point x="273.66037735849056" y="280.1509433962264"/>
      <point x="310.39622641509436" y="287.8867924528302"/>
      <point x="348.6792452830189" y="307.8679245283019" type="curve"/>
      <point x="306.0" y="207.75471698113208"/>
      <point x="214.0" y="131.60377358490567"/>
      <point x="98.11320754716981" y="87.43396226415095" type="curve" smooth="yes"/>
      <point x="87.13207547169812" y="83.43396226415095"/>
      <point x="85.15094339622641" y="78.75471698113208"/>
      <point x="85.15094339622641" y="65.18867924528301" type="curve" smooth="yes"/>
      <point x="85.15094339622641" y="44.24528301886792"/>
      <point x="94.13207547169812" y="-2.981132075471698"/>
    </contour>
    <contour>
      <point x="280.9811320754717" y="381.8679245283019" type="curve" smooth="yes"/>
      <point x="225.9245283018868" y="381.8679245283019"/>
      <point x="187.41509433962264" y="412.8679245283019"/>
      <point x="187.41509433962264" y="474.7358490566038" type="curve" smooth="yes"/>
      <point x="187.41509433962264" y="556.9622641509434"/>
      <point x="245.32075471698113" y="605.6037735849056"/>
      <point x="299.35849056603774" y="605.6037735849056" type="curve" smooth="yes"/>
      <point x="346.45283018867923" y="605.6037735849056"/>
      <point x="388.3018867924528" y="579.6037735849056"/>
      <point x="388.3018867924528" y="493.7169811320755" type="curve" smooth="yes"/>
      <point x="388.3018867924528" y="464.62264150943395"/>
      <point x="383.62264150943395" y="436.2830188679245"/>
      <point x="378.9433962264151" y="409.2641509433962" type="curve"/>
      <point x="350.92452830188677" y="394.58490566037733"/>
      <point x="316.811320754717" y="381.8679245283019"/>
    </contour>
  </outline>
</glyph>
<glyph name="colon" format="2">
  <advance width="198.0"/>
  <unicode hex="003A"/>
  <outline>
    <contour>
      <point x="138.96226415094338" y="525.0" type="curve" smooth="yes"/>
      <point x="112.05660377358491" y="525.0" type="line" smooth="yes"/>
      <point x="74.47169811320755" y="525.0"/>
      <point x="57.84905660377359" y="515.0188679245283"/>
      <point x="56.18867924528302" y="496.39622641509436" type="curve" smooth="yes"/>
      <point x="47.20754716981132" y="413.22641509433964" type="line"/>
      <point x="47.20754716981132" y="394.60377358490564"/>
      <point x="59.509433962264154" y="384.62264150943395"/>
      <point x="97.75471698113208" y="384.62264150943395" type="curve" smooth="yes"/>
      <point x="124.66037735849056" y="384.62264150943395" type="line" smooth="yes"/>
      <point x="161.9056603773585" y="384.62264150943395"/>
      <point x="178.52830188679246" y="394.60377358490564"/>
      <point x="180.52830188679246" y="413.22641509433964" type="curve" smooth="yes"/>
      <point x="189.50943396226415" y="496.39622641509436" type="line"/>
      <point x="189.50943396226415" y="515.0188679245283"/>
      <point x="177.20754716981133" y="525.0"/>
    </contour>
    <contour>
      <point x="98.26415094339623" y="138.37735849056602" type="curve" smooth="yes"/>
      <point x="71.35849056603773" y="138.37735849056602" type="line" smooth="yes"/>
      <point x="33.77358490566038" y="138.37735849056602"/>
      <point x="17.150943396226417" y="128.39622641509433"/>
      <point x="15.49056603773585" y="109.77358490566037" type="curve" smooth="yes"/>
      <point x="7.169811320754718" y="26.60377358490566" type="line"/>
      <point x="7.169811320754718" y="7.981132075471698"/>
      <point x="18.81132075471698" y="-2.0"/>
      <point x="57.056603773584904" y="-2.0" type="curve" smooth="yes"/>
      <point x="83.9622641509434" y="-2.0" type="line" smooth="yes"/>
      <point x="121.20754716981132" y="-2.0"/>
      <point x="137.83018867924528" y="7.981132075471698"/>
      <point x="139.83018867924528" y="26.60377358490566" type="curve" smooth="yes"/>
      <point x="148.81132075471697" y="109.77358490566037" type="line"/>
      <point x="148.81132075471697" y="128.39622641509433"/>
      <point x="136.50943396226415" y="138.37735849056602"/>
    </contour>
  </outline>
</glyph>
<glyph name="semicolon" format="2">
  <advance width="198.0"/>
  <unicode hex="003B"/>
  <outline>
    <contour>
      <point x="144.96226415094338" y="525.0" type="curve" smooth="yes"/>
      <point x="118.05660377358491" y="525.0" type="line" smooth="yes"/>
      <point x="80.47169811320755" y="525.0"/>
      <point x="63.18867924528302" y="515.0188679245283"/>
      <point x="62.18867924528302" y="496.39622641509436" type="curve" smooth="yes"/>
      <point x="53.20754716981132" y="413.22641509433964" type="line"/>
      <point x="53.20754716981132" y="394.60377358490564"/>
      <point x="65.50943396226415" y="384.62264150943395"/>
      <point x="103.75471698113208" y="384.62264150943395" type="curve" smooth="yes"/>
      <point x="130.66037735849056" y="384.62264150943395" type="line" smooth="yes"/>
      <point x="167.9056603773585" y="384.62264150943395"/>
      <point x="184.52830188679246" y="394.60377358490564"/>
      <point x="186.52830188679246" y="413.22641509433964" type="curve" smooth="yes"/>
      <point x="195.50943396226415" y="496.39622641509436" type="line"/>
      <point x="195.50943396226415" y="515.0188679245283"/>
      <point x="183.20754716981133" y="525.0"/>
    </contour>
    <component base="comma" xOffset="-18.641509433962263"/>
  </outline>
</glyph>
<glyph name="less" format="2">
  <advance width="560.0"/>
  <unicode hex="003C"/>
  <outline>
    <contour>
      <point x="471.6792452830189" y="9.943396226415093" type="curve" smooth="yes"/>
      <point x="484.66037735849056" y="9.943396226415093"/>
      <point x="490.66037735849056" y="24.22641509433962"/>
      <point x="493.3207547169811" y="48.54716981132076" type="curve" smooth="yes"/>
      <point x="495.3018867924528" y="64.43396226415095" type="line" smooth="yes"/>
      <point x="498.9622641509434" y="95.0566037735849"/>
      <point x="490.3207547169811" y="108.67924528301887"/>
      <point x="469.0943396226415" y="117.30188679245282" type="curve" smooth="yes"/>
      <point x="167.88679245283018" y="237.88679245283018" type="line"/>
      <point x="499.37735849056605" y="357.1320754716981" type="line" smooth="yes"/>
      <point x="520.9811320754717" y="365.1132075471698"/>
      <point x="529.6603773584906" y="380.37735849056605"/>
      <point x="532.6603773584906" y="412.9622641509434" type="curve" smooth="yes"/>
      <point x="534.6603773584906" y="432.58490566037733" type="line" smooth="yes"/>
      <point x="536.6603773584906" y="456.52830188679246"/>
      <point x="530.6603773584906" y="468.49056603773585"/>
      <point x="520.0" y="468.49056603773585" type="curve" smooth="yes"/>
      <point x="516.6603773584906" y="468.49056603773585"/>
      <point x="512.6603773584906" y="467.49056603773585"/>
      <point x="508.66037735849056" y="466.1509433962264" type="curve" smooth="yes"/>
      <point x="68.01886792452831" y="286.8490566037736" type="line" smooth="yes"/>
      <point x="51.0377358490566" y="280.188679245283"/>
      <point x="41.0188679245283" y="271.52830188679246"/>
      <point x="39.0188679245283" y="244.9056603773585" type="curve" smooth="yes"/>
      <point x="37.679245283018865" y="229.18867924528303" type="line" smooth="yes"/>
      <point x="36.0188679245283" y="206.26415094339623"/>
      <point x="44.679245283018865" y="197.60377358490567"/>
      <point x="65.62264150943396" y="187.96226415094338" type="curve" smooth="yes"/>
      <point x="447.39622641509436" y="16.92452830188679" type="line" smooth="yes"/>
      <point x="457.0377358490566" y="12.60377358490566"/>
      <point x="465.35849056603774" y="9.943396226415093"/>
    </contour>
  </outline>
</glyph>
<glyph name="equal" format="2">
  <advance width="560.0"/>
  <unicode hex="003D"/>
  <outline>
    <contour>
      <point x="70.0377358490566" y="267.33962264150944" type="curve" smooth="yes"/>
      <point x="490.9622641509434" y="267.33962264150944" type="line" smooth="yes"/>
      <point x="507.58490566037733" y="267.33962264150944"/>
      <point x="518.9433962264151" y="277.3018867924528"/>
      <point x="521.2641509433962" y="306.58490566037733" type="curve" smooth="yes"/>
      <point x="522.9245283018868" y="325.8867924528302" type="line" smooth="yes"/>
      <point x="525.2452830188679" y="351.8490566037736"/>
      <point x="518.566037735849" y="362.45283018867923"/>
      <point x="501.9433962264151" y="362.45283018867923" type="curve" smooth="yes"/>
      <point x="80.33962264150944" y="362.45283018867923" type="line" smooth="yes"/>
      <point x="62.35849056603774" y="362.45283018867923"/>
      <point x="53.0377358490566" y="352.49056603773585"/>
      <point x="50.37735849056604" y="325.8490566037736" type="curve" smooth="yes"/>
      <point x="48.716981132075475" y="307.22641509433964" type="line" smooth="yes"/>
      <point x="46.056603773584904" y="278.62264150943395"/>
      <point x="53.41509433962264" y="267.33962264150944"/>
    </contour>
    <contour>
      <point x="51.716981132075475" y="93.45283018867924" type="curve" smooth="yes"/>
      <point x="472.64150943396226" y="93.45283018867924" type="line" smooth="yes"/>
      <point x="489.2641509433962" y="93.45283018867924"/>
      <point x="500.62264150943395" y="103.41509433962264"/>
      <point x="502.9433962264151" y="132.69811320754718" type="curve" smooth="yes"/>
      <point x="504.60377358490564" y="152.0" type="line" smooth="yes"/>
      <point x="506.92452830188677" y="177.96226415094338"/>
      <point x="500.24528301886795" y="188.56603773584905"/>
      <point x="483.62264150943395" y="188.56603773584905" type="curve" smooth="yes"/>
      <point x="62.0188679245283" y="188.56603773584905" type="line" smooth="yes"/>
      <point x="44.0377358490566" y="188.56603773584905"/>
      <point x="34.716981132075475" y="178.60377358490567"/>
      <point x="32.056603773584904" y="151.96226415094338" type="curve" smooth="yes"/>
      <point x="30.39622641509434" y="133.33962264150944" type="line" smooth="yes"/>
      <point x="27.735849056603776" y="104.73584905660377"/>
      <point x="35.09433962264151" y="93.45283018867924"/>
    </contour>
  </outline>
</glyph>
<glyph name="greater" format="2">
  <advance width="560.0"/>
  <unicode hex="003E"/>
  <outline>
    <contour>
      <point x="39.0188679245283" y="10.943396226415093" type="curve" smooth="yes"/>
      <point x="44.679245283018865" y="10.943396226415093"/>
      <point x="52.339622641509436" y="12.943396226415093"/>
      <point x="60.9811320754717" y="16.264150943396224" type="curve" smooth="yes"/>
      <point x="484.0377358490566" y="188.9433962264151" type="line" smooth="yes"/>
      <point x="505.0377358490566" y="197.9433962264151"/>
      <point x="515.0" y="207.60377358490567"/>
      <point x="516.3396226415094" y="234.24528301886792" type="curve" smooth="yes"/>
      <point x="517.3396226415094" y="250.8490566037736" type="line" smooth="yes"/>
      <point x="518.6792452830189" y="270.8490566037736"/>
      <point x="510.0188679245283" y="280.1698113207547"/>
      <point x="494.35849056603774" y="287.1698113207547" type="curve" smooth="yes"/>
      <point x="111.67924528301887" y="459.1509433962264" type="line" smooth="yes"/>
      <point x="102.67924528301887" y="463.1509433962264"/>
      <point x="89.67924528301887" y="468.1509433962264"/>
      <point x="83.35849056603773" y="468.1509433962264" type="curve" smooth="yes"/>
      <point x="66.37735849056604" y="468.1509433962264"/>
      <point x="58.39622641509434" y="450.8867924528302"/>
      <point x="58.39622641509434" y="412.9433962264151" type="curve" smooth="yes"/>
      <point x="58.39622641509434" y="384.0377358490566"/>
      <point x="63.37735849056604" y="363.47169811320754"/>
      <point x="89.0377358490566" y="353.47169811320754" type="curve" smooth="yes"/>
      <point x="379.811320754717" y="240.54716981132074" type="line"/>
      <point x="52.679245283018865" y="121.30188679245282" type="line" smooth="yes"/>
      <point x="25.056603773584907" y="111.64150943396226"/>
      <point x="20.37735849056604" y="88.11320754716981"/>
      <point x="20.37735849056604" y="52.471698113207545" type="curve" smooth="yes"/>
      <point x="20.37735849056604" y="26.886792452830186"/>
      <point x="24.037735849056602" y="10.943396226415093"/>
    </contour>
  </outline>
</glyph>
<glyph name="question" format="2">
  <advance width="445.0"/>
  <unicode hex="003F"/>
  <outline>
    <contour>
      <point x="161.67924528301887" y="215.20754716981133" type="curve" smooth="yes"/>
      <point x="181.96226415094338" y="215.20754716981133" type="line" smooth="yes"/>
      <point x="211.56603773584905" y="215.20754716981133"/>
      <point x="223.8679245283019" y="221.54716981132074"/>
      <point x="230.83018867924528" y="239.83018867924528" type="curve" smooth="yes"/>
      <point x="242.83018867924528" y="284.22641509433964"/>
      <point x="282.52830188679246" y="317.3018867924528"/>
      <point x="325.22641509433964" y="353.0188679245283" type="curve" smooth="yes"/>
      <point x="386.24528301886795" y="402.75471698113205"/>
      <point x="452.2641509433962" y="456.79245283018867"/>
      <point x="452.2641509433962" y="553.3584905660377" type="curve" smooth="yes"/>
      <point x="452.2641509433962" y="645.2641509433962"/>
      <point x="381.66037735849056" y="707.3207547169811"/>
      <point x="257.0" y="707.3207547169811" type="curve" smooth="yes"/>
      <point x="180.33962264150944" y="707.3207547169811"/>
      <point x="66.45283018867924" y="683.9811320754717"/>
      <point x="66.45283018867924" y="632.4716981132076" type="curve" smooth="yes"/>
      <point x="66.45283018867924" y="611.8490566037735"/>
      <point x="90.37735849056604" y="563.0"/>
      <point x="111.60377358490567" y="563.0" type="curve" smooth="yes"/>
      <point x="125.94339622641509" y="563.0"/>
      <point x="171.32075471698113" y="595.0188679245283"/>
      <point x="231.0188679245283" y="595.0188679245283" type="curve" smooth="yes"/>
      <point x="288.20754716981133" y="595.0188679245283"/>
      <point x="315.3207547169811" y="573.2830188679245"/>
      <point x="315.3207547169811" y="533.0943396226415" type="curve" smooth="yes"/>
      <point x="315.3207547169811" y="487.9622641509434"/>
      <point x="271.62264150943395" y="449.92452830188677"/>
      <point x="220.16981132075472" y="403.1509433962264" type="curve" smooth="yes"/>
      <point x="168.75471698113208" y="355.0943396226415"/>
      <point x="121.79245283018868" y="299.6792452830189"/>
      <point x="121.79245283018868" y="241.49056603773585" type="curve" smooth="yes"/>
      <point x="121.79245283018868" y="223.20754716981133"/>
      <point x="130.45283018867926" y="215.20754716981133"/>
    </contour>
    <contour>
      <point x="135.0566037735849" y="-2.0" type="curve" smooth="yes"/>
      <point x="161.96226415094338" y="-2.0" type="line" smooth="yes"/>
      <point x="197.8679245283019" y="-2.0"/>
      <point x="216.83018867924528" y="7.981132075471698"/>
      <point x="218.83018867924528" y="26.60377358490566" type="curve" smooth="yes"/>
      <point x="227.1509433962264" y="109.77358490566037" type="line"/>
      <point x="227.1509433962264" y="128.39622641509433"/>
      <point x="215.50943396226415" y="138.37735849056602"/>
      <point x="177.26415094339623" y="138.37735849056602" type="curve" smooth="yes"/>
      <point x="150.35849056603774" y="138.37735849056602" type="line" smooth="yes"/>
      <point x="113.11320754716981" y="138.37735849056602"/>
      <point x="95.49056603773585" y="128.39622641509433"/>
      <point x="93.83018867924528" y="109.77358490566037" type="curve" smooth="yes"/>
      <point x="85.50943396226415" y="26.60377358490566" type="line"/>
      <point x="85.50943396226415" y="7.320754716981132"/>
      <point x="95.49056603773585" y="-2.0"/>
    </contour>
  </outline>
</glyph>
<glyph name="at" format="2">
  <advance width="974.0"/>
  <unicode hex="0040"/>
  <outline>
    <contour>
      <point x="410.0" y="-124.01886792452831" type="curve" smooth="yes"/>
      <point x="454.54716981132077" y="-124.01886792452831"/>
      <point x="555.0188679245283" y="-113.26415094339623"/>
      <point x="562.3396226415094" y="-78.0377358490566" type="curve" smooth="yes"/>
      <point x="565.3396226415094" y="-67.35849056603773"/>
      <point x="565.6792452830189" y="-55.39622641509434"/>
      <point x="565.6792452830189" y="-51.698113207547166" type="curve" smooth="yes"/>
      <point x="565.6792452830189" y="-44.735849056603776"/>
      <point x="564.0188679245283" y="-41.735849056603776"/>
      <point x="560.3584905660377" y="-41.735849056603776" type="curve" smooth="yes"/>
      <point x="547.3584905660377" y="-41.735849056603776"/>
      <point x="505.2830188679245" y="-73.41509433962264"/>
      <point x="410.0" y="-73.41509433962264" type="curve" smooth="yes"/>
      <point x="251.96226415094338" y="-73.41509433962264"/>
      <point x="144.60377358490567" y="52.943396226415096"/>
      <point x="144.60377358490567" y="238.9811320754717" type="curve" smooth="yes"/>
      <point x="144.60377358490567" y="473.0188679245283"/>
      <point x="315.9622641509434" y="656.377358490566"/>
      <point x="534.0" y="656.377358490566" type="curve" smooth="yes"/>
      <point x="697.0377358490566" y="656.377358490566"/>
      <point x="806.3962264150944" y="547.0188679245283"/>
      <point x="806.3962264150944" y="381.9811320754717" type="curve" smooth="yes"/>
      <point x="806.3962264150944" y="246.22641509433961"/>
      <point x="744.0" y="129.45283018867923"/>
      <point x="672.6415094339623" y="129.45283018867923" type="curve" smooth="yes"/>
      <point x="653.3962264150944" y="129.45283018867923"/>
      <point x="635.9433962264151" y="137.37735849056602"/>
      <point x="635.9433962264151" y="167.49056603773585" type="curve" smooth="yes"/>
      <point x="635.9433962264151" y="187.52830188679246"/>
      <point x="667.622641509434" y="475.0566037735849"/>
      <point x="667.622641509434" y="478.35849056603774" type="curve"/>
      <point x="667.622641509434" y="493.33962264150944"/>
      <point x="657.0" y="502.66037735849056"/>
      <point x="629.1132075471698" y="502.66037735849056" type="curve" smooth="yes"/>
      <point x="619.1509433962265" y="502.66037735849056" type="line" smooth="yes"/>
      <point x="586.2264150943396" y="502.66037735849056"/>
      <point x="581.2830188679245" y="489.64150943396226"/>
      <point x="572.9245283018868" y="461.3018867924528" type="curve"/>
      <point x="555.5849056603773" y="478.64150943396226"/>
      <point x="518.2452830188679" y="506.9811320754717"/>
      <point x="467.8679245283019" y="506.9811320754717" type="curve" smooth="yes"/>
      <point x="352.41509433962267" y="506.9811320754717"/>
      <point x="274.0377358490566" y="397.62264150943395"/>
      <point x="274.0377358490566" y="237.9811320754717" type="curve" smooth="yes"/>
      <point x="274.0377358490566" y="110.13207547169812"/>
      <point x="339.58490566037733" y="56.64150943396226"/>
      <point x="412.4339622641509" y="56.64150943396226" type="curve" smooth="yes"/>
      <point x="463.1132075471698" y="56.64150943396226"/>
      <point x="506.8301886792453" y="83.30188679245283"/>
      <point x="533.2452830188679" y="130.1509433962264" type="curve"/>
      <point x="542.1698113207547" y="91.67924528301887"/>
      <point x="574.188679245283" y="56.64150943396226"/>
      <point x="641.811320754717" y="56.64150943396226" type="curve" smooth="yes"/>
      <point x="770.433962264151" y="56.64150943396226"/>
      <point x="867.0" y="200.64150943396226"/>
      <point x="867.0" y="381.9811320754717" type="curve" smooth="yes"/>
      <point x="867.0" y="577.9811320754717"/>
      <point x="735.0" y="706.9811320754717"/>
      <point x="534.0" y="706.9811320754717" type="curve" smooth="yes"/>
      <point x="281.0" y="706.9811320754717"/>
      <point x="84.0" y="501.9811320754717"/>
      <point x="84.0" y="238.9811320754717" type="curve" smooth="yes"/>
      <point x="84.0" y="22.9811320754717"/>
      <point x="216.0" y="-124.01886792452831"/>
    </contour>
    <contour>
      <point x="448.9056603773585" y="144.0566037735849" type="curve" smooth="yes"/>
      <point x="407.50943396226415" y="144.0566037735849"/>
      <point x="381.37735849056605" y="174.0566037735849"/>
      <point x="381.37735849056605" y="244.96226415094338" type="curve" smooth="yes"/>
      <point x="381.37735849056605" y="349.92452830188677"/>
      <point x="413.0188679245283" y="421.20754716981133"/>
      <point x="489.0566037735849" y="421.20754716981133" type="curve" smooth="yes"/>
      <point x="519.188679245283" y="421.20754716981133"/>
      <point x="540.9433962264151" y="407.811320754717"/>
      <point x="555.9622641509434" y="394.47169811320754" type="curve"/>
      <point x="545.6603773584906" y="347.0377358490566"/>
      <point x="539.3207547169811" y="280.58490566037733"/>
      <point x="535.6415094339623" y="223.64150943396226" type="curve"/>
      <point x="512.188679245283" y="169.11320754716982"/>
      <point x="479.64150943396226" y="144.0566037735849"/>
    </contour>
  </outline>
</glyph>
<glyph name="A" format="2">
  <advance width="613.0"/>
  <unicode hex="0041"/>
  <anchor x="279.0" y="0.0" name="bottom"/>
  <anchor x="559.9433962264151" y="0.0" name="ogonek"/>
  <anchor x="352.0" y="700.0" name="top"/>
  <outline>
    <contour>
      <point x="31.30188679245283" y="-2.0" type="curve" smooth="yes"/>
      <point x="59.41509433962264" y="-2.0" type="line" smooth="yes"/>
      <point x="82.0566037735849" y="-2.0"/>
      <point x="98.71698113207547" y="3.3207547169811322"/>
      <point x="105.0377358490566" y="17.30188679245283" type="curve" smooth="yes"/>
      <point x="166.49056603773585" y="153.56603773584905" type="line"/>
      <point x="418.8867924528302" y="153.56603773584905" type="line"/>
      <point x="452.3018867924528" y="17.30188679245283" type="line" smooth="yes"/>
      <point x="455.9622641509434" y="2.660377358490566"/>
      <point x="474.60377358490564" y="-2.0"/>
      <point x="501.20754716981133" y="-2.0" type="curve" smooth="yes"/>
      <point x="532.9811320754717" y="-2.0" type="line" smooth="yes"/>
      <point x="567.6415094339623" y="-2.0"/>
      <point x="583.5849056603773" y="7.0"/>
      <point x="583.5849056603773" y="19.9811320754717" type="curve" smooth="yes"/>
      <point x="583.5849056603773" y="22.9811320754717"/>
      <point x="582.2641509433962" y="31.264150943396224"/>
      <point x="581.2641509433962" y="34.60377358490566" type="curve" smooth="yes"/>
      <point x="423.8301886792453" y="682.6981132075472" type="line" smooth="yes"/>
      <point x="420.1698113207547" y="697.3396226415094"/>
      <point x="400.20754716981133" y="702.0"/>
      <point x="374.2641509433962" y="702.0" type="curve" smooth="yes"/>
      <point x="330.07547169811323" y="702.0" type="line" smooth="yes"/>
      <point x="303.79245283018867" y="702.0"/>
      <point x="283.50943396226415" y="697.3396226415094"/>
      <point x="277.188679245283" y="682.6981132075472" type="curve" smooth="yes"/>
      <point x="-15.264150943396226" y="34.943396226415096" type="line" smooth="yes"/>
      <point x="-18.92452830188679" y="27.62264150943396"/>
      <point x="-20.92452830188679" y="21.962264150943398"/>
      <point x="-20.92452830188679" y="16.641509433962263" type="curve" smooth="yes"/>
      <point x="-20.92452830188679" y="4.320754716981132"/>
      <point x="-3.962264150943396" y="-2.0"/>
    </contour>
    <contour>
      <point x="215.69811320754718" y="266.54716981132077" type="line"/>
      <point x="312.41509433962267" y="485.3018867924528" type="line" smooth="yes"/>
      <point x="321.07547169811323" y="504.62264150943395"/>
      <point x="328.07547169811323" y="526.9433962264151"/>
      <point x="334.07547169811323" y="547.2641509433962" type="curve"/>
      <point x="337.39622641509436" y="547.2641509433962" type="line"/>
      <point x="338.0566037735849" y="526.9433962264151"/>
      <point x="339.7169811320755" y="505.62264150943395"/>
      <point x="344.7169811320755" y="485.3018867924528" type="curve" smooth="yes"/>
      <point x="392.62264150943395" y="266.54716981132077" type="line"/>
    </contour>
  </outline>
</glyph>
<glyph name="B" format="2">
  <advance width="593.0"/>
  <unicode hex="0042"/>
  <anchor x="270.0" y="0.0" name="bottom"/>
  <anchor x="343.0" y="700.0" name="top"/>
  <outline>
    <contour>
      <point x="85.33962264150944" y="0.0" type="curve" smooth="yes"/>
      <point x="285.45283018867923" y="0.0" type="line" smooth="yes"/>
      <point x="465.1132075471698" y="0.0"/>
      <point x="562.2075471698113" y="75.58490566037736"/>
      <point x="562.2075471698113" y="219.66037735849056" type="curve" smooth="yes"/>
      <point x="562.2075471698113" y="305.62264150943395"/>
      <point x="488.6981132075472" y="357.0943396226415"/>
      <point x="440.49056603773585" y="367.0" type="curve"/>
      <point x="440.8301886792453" y="371.0" type="line"/>
      <point x="510.811320754717" y="396.2641509433962"/>
      <point x="567.5283018867924" y="457.6792452830189"/>
      <point x="567.5283018867924" y="545.3207547169811" type="curve" smooth="yes"/>
      <point x="567.5283018867924" y="637.6603773584906"/>
      <point x="501.811320754717" y="700.0"/>
      <point x="351.58490566037733" y="700.0" type="curve" smooth="yes"/>
      <point x="158.33962264150944" y="700.0" type="line" smooth="yes"/>
      <point x="132.71698113207546" y="700.0"/>
      <point x="120.73584905660377" y="689.0188679245283"/>
      <point x="118.0754716981132" y="663.3962264150944" type="curve" smooth="yes"/>
      <point x="52.39622641509434" y="29.28301886792453" type="line" smooth="yes"/>
      <point x="50.39622641509434" y="7.660377358490566"/>
      <point x="61.056603773584904" y="0.0"/>
    </contour>
    <contour>
      <point x="191.62264150943395" y="112.32075471698113" type="line"/>
      <point x="211.67924528301887" y="300.8679245283019" type="line"/>
      <point x="311.33962264150944" y="300.8679245283019" type="line" smooth="yes"/>
      <point x="386.8679245283019" y="300.8679245283019"/>
      <point x="426.9622641509434" y="272.77358490566036"/>
      <point x="426.9622641509434" y="220.66037735849056" type="curve" smooth="yes"/>
      <point x="426.9622641509434" y="152.47169811320754"/>
      <point x="388.8301886792453" y="112.32075471698113"/>
      <point x="307.62264150943395" y="112.32075471698113" type="curve" smooth="yes"/>
    </contour>
    <contour>
      <point x="223.64150943396226" y="413.188679245283" type="line"/>
      <point x="242.0188679245283" y="588.3396226415094" type="line"/>
      <point x="328.64150943396226" y="588.3396226415094" type="line" smooth="yes"/>
      <point x="396.8679245283019" y="588.3396226415094"/>
      <point x="429.3018867924528" y="564.2830188679245"/>
      <point x="429.3018867924528" y="515.4905660377359" type="curve" smooth="yes"/>
      <point x="429.3018867924528" y="449.66037735849056"/>
      <point x="383.79245283018867" y="413.188679245283"/>
      <point x="310.3018867924528" y="413.188679245283" type="curve" smooth="yes"/>
    </contour>
  </outline>
</glyph>
<glyph name="C" format="2">
  <advance width="619.0"/>
  <unicode hex="0043"/>
  <anchor x="356.41509433962267" y="0.0" name="bottom"/>
  <anchor x="396.20754716981133" y="700.0" name="top"/>
  <outline>
    <contour>
      <point x="332.9433962264151" y="-7.320754716981132" type="curve" smooth="yes"/>
      <point x="397.6981132075472" y="-7.320754716981132"/>
      <point x="477.24528301886795" y="7.716981132075472"/>
      <point x="521.188679245283" y="31.0188679245283" type="curve" smooth="yes"/>
      <point x="542.188679245283" y="42.0188679245283"/>
      <point x="558.8301886792453" y="58.9811320754717"/>
      <point x="558.8301886792453" y="74.26415094339623" type="curve" smooth="yes"/>
      <point x="558.8301886792453" y="92.22641509433961"/>
      <point x="540.5094339622641" y="148.39622641509433"/>
      <point x="515.9622641509434" y="148.39622641509433" type="curve" smooth="yes"/>
      <point x="501.64150943396226" y="148.39622641509433"/>
      <point x="442.62264150943395" y="105.0"/>
      <point x="344.9056603773585" y="105.0" type="curve" smooth="yes"/>
      <point x="231.66037735849056" y="105.0"/>
      <point x="176.22641509433961" y="167.71698113207546"/>
      <point x="176.22641509433961" y="294.24528301886795" type="curve" smooth="yes"/>
      <point x="176.22641509433961" y="489.5660377358491"/>
      <point x="255.0188679245283" y="594.3396226415094"/>
      <point x="399.3207547169811" y="594.3396226415094" type="curve" smooth="yes"/>
      <point x="494.66037735849056" y="594.3396226415094"/>
      <point x="533.0377358490566" y="558.2641509433962"/>
      <point x="544.6981132075472" y="558.2641509433962" type="curve" smooth="yes"/>
      <point x="563.9622641509434" y="558.2641509433962"/>
      <point x="607.811320754717" y="617.1132075471698"/>
      <point x="607.811320754717" y="641.6981132075472" type="curve" smooth="yes"/>
      <point x="607.811320754717" y="652.0188679245283"/>
      <point x="598.7924528301887" y="662.0188679245283"/>
      <point x="586.1509433962265" y="670.0" type="curve" smooth="yes"/>
      <point x="550.188679245283" y="692.3018867924528"/>
      <point x="476.2830188679245" y="707.3207547169811"/>
      <point x="412.58490566037733" y="707.3207547169811" type="curve" smooth="yes"/>
      <point x="170.96226415094338" y="707.3207547169811"/>
      <point x="39.9811320754717" y="555.6415094339623"/>
      <point x="39.9811320754717" y="275.66037735849056" type="curve" smooth="yes"/>
      <point x="39.9811320754717" y="82.33962264150944"/>
      <point x="135.30188679245282" y="-7.320754716981132"/>
    </contour>
  </outline>
</glyph>
<glyph name="D" format="2">
  <advance width="695.0"/>
  <unicode hex="0044"/>
  <anchor x="300.9056603773585" y="0.0" name="bottom"/>
  <anchor x="357.9056603773585" y="350.0" name="center"/>
  <anchor x="357.9056603773585" y="700.0" name="top"/>
  <outline>
    <contour>
      <point x="89.64150943396227" y="0.0" type="curve" smooth="yes"/>
      <point x="310.58490566037733" y="0.0" type="line" smooth="yes"/>
      <point x="516.0" y="0.0"/>
      <point x="667.5283018867924" y="132.0754716981132"/>
      <point x="667.5283018867924" y="412.35849056603774" type="curve" smooth="yes"/>
      <point x="667.5283018867924" y="606.8301886792453"/>
      <point x="560.3962264150944" y="700.0"/>
      <point x="383.58490566037733" y="700.0" type="curve" smooth="yes"/>
      <point x="162.64150943396226" y="700.0" type="line" smooth="yes"/>
      <point x="137.0188679245283" y="700.0"/>
      <point x="125.0377358490566" y="689.0188679245283"/>
      <point x="122.37735849056604" y="663.3962264150944" type="curve" smooth="yes"/>
      <point x="57.35849056603774" y="36.54716981132076" type="line" smooth="yes"/>
      <point x="54.698113207547166" y="8.320754716981131"/>
      <point x="65.35849056603773" y="0.0"/>
    </contour>
    <contour>
      <point x="196.58490566037736" y="112.32075471698113" type="line"/>
      <point x="246.9811320754717" y="587.6792452830189" type="line"/>
      <point x="369.9056603773585" y="587.6792452830189" type="line" smooth="yes"/>
      <point x="470.6981132075472" y="587.6792452830189"/>
      <point x="531.622641509434" y="528.6981132075472"/>
      <point x="531.622641509434" y="398.35849056603774" type="curve" smooth="yes"/>
      <point x="531.622641509434" y="203.94339622641508"/>
      <point x="439.60377358490564" y="112.32075471698113"/>
      <point x="319.50943396226415" y="112.32075471698113" type="curve" smooth="yes"/>
    </contour>
  </outline>
</glyph>
<glyph name="E" format="2">
  <advance width="546.0"/>
  <unicode hex="0045"/>
  <anchor x="259.2830188679245" y="0.0" name="bottom"/>
  <anchor x="462.811320754717" y="0.0" name="ogonek"/>
  <anchor x="324.62264150943395" y="700.0" name="top"/>
  <outline>
    <contour>
      <point x="74.64150943396227" y="0.0" type="curve" smooth="yes"/>
      <point x="436.22641509433964" y="0.0" type="line" smooth="yes"/>
      <point x="454.8490566037736" y="0.0"/>
      <point x="467.49056603773585" y="12.962264150943396"/>
      <point x="470.811320754717" y="50.83018867924528" type="curve" smooth="yes"/>
      <point x="471.811320754717" y="63.18867924528302" type="line" smooth="yes"/>
      <point x="474.79245283018867" y="99.35849056603774"/>
      <point x="466.811320754717" y="112.32075471698113"/>
      <point x="448.188679245283" y="112.32075471698113" type="curve" smooth="yes"/>
      <point x="181.58490566037736" y="112.32075471698113" type="line"/>
      <point x="201.96226415094338" y="302.1698113207547" type="line"/>
      <point x="437.54716981132077" y="302.1698113207547" type="line" smooth="yes"/>
      <point x="456.1698113207547" y="302.1698113207547"/>
      <point x="468.811320754717" y="315.1320754716981"/>
      <point x="472.1320754716981" y="353.0" type="curve" smooth="yes"/>
      <point x="473.1320754716981" y="365.35849056603774" type="line" smooth="yes"/>
      <point x="476.1132075471698" y="401.52830188679246"/>
      <point x="468.1320754716981" y="414.49056603773585"/>
      <point x="449.50943396226415" y="414.49056603773585" type="curve" smooth="yes"/>
      <point x="213.26415094339623" y="414.49056603773585" type="line"/>
      <point x="231.9811320754717" y="587.6792452830189" type="line"/>
      <point x="496.2641509433962" y="587.6792452830189" type="line" smooth="yes"/>
      <point x="514.8867924528302" y="587.6792452830189"/>
      <point x="527.5283018867924" y="600.6415094339623"/>
      <point x="530.8490566037735" y="638.5094339622641" type="curve" smooth="yes"/>
      <point x="531.8490566037735" y="650.8679245283018" type="line" smooth="yes"/>
      <point x="534.8301886792453" y="687.0377358490566"/>
      <point x="526.8490566037735" y="700.0"/>
      <point x="508.22641509433964" y="700.0" type="curve" smooth="yes"/>
      <point x="147.64150943396226" y="700.0" type="line" smooth="yes"/>
      <point x="122.01886792452831" y="700.0"/>
      <point x="110.0377358490566" y="689.0188679245283"/>
      <point x="107.37735849056604" y="663.0566037735849" type="curve" smooth="yes"/>
      <point x="42.35849056603774" y="34.283018867924525" type="line" smooth="yes"/>
      <point x="39.698113207547166" y="7.660377358490566"/>
      <point x="50.35849056603774" y="0.0"/>
    </contour>
  </outline>
</glyph>
<glyph name="F" format="2">
  <advance width="503.0"/>
  <unicode hex="0046"/>
  <anchor x="106.84905660377359" y="-0.679245283018868" name="bottom"/>
  <anchor x="298.0" y="700.0" name="top"/>
  <outline>
    <contour>
      <point x="94.9245283018868" y="-2.0" type="curve" smooth="yes"/>
      <point x="120.75471698113208" y="-2.0" type="line" smooth="yes"/>
      <point x="155.0" y="-2.0"/>
      <point x="174.96226415094338" y="7.981132075471698"/>
      <point x="176.62264150943395" y="26.60377358490566" type="curve" smooth="yes"/>
      <point x="203.64150943396226" y="281.50943396226415" type="line"/>
      <point x="428.54716981132077" y="281.50943396226415" type="line" smooth="yes"/>
      <point x="447.1698113207547" y="281.50943396226415"/>
      <point x="459.811320754717" y="294.47169811320754"/>
      <point x="463.1320754716981" y="332.33962264150944" type="curve" smooth="yes"/>
      <point x="464.1320754716981" y="344.6981132075472" type="line" smooth="yes"/>
      <point x="467.1132075471698" y="380.8679245283019"/>
      <point x="459.1320754716981" y="393.8301886792453"/>
      <point x="440.50943396226415" y="393.8301886792453" type="curve" smooth="yes"/>
      <point x="214.94339622641508" y="393.8301886792453" type="line"/>
      <point x="235.66037735849056" y="587.6792452830189" type="line"/>
      <point x="467.5660377358491" y="587.6792452830189" type="line" smooth="yes"/>
      <point x="486.188679245283" y="587.6792452830189"/>
      <point x="498.8301886792453" y="600.6415094339623"/>
      <point x="502.1509433962264" y="638.5094339622641" type="curve" smooth="yes"/>
      <point x="503.1509433962264" y="650.8679245283018" type="line" smooth="yes"/>
      <point x="506.1320754716981" y="687.0377358490566"/>
      <point x="498.1509433962264" y="700.0"/>
      <point x="479.52830188679246" y="700.0" type="curve" smooth="yes"/>
      <point x="151.32075471698113" y="700.0" type="line" smooth="yes"/>
      <point x="125.69811320754717" y="700.0"/>
      <point x="113.71698113207547" y="689.0188679245283"/>
      <point x="111.05660377358491" y="663.3962264150944" type="curve" smooth="yes"/>
      <point x="44.37735849056604" y="27.92452830188679" type="line" smooth="yes"/>
      <point x="42.056603773584904" y="2.037735849056604"/>
      <point x="73.50943396226415" y="-2.0"/>
    </contour>
  </outline>
</glyph>
<glyph name="G" format="2">
  <advance width="672.0"/>
  <unicode hex="0047"/>
  <anchor x="336.0" y="0.0" name="bottom"/>
  <anchor x="396.66037735849056" y="700.0" name="top"/>
  <outline>
    <contour>
      <point x="333.2830188679245" y="-7.320754716981132" type="curve" smooth="yes"/>
      <point x="418.22641509433964" y="-7.320754716981132"/>
      <point x="564.2264150943396" y="4.716981132075472"/>
      <point x="570.8867924528302" y="69.30188679245283" type="curve" smooth="yes"/>
      <point x="600.2075471698113" y="346.54716981132077" type="line" smooth="yes"/>
      <point x="602.8679245283018" y="371.49056603773585"/>
      <point x="591.5471698113207" y="379.49056603773585"/>
      <point x="567.2641509433962" y="379.49056603773585" type="curve" smooth="yes"/>
      <point x="374.4339622641509" y="379.49056603773585" type="line" smooth="yes"/>
      <point x="355.811320754717" y="379.49056603773585"/>
      <point x="343.1698113207547" y="366.52830188679246"/>
      <point x="339.8490566037736" y="328.66037735849056" type="curve" smooth="yes"/>
      <point x="338.8490566037736" y="316.3018867924528" type="line" smooth="yes"/>
      <point x="335.8679245283019" y="280.1320754716981"/>
      <point x="343.8490566037736" y="267.1698113207547"/>
      <point x="362.47169811320754" y="267.1698113207547" type="curve" smooth="yes"/>
      <point x="459.66037735849056" y="267.1698113207547" type="line"/>
      <point x="442.9433962264151" y="114.0377358490566" type="line"/>
      <point x="415.9433962264151" y="108.35849056603774"/>
      <point x="383.4339622641509" y="105.0"/>
      <point x="347.2830188679245" y="105.0" type="curve" smooth="yes"/>
      <point x="228.96226415094338" y="105.0"/>
      <point x="180.9811320754717" y="176.88679245283018"/>
      <point x="180.9811320754717" y="294.60377358490564" type="curve" smooth="yes"/>
      <point x="180.9811320754717" y="489.1132075471698"/>
      <point x="256.39622641509436" y="594.3396226415094"/>
      <point x="400.6981132075472" y="594.3396226415094" type="curve" smooth="yes"/>
      <point x="498.7358490566038" y="594.3396226415094"/>
      <point x="538.4528301886793" y="558.2641509433962"/>
      <point x="550.1132075471698" y="558.2641509433962" type="curve" smooth="yes"/>
      <point x="571.0377358490566" y="558.2641509433962"/>
      <point x="613.2264150943396" y="618.433962264151"/>
      <point x="613.2264150943396" y="641.6981132075472" type="curve" smooth="yes"/>
      <point x="613.2264150943396" y="677.9433962264151"/>
      <point x="506.41509433962267" y="707.3207547169811"/>
      <point x="416.6792452830189" y="707.3207547169811" type="curve" smooth="yes"/>
      <point x="182.1320754716981" y="707.3207547169811"/>
      <point x="44.735849056603776" y="567.377358490566"/>
      <point x="44.735849056603776" y="275.66037735849056" type="curve" smooth="yes"/>
      <point x="44.735849056603776" y="82.67924528301887"/>
      <point x="140.41509433962264" y="-7.320754716981132"/>
    </contour>
  </outline>
</glyph>
<glyph name="H" format="2">
  <advance width="733.0"/>
  <unicode hex="0048"/>
  <anchor x="347.92452830188677" y="0.679245283018868" name="bottom"/>
  <anchor x="393.33962264150944" y="522.6603773584906" name="center"/>
  <anchor x="410.6792452830189" y="700.0" name="top"/>
  <outline>
    <contour>
      <point x="110.33962264150944" y="-2.0" type="curve" smooth="yes"/>
      <point x="136.16981132075472" y="-2.0" type="line" smooth="yes"/>
      <point x="170.75471698113208" y="-2.0"/>
      <point x="190.37735849056602" y="7.981132075471698"/>
      <point x="192.03773584905662" y="26.60377358490566" type="curve" smooth="yes"/>
      <point x="220.39622641509433" y="301.188679245283" type="line"/>
      <point x="521.6415094339623" y="301.188679245283" type="line"/>
      <point x="493.2830188679245" y="29.245283018867923" type="line" smooth="yes"/>
      <point x="490.9622641509434" y="2.037735849056604"/>
      <point x="522.4150943396227" y="-2.0"/>
      <point x="543.8301886792453" y="-2.0" type="curve" smooth="yes"/>
      <point x="569.6603773584906" y="-2.0" type="line" smooth="yes"/>
      <point x="604.2452830188679" y="-2.0"/>
      <point x="623.8679245283018" y="7.981132075471698"/>
      <point x="625.5283018867924" y="26.60377358490566" type="curve" smooth="yes"/>
      <point x="693.2075471698113" y="674.0566037735849" type="line" smooth="yes"/>
      <point x="695.5283018867924" y="697.9622641509434"/>
      <point x="663.7358490566038" y="702.0"/>
      <point x="642.6603773584906" y="702.0" type="curve" smooth="yes"/>
      <point x="616.8301886792453" y="702.0" type="line" smooth="yes"/>
      <point x="581.2264150943396" y="702.0"/>
      <point x="562.622641509434" y="692.0188679245283"/>
      <point x="560.9622641509434" y="673.3962264150944" type="curve" smooth="yes"/>
      <point x="533.6037735849056" y="414.1698113207547" type="line"/>
      <point x="232.35849056603774" y="414.1698113207547" type="line"/>
      <point x="259.7169811320755" y="674.0566037735849" type="line" smooth="yes"/>
      <point x="262.0377358490566" y="697.9622641509434"/>
      <point x="230.24528301886792" y="702.0"/>
      <point x="209.16981132075472" y="702.0" type="curve" smooth="yes"/>
      <point x="183.33962264150944" y="702.0" type="line" smooth="yes"/>
      <point x="148.0754716981132" y="702.0"/>
      <point x="129.1320754716981" y="692.0188679245283"/>
      <point x="127.47169811320755" y="673.3962264150944" type="curve" smooth="yes"/>
      <point x="60.45283018867924" y="29.245283018867923" type="line" smooth="yes"/>
      <point x="57.47169811320755" y="2.037735849056604"/>
      <point x="88.9245283018868" y="-2.0"/>
    </contour>
  </outline>
</glyph>
<glyph name="I" format="2">
  <advance width="283.0"/>
  <unicode hex="0049"/>
  <anchor x="108.9245283018868" y="0.0" name="bottom"/>
  <anchor x="171.8679245283019" y="0.0" name="ogonek"/>
  <anchor x="187.26415094339623" y="700.0" name="top"/>
  <outline>
    <contour>
      <point x="101.75471698113208" y="-2.0" type="curve" smooth="yes"/>
      <point x="127.58490566037736" y="-2.0" type="line" smooth="yes"/>
      <point x="162.16981132075472" y="-2.0"/>
      <point x="181.79245283018867" y="7.981132075471698"/>
      <point x="183.45283018867923" y="26.60377358490566" type="curve" smooth="yes"/>
      <point x="251.1320754716981" y="674.0566037735849" type="line"/>
      <point x="251.1320754716981" y="697.9622641509434"/>
      <point x="221.66037735849056" y="702.0"/>
      <point x="200.58490566037736" y="702.0" type="curve" smooth="yes"/>
      <point x="174.75471698113208" y="702.0" type="line" smooth="yes"/>
      <point x="139.49056603773585" y="702.0"/>
      <point x="120.54716981132076" y="692.0188679245283"/>
      <point x="118.88679245283019" y="673.3962264150944" type="curve" smooth="yes"/>
      <point x="51.54716981132076" y="26.28301886792453" type="line" smooth="yes"/>
      <point x="50.867924528301884" y="2.037735849056604"/>
      <point x="80.33962264150944" y="-2.0"/>
    </contour>
  </outline>
</glyph>
<glyph name="J" format="2">
  <advance width="402.0"/>
  <unicode hex="004A"/>
  <anchor x="296.1132075471698" y="700.6792452830189" name="top"/>
  <outline>
    <contour>
      <point x="78.32075471698113" y="-7.320754716981132" type="curve" smooth="yes"/>
      <point x="226.64150943396226" y="-7.320754716981132"/>
      <point x="296.2830188679245" y="76.35849056603773"/>
      <point x="309.9433962264151" y="203.0188679245283" type="curve" smooth="yes"/>
      <point x="359.9433962264151" y="674.0566037735849" type="line"/>
      <point x="361.92452830188677" y="697.9622641509434"/>
      <point x="330.47169811320754" y="702.0"/>
      <point x="309.39622641509436" y="702.0" type="curve" smooth="yes"/>
      <point x="283.5660377358491" y="702.0" type="line" smooth="yes"/>
      <point x="247.96226415094338" y="702.0"/>
      <point x="229.35849056603774" y="692.0188679245283"/>
      <point x="227.69811320754718" y="673.3962264150944" type="curve" smooth="yes"/>
      <point x="179.33962264150944" y="218.16981132075472" type="line" smooth="yes"/>
      <point x="171.0" y="140.75471698113208"/>
      <point x="138.56603773584905" y="107.0377358490566"/>
      <point x="67.35849056603773" y="107.0377358490566" type="curve" smooth="yes"/>
      <point x="24.71698113207547" y="107.0377358490566"/>
      <point x="15.641509433962264" y="116.0377358490566"/>
      <point x="3.339622641509434" y="116.0377358490566" type="curve" smooth="yes"/>
      <point x="-4.339622641509434" y="116.0377358490566"/>
      <point x="-14.962264150943396" y="103.67924528301887"/>
      <point x="-14.962264150943396" y="31.943396226415093" type="curve" smooth="yes"/>
      <point x="-14.962264150943396" y="-0.9811320754716979"/>
      <point x="37.301886792452834" y="-7.320754716981132"/>
    </contour>
  </outline>
</glyph>
<glyph name="K" format="2">
  <advance width="576.0"/>
  <unicode hex="004B"/>
  <anchor x="266.60377358490564" y="0.0" name="bottom"/>
  <anchor x="331.50943396226415" y="700.0" name="top"/>
  <outline>
    <contour>
      <point x="88.60377358490567" y="-2.0" type="curve" smooth="yes"/>
      <point x="114.43396226415095" y="-2.0" type="line" smooth="yes"/>
      <point x="150.66037735849056" y="-2.0"/>
      <point x="168.30188679245282" y="7.981132075471698"/>
      <point x="170.30188679245282" y="26.60377358490566" type="curve" smooth="yes"/>
      <point x="201.32075471698113" y="324.41509433962267" type="line"/>
      <point x="205.32075471698113" y="325.07547169811323" type="line"/>
      <point x="394.58490566037733" y="14.962264150943396" type="line" smooth="yes"/>
      <point x="402.2641509433962" y="1.320754716981132"/>
      <point x="420.9056603773585" y="-2.0"/>
      <point x="451.8867924528302" y="-2.0" type="curve" smooth="yes"/>
      <point x="492.5660377358491" y="-2.0" type="line" smooth="yes"/>
      <point x="532.1509433962265" y="-2.0"/>
      <point x="545.1509433962265" y="3.641509433962264"/>
      <point x="545.4905660377359" y="14.641509433962264" type="curve" smooth="yes"/>
      <point x="545.4905660377359" y="18.641509433962263"/>
      <point x="543.8301886792453" y="23.962264150943398"/>
      <point x="539.1509433962265" y="31.962264150943398" type="curve" smooth="yes"/>
      <point x="329.66037735849056" y="366.60377358490564" type="line"/>
      <point x="572.0" y="667.0188679245283" type="line" smooth="yes"/>
      <point x="579.3396226415094" y="675.6792452830189"/>
      <point x="582.6792452830189" y="683.3396226415094"/>
      <point x="582.6792452830189" y="688.6792452830189" type="curve" smooth="yes"/>
      <point x="582.6792452830189" y="696.0"/>
      <point x="567.7169811320755" y="702.0"/>
      <point x="534.811320754717" y="702.0" type="curve" smooth="yes"/>
      <point x="500.37735849056605" y="702.0" type="line" smooth="yes"/>
      <point x="473.75471698113205" y="702.0"/>
      <point x="451.41509433962267" y="698.3396226415094"/>
      <point x="440.75471698113205" y="684.6981132075472" type="curve" smooth="yes"/>
      <point x="212.62264150943395" y="391.8301886792453" type="line"/>
      <point x="208.62264150943395" y="392.49056603773585" type="line"/>
      <point x="237.9811320754717" y="673.3962264150944" type="line"/>
      <point x="237.9811320754717" y="692.0188679245283"/>
      <point x="225.67924528301887" y="702.0"/>
      <point x="187.43396226415095" y="702.0" type="curve" smooth="yes"/>
      <point x="161.60377358490567" y="702.0" type="line" smooth="yes"/>
      <point x="124.35849056603773" y="702.0"/>
      <point x="107.39622641509433" y="692.0188679245283"/>
      <point x="105.73584905660377" y="673.3962264150944" type="curve" smooth="yes"/>
      <point x="38.056603773584904" y="26.60377358490566" type="line"/>
      <point x="38.056603773584904" y="7.981132075471698"/>
      <point x="50.0188679245283" y="-2.0"/>
    </contour>
  </outline>
</glyph>
<glyph name="L" format="2">
  <advance width="484.0"/>
  <unicode hex="004C"/>
  <anchor x="226.1509433962264" y="0.0" name="bottom"/>
  <anchor x="374.58490566037733" y="335.0" name="center"/>
  <anchor x="178.56603773584905" y="700.6792452830189" name="top"/>
  <anchor x="362.60377358490564" y="701.3207547169811" name="topright"/>
  <outline>
    <contour>
      <point x="73.69811320754717" y="0.0" type="curve" smooth="yes"/>
      <point x="414.75471698113205" y="0.0" type="line" smooth="yes"/>
      <point x="433.37735849056605" y="0.0"/>
      <point x="446.0188679245283" y="12.962264150943396"/>
      <point x="449.33962264150944" y="50.83018867924528" type="curve" smooth="yes"/>
      <point x="450.33962264150944" y="63.18867924528302" type="line" smooth="yes"/>
      <point x="453.3207547169811" y="99.35849056603774"/>
      <point x="445.33962264150944" y="112.32075471698113"/>
      <point x="426.7169811320755" y="112.32075471698113" type="curve" smooth="yes"/>
      <point x="181.30188679245282" y="112.32075471698113" type="line"/>
      <point x="240.33962264150944" y="674.0566037735849" type="line" smooth="yes"/>
      <point x="242.66037735849056" y="697.9622641509434"/>
      <point x="210.8679245283019" y="702.0"/>
      <point x="189.79245283018867" y="702.0" type="curve" smooth="yes"/>
      <point x="163.96226415094338" y="702.0" type="line" smooth="yes"/>
      <point x="128.69811320754718" y="702.0"/>
      <point x="109.75471698113208" y="692.0188679245283"/>
      <point x="108.09433962264151" y="673.3962264150944" type="curve" smooth="yes"/>
      <point x="40.75471698113208" y="32.64150943396226" type="line" smooth="yes"/>
      <point x="38.09433962264151" y="8.339622641509434"/>
      <point x="48.39622641509434" y="0.0"/>
    </contour>
  </outline>
</glyph>
<glyph name="M" format="2">
  <advance width="843.0"/>
  <unicode hex="004D"/>
  <outline>
    <contour>
      <point x="102.33962264150944" y="-2.0" type="curve" smooth="yes"/>
      <point x="123.86792452830188" y="-2.0" type="line" smooth="yes"/>
      <point x="160.43396226415095" y="-2.0"/>
      <point x="178.0754716981132" y="7.981132075471698"/>
      <point x="179.73584905660377" y="26.60377358490566" type="curve" smooth="yes"/>
      <point x="222.1320754716981" y="433.8867924528302" type="line" smooth="yes"/>
      <point x="224.47169811320754" y="453.64150943396226"/>
      <point x="224.81132075471697" y="475.39622641509436"/>
      <point x="225.1320754716981" y="489.7169811320755" type="curve"/>
      <point x="229.1320754716981" y="491.0566037735849" type="line"/>
      <point x="235.47169811320754" y="476.0377358490566"/>
      <point x="243.16981132075472" y="457.3207547169811"/>
      <point x="249.50943396226415" y="443.66037735849056" type="curve" smooth="yes"/>
      <point x="363.1132075471698" y="196.79245283018867" type="line" smooth="yes"/>
      <point x="370.0943396226415" y="181.83018867924528"/>
      <point x="380.7169811320755" y="176.50943396226415"/>
      <point x="396.66037735849056" y="176.50943396226415" type="curve" smooth="yes"/>
      <point x="429.39622641509436" y="176.50943396226415" type="line" smooth="yes"/>
      <point x="445.6792452830189" y="176.50943396226415"/>
      <point x="457.9622641509434" y="181.83018867924528"/>
      <point x="465.2830188679245" y="193.47169811320754" type="curve" smooth="yes"/>
      <point x="635.0" y="447.33962264150944" type="line" smooth="yes"/>
      <point x="643.3396226415094" y="459.35849056603774"/>
      <point x="651.3584905660377" y="472.37735849056605"/>
      <point x="659.0188679245283" y="484.7358490566038" type="curve"/>
      <point x="662.6792452830189" y="483.7358490566038" type="line"/>
      <point x="660.6792452830189" y="467.7358490566038"/>
      <point x="659.0" y="451.0377358490566"/>
      <point x="657.0" y="435.0377358490566" type="curve" smooth="yes"/>
      <point x="615.2452830188679" y="29.90566037735849" type="line"/>
      <point x="613.2641509433962" y="7.981132075471698"/>
      <point x="626.5471698113207" y="-2.0"/>
      <point x="665.1320754716982" y="-2.0" type="curve" smooth="yes"/>
      <point x="686.6603773584906" y="-2.0" type="line" smooth="yes"/>
      <point x="723.2264150943396" y="-2.0"/>
      <point x="740.8679245283018" y="7.981132075471698"/>
      <point x="742.5283018867924" y="26.60377358490566" type="curve" smooth="yes"/>
      <point x="810.2075471698113" y="673.3962264150944" type="line"/>
      <point x="811.5283018867924" y="692.0188679245283"/>
      <point x="797.9056603773585" y="702.0"/>
      <point x="759.6603773584906" y="702.0" type="curve" smooth="yes"/>
      <point x="712.7735849056604" y="702.0" type="line" smooth="yes"/>
      <point x="685.4716981132076" y="702.0"/>
      <point x="666.2075471698113" y="695.0"/>
      <point x="655.2452830188679" y="678.0566037735849" type="curve" smooth="yes"/>
      <point x="453.6981132075472" y="379.0566037735849" type="line" smooth="yes"/>
      <point x="444.35849056603774" y="365.37735849056605"/>
      <point x="433.66037735849056" y="345.0"/>
      <point x="428.9622641509434" y="331.9622641509434" type="curve"/>
      <point x="426.2830188679245" y="345.6981132075472"/>
      <point x="419.2641509433962" y="367.41509433962267"/>
      <point x="412.2641509433962" y="381.75471698113205" type="curve" smooth="yes"/>
      <point x="275.4339622641509" y="678.0566037735849" type="line" smooth="yes"/>
      <point x="267.79245283018867" y="695.0"/>
      <point x="248.52830188679246" y="702.0"/>
      <point x="221.22641509433961" y="702.0" type="curve" smooth="yes"/>
      <point x="175.33962264150944" y="702.0" type="line" smooth="yes"/>
      <point x="138.0943396226415" y="702.0"/>
      <point x="121.13207547169812" y="692.0188679245283"/>
      <point x="119.47169811320755" y="673.3962264150944" type="curve" smooth="yes"/>
      <point x="52.45283018867924" y="29.90566037735849" type="line"/>
      <point x="50.47169811320755" y="7.981132075471698"/>
      <point x="63.75471698113208" y="-2.0"/>
    </contour>
  </outline>
</glyph>
<glyph name="N" format="2">
  <advance width="719.0"/>
  <unicode hex="004E"/>
  <anchor x="339.3018867924528" y="0.0" name="bottom"/>
  <anchor x="394.3018867924528" y="700.0" name="top"/>
  <outline>
    <contour>
      <point x="101.32075471698113" y="-2.0" type="curve" smooth="yes"/>
      <point x="122.84905660377359" y="-2.0" type="line" smooth="yes"/>
      <point x="159.41509433962264" y="-2.0"/>
      <point x="177.0566037735849" y="7.981132075471698"/>
      <point x="178.71698113207546" y="26.60377358490566" type="curve" smooth="yes"/>
      <point x="217.1509433962264" y="398.811320754717" type="line" smooth="yes"/>
      <point x="220.81132075471697" y="430.41509433962267"/>
      <point x="221.49056603773585" y="459.45283018867923"/>
      <point x="219.83018867924528" y="480.79245283018867" type="curve"/>
      <point x="225.81132075471697" y="483.11320754716985" type="line"/>
      <point x="230.1509433962264" y="469.7169811320755"/>
      <point x="235.8490566037736" y="456.3018867924528"/>
      <point x="257.58490566037733" y="416.52830188679246" type="curve" smooth="yes"/>
      <point x="477.9811320754717" y="20.58490566037736" type="line" smooth="yes"/>
      <point x="488.2641509433962" y="2.339622641509434"/>
      <point x="506.188679245283" y="-2.0"/>
      <point x="531.7924528301887" y="-2.0" type="curve" smooth="yes"/>
      <point x="563.6792452830189" y="-2.0" type="line" smooth="yes"/>
      <point x="600.2452830188679" y="-2.0"/>
      <point x="617.8867924528302" y="7.981132075471698"/>
      <point x="619.5471698113207" y="26.60377358490566" type="curve" smooth="yes"/>
      <point x="687.2264150943396" y="673.3962264150944" type="line"/>
      <point x="687.2264150943396" y="692.0188679245283"/>
      <point x="674.9245283018868" y="702.0"/>
      <point x="636.6792452830189" y="702.0" type="curve" smooth="yes"/>
      <point x="615.1509433962265" y="702.0" type="line" smooth="yes"/>
      <point x="577.9056603773585" y="702.0"/>
      <point x="560.9433962264151" y="692.0188679245283"/>
      <point x="559.2830188679245" y="673.3962264150944" type="curve" smooth="yes"/>
      <point x="522.8490566037735" y="328.41509433962267" type="line" smooth="yes"/>
      <point x="518.188679245283" y="283.77358490566036"/>
      <point x="517.188679245283" y="250.88679245283018"/>
      <point x="517.8490566037735" y="225.9056603773585" type="curve"/>
      <point x="511.8679245283019" y="224.24528301886792" type="line"/>
      <point x="508.49056603773585" y="234.66037735849056"/>
      <point x="501.8301886792453" y="251.0188679245283"/>
      <point x="475.7169811320755" y="298.20754716981133" type="curve" smooth="yes"/>
      <point x="265.6981132075472" y="677.7169811320755" type="line" smooth="yes"/>
      <point x="254.39622641509433" y="697.6603773584906"/>
      <point x="236.47169811320754" y="702.0"/>
      <point x="209.8490566037736" y="702.0" type="curve" smooth="yes"/>
      <point x="174.32075471698113" y="702.0" type="line" smooth="yes"/>
      <point x="137.0754716981132" y="702.0"/>
      <point x="120.11320754716981" y="692.0188679245283"/>
      <point x="118.45283018867924" y="673.3962264150944" type="curve" smooth="yes"/>
      <point x="50.77358490566038" y="26.60377358490566" type="line"/>
      <point x="50.77358490566038" y="7.981132075471698"/>
      <point x="62.735849056603776" y="-2.0"/>
    </contour>
  </outline>
</glyph>
<glyph name="O" format="2">
  <advance width="731.0"/>
  <unicode hex="004F"/>
  <anchor x="350.3018867924528" y="0.0" name="bottom"/>
  <anchor x="512.2452830188679" y="682.0" name="horn"/>
  <anchor x="416.54716981132077" y="0.0" name="ogonek"/>
  <anchor x="402.24528301886795" y="713.2075471698113" name="top"/>
  <outline>
    <contour>
      <point x="349.62264150943395" y="-7.320754716981132" type="curve" smooth="yes"/>
      <point x="573.2075471698113" y="-7.320754716981132"/>
      <point x="694.9245283018868" y="142.66037735849056"/>
      <point x="694.9245283018868" y="380.7169811320755" type="curve" smooth="yes"/>
      <point x="694.9245283018868" y="605.6981132075472"/>
      <point x="577.622641509434" y="707.3207547169811"/>
      <point x="402.66037735849056" y="707.3207547169811" type="curve" smooth="yes"/>
      <point x="129.41509433962264" y="707.3207547169811"/>
      <point x="54.735849056603776" y="508.7358490566038"/>
      <point x="54.735849056603776" y="311.33962264150944" type="curve" smooth="yes"/>
      <point x="54.735849056603776" y="96.32075471698113"/>
      <point x="163.69811320754718" y="-7.320754716981132"/>
    </contour>
    <contour>
      <point x="357.9433962264151" y="105.0" type="curve" smooth="yes"/>
      <point x="254.75471698113208" y="105.0"/>
      <point x="190.64150943396226" y="172.75471698113208"/>
      <point x="190.64150943396226" y="327.3018867924528" type="curve" smooth="yes"/>
      <point x="190.64150943396226" y="491.22641509433964"/>
      <point x="259.41509433962267" y="594.3396226415094"/>
      <point x="390.6981132075472" y="594.3396226415094" type="curve" smooth="yes"/>
      <point x="496.20754716981133" y="594.3396226415094"/>
      <point x="559.3396226415094" y="525.2830188679245"/>
      <point x="559.3396226415094" y="373.0566037735849" type="curve" smooth="yes"/>
      <point x="559.3396226415094" y="208.1320754716981"/>
      <point x="485.50943396226415" y="105.0"/>
    </contour>
  </outline>
</glyph>
<glyph name="P" format="2">
  <advance width="570.0"/>
  <unicode hex="0050"/>
  <anchor x="103.88679245283019" y="-0.679245283018868" name="bottom"/>
  <anchor x="331.0" y="700.0" name="top"/>
  <outline>
    <contour>
      <point x="89.98113207547169" y="-2.0" type="curve" smooth="yes"/>
      <point x="115.15094339622641" y="-2.0" type="line" smooth="yes"/>
      <point x="152.73584905660377" y="-2.0"/>
      <point x="169.35849056603774" y="8.660377358490566"/>
      <point x="171.0188679245283" y="26.60377358490566" type="curve" smooth="yes"/>
      <point x="196.71698113207546" y="274.22641509433964" type="line"/>
      <point x="330.58490566037733" y="274.22641509433964" type="line" smooth="yes"/>
      <point x="486.188679245283" y="274.22641509433964"/>
      <point x="571.5471698113207" y="364.8679245283019"/>
      <point x="571.5471698113207" y="507.1132075471698" type="curve" smooth="yes"/>
      <point x="571.5471698113207" y="634.377358490566"/>
      <point x="488.9811320754717" y="700.0"/>
      <point x="338.62264150943395" y="700.0" type="curve" smooth="yes"/>
      <point x="146.37735849056602" y="700.0" type="line" smooth="yes"/>
      <point x="121.09433962264151" y="700.0"/>
      <point x="108.77358490566039" y="689.3584905660377"/>
      <point x="106.11320754716981" y="663.3962264150944" type="curve" smooth="yes"/>
      <point x="40.43396226415094" y="30.28301886792453" type="line" smooth="yes"/>
      <point x="37.77358490566038" y="7.981132075471698"/>
      <point x="51.39622641509434" y="-2.0"/>
    </contour>
    <contour>
      <point x="208.67924528301887" y="387.20754716981133" type="line"/>
      <point x="230.0566037735849" y="587.6792452830189" type="line"/>
      <point x="321.6792452830189" y="587.6792452830189" type="line" smooth="yes"/>
      <point x="397.5660377358491" y="587.6792452830189"/>
      <point x="435.3018867924528" y="555.2830188679245"/>
      <point x="435.3018867924528" y="493.47169811320754" type="curve" smooth="yes"/>
      <point x="435.3018867924528" y="431.3018867924528"/>
      <point x="398.8490566037736" y="387.20754716981133"/>
      <point x="331.66037735849056" y="387.20754716981133" type="curve" smooth="yes"/>
    </contour>
  </outline>
</glyph>
<glyph name="Q" format="2">
  <advance width="731.0"/>
  <unicode hex="0051"/>
  <outline>
    <contour>
      <point x="633.6415094339623" y="-160.30188679245282" type="curve" smooth="yes"/>
      <point x="644.6415094339623" y="-160.30188679245282"/>
      <point x="659.9245283018868" y="-152.28301886792454"/>
      <point x="659.9245283018868" y="-63.509433962264154" type="curve" smooth="yes"/>
      <point x="659.9245283018868" y="-50.528301886792455"/>
      <point x="656.6037735849056" y="-42.88679245283019"/>
      <point x="644.622641509434" y="-38.88679245283019" type="curve"/>
      <point x="479.0188679245283" y="15.528301886792452" type="line"/>
      <point x="479.6792452830189" y="19.528301886792452" type="line"/>
      <point x="615.1132075471698" y="58.886792452830186"/>
      <point x="694.9245283018868" y="185.8679245283019"/>
      <point x="694.9245283018868" y="380.7169811320755" type="curve" smooth="yes"/>
      <point x="694.9245283018868" y="605.6981132075472"/>
      <point x="586.622641509434" y="707.3207547169811"/>
      <point x="402.66037735849056" y="707.3207547169811" type="curve" smooth="yes"/>
      <point x="141.30188679245282" y="707.3207547169811"/>
      <point x="54.735849056603776" y="501.9433962264151"/>
      <point x="54.735849056603776" y="311.33962264150944" type="curve" smooth="yes"/>
      <point x="54.735849056603776" y="159.9433962264151"/>
      <point x="108.09433962264151" y="65.98113207547169"/>
      <point x="229.56603773584905" y="9.716981132075471" type="curve" smooth="yes"/>
      <point x="377.811320754717" y="-58.11320754716981"/>
      <point x="621.2641509433962" y="-160.30188679245282"/>
    </contour>
    <contour>
      <point x="357.9433962264151" y="105.0" type="curve" smooth="yes"/>
      <point x="254.0943396226415" y="105.0"/>
      <point x="190.64150943396226" y="166.30188679245282"/>
      <point x="190.64150943396226" y="323.9056603773585" type="curve" smooth="yes"/>
      <point x="190.64150943396226" y="491.22641509433964"/>
      <point x="262.1320754716981" y="594.3396226415094"/>
      <point x="390.6981132075472" y="594.3396226415094" type="curve" smooth="yes"/>
      <point x="496.20754716981133" y="594.3396226415094"/>
      <point x="559.3396226415094" y="525.2830188679245"/>
      <point x="559.3396226415094" y="373.0566037735849" type="curve" smooth="yes"/>
      <point x="559.3396226415094" y="208.1320754716981"/>
      <point x="485.50943396226415" y="105.0"/>
    </contour>
  </outline>
</glyph>
<glyph name="R" format="2">
  <advance width="610.0"/>
  <unicode hex="0052"/>
  <anchor x="301.9811320754717" y="0.0" name="bottom"/>
  <anchor x="332.07547169811323" y="700.0" name="top"/>
  <outline>
    <contour>
      <point x="105.66037735849056" y="-2.0" type="curve" smooth="yes"/>
      <point x="130.83018867924528" y="-2.0" type="line" smooth="yes"/>
      <point x="167.0566037735849" y="-2.0"/>
      <point x="185.03773584905662" y="7.981132075471698"/>
      <point x="186.69811320754718" y="26.60377358490566" type="curve" smooth="yes"/>
      <point x="214.0566037735849" y="285.54716981132077" type="line"/>
      <point x="276.9811320754717" y="285.54716981132077" type="line" smooth="yes"/>
      <point x="340.8679245283019" y="285.54716981132077"/>
      <point x="362.9433962264151" y="269.49056603773585"/>
      <point x="379.66037735849056" y="212.64150943396226" type="curve" smooth="yes"/>
      <point x="437.3018867924528" y="17.30188679245283" type="line" smooth="yes"/>
      <point x="441.62264150943395" y="2.660377358490566"/>
      <point x="460.92452830188677" y="-2.0"/>
      <point x="487.52830188679246" y="-2.0" type="curve" smooth="yes"/>
      <point x="518.0" y="-2.0" type="line" smooth="yes"/>
      <point x="556.2830188679245" y="-2.0"/>
      <point x="572.566037735849" y="5.660377358490566"/>
      <point x="573.8867924528302" y="17.660377358490567" type="curve" smooth="yes"/>
      <point x="573.8867924528302" y="21.9811320754717"/>
      <point x="572.8867924528302" y="27.30188679245283"/>
      <point x="571.2264150943396" y="33.943396226415096" type="curve" smooth="yes"/>
      <point x="508.811320754717" y="240.18867924528303" type="line" smooth="yes"/>
      <point x="494.1698113207547" y="289.75471698113205"/>
      <point x="469.49056603773585" y="322.39622641509436"/>
      <point x="440.8301886792453" y="332.39622641509436" type="curve"/>
      <point x="440.8301886792453" y="336.39622641509436" type="line"/>
      <point x="518.5283018867924" y="351.45283018867923"/>
      <point x="573.8301886792453" y="422.37735849056605"/>
      <point x="573.8301886792453" y="513.7169811320755" type="curve" smooth="yes"/>
      <point x="573.8301886792453" y="634.377358490566"/>
      <point x="493.24528301886795" y="700.0"/>
      <point x="346.8490566037736" y="700.0" type="curve" smooth="yes"/>
      <point x="162.0566037735849" y="700.0" type="line" smooth="yes"/>
      <point x="136.43396226415095" y="700.0"/>
      <point x="124.45283018867924" y="689.0188679245283"/>
      <point x="121.79245283018868" y="663.3962264150944" type="curve" smooth="yes"/>
      <point x="56.113207547169814" y="29.943396226415093" type="line" smooth="yes"/>
      <point x="53.45283018867924" y="7.981132075471698"/>
      <point x="67.0754716981132" y="-2.0"/>
    </contour>
    <contour>
      <point x="226.0188679245283" y="399.188679245283" type="line"/>
      <point x="245.73584905660377" y="587.6792452830189" type="line"/>
      <point x="338.49056603773585" y="587.6792452830189" type="line" smooth="yes"/>
      <point x="404.811320754717" y="587.6792452830189"/>
      <point x="441.54716981132077" y="556.6415094339623"/>
      <point x="441.54716981132077" y="493.47169811320754" type="curve" smooth="yes"/>
      <point x="441.54716981132077" y="437.9622641509434"/>
      <point x="405.75471698113205" y="397.8679245283019"/>
      <point x="338.20754716981133" y="398.52830188679246" type="curve" smooth="yes"/>
    </contour>
  </outline>
</glyph>
<glyph name="S" format="2">
  <advance width="500.0"/>
  <unicode hex="0053"/>
  <anchor x="233.0" y="0.0" name="bottom"/>
  <anchor x="291.37735849056605" y="700.0" name="top"/>
  <outline>
    <contour>
      <point x="213.9245283018868" y="-7.320754716981132" type="curve" smooth="yes"/>
      <point x="335.79245283018867" y="-7.320754716981132"/>
      <point x="461.8867924528302" y="53.90566037735849"/>
      <point x="461.8867924528302" y="223.58490566037736" type="curve" smooth="yes"/>
      <point x="461.8867924528302" y="322.39622641509436"/>
      <point x="388.41509433962267" y="374.58490566037733"/>
      <point x="302.811320754717" y="412.52830188679246" type="curve" smooth="yes"/>
      <point x="242.75471698113208" y="438.188679245283"/>
      <point x="192.0" y="457.54716981132077"/>
      <point x="192.0" y="512.3207547169811" type="curve" smooth="yes"/>
      <point x="192.0" y="554.0188679245283"/>
      <point x="222.67924528301887" y="594.3396226415094"/>
      <point x="305.60377358490564" y="594.3396226415094" type="curve" smooth="yes"/>
      <point x="346.64150943396226" y="594.3396226415094"/>
      <point x="373.33962264150944" y="584.9811320754717"/>
      <point x="392.0188679245283" y="576.622641509434" type="curve" smooth="yes"/>
      <point x="406.0377358490566" y="570.6037735849056"/>
      <point x="414.37735849056605" y="564.9245283018868"/>
      <point x="420.7169811320755" y="564.9245283018868" type="curve" smooth="yes"/>
      <point x="442.0" y="564.9245283018868"/>
      <point x="475.8867924528302" y="620.4528301886793"/>
      <point x="475.8867924528302" y="642.0377358490566" type="curve" smooth="yes"/>
      <point x="475.8867924528302" y="651.377358490566"/>
      <point x="469.20754716981133" y="661.377358490566"/>
      <point x="457.52830188679246" y="670.0377358490566" type="curve" smooth="yes"/>
      <point x="429.49056603773585" y="691.3584905660377"/>
      <point x="371.45283018867923" y="707.3207547169811"/>
      <point x="309.0" y="707.3207547169811" type="curve" smooth="yes"/>
      <point x="178.8679245283019" y="707.3207547169811"/>
      <point x="55.113207547169814" y="643.1320754716982"/>
      <point x="55.113207547169814" y="485.811320754717" type="curve" smooth="yes"/>
      <point x="55.113207547169814" y="377.0943396226415"/>
      <point x="138.11320754716982" y="338.47169811320754"/>
      <point x="211.81132075471697" y="304.8301886792453" type="curve" smooth="yes"/>
      <point x="271.22641509433964" y="278.1509433962264"/>
      <point x="324.66037735849056" y="253.81132075471697"/>
      <point x="324.66037735849056" y="200.33962264150944" type="curve" smooth="yes"/>
      <point x="324.66037735849056" y="132.24528301886792"/>
      <point x="263.9433962264151" y="105.0"/>
      <point x="208.71698113207546" y="105.0" type="curve" smooth="yes"/>
      <point x="159.96226415094338" y="105.0"/>
      <point x="122.24528301886792" y="119.01886792452831"/>
      <point x="95.56603773584905" y="131.33962264150944" type="curve" smooth="yes"/>
      <point x="74.28301886792453" y="141.64150943396226"/>
      <point x="59.320754716981135" y="151.26415094339623"/>
      <point x="52.0" y="151.26415094339623" type="curve" smooth="yes"/>
      <point x="41.339622641509436" y="151.26415094339623"/>
      <point x="29.39622641509434" y="144.30188679245282"/>
      <point x="29.39622641509434" y="85.24528301886792" type="curve" smooth="yes"/>
      <point x="29.39622641509434" y="50.58490566037736"/>
      <point x="38.075471698113205" y="38.924528301886795"/>
      <point x="52.43396226415094" y="29.264150943396224" type="curve" smooth="yes"/>
      <point x="92.09433962264151" y="2.3207547169811322"/>
      <point x="171.0188679245283" y="-7.320754716981132"/>
    </contour>
  </outline>
</glyph>
<glyph name="T" format="2">
  <advance width="549.0"/>
  <unicode hex="0054"/>
  <anchor x="247.0" y="0.0" name="bottom"/>
  <anchor x="286.33962264150944" y="350.0" name="center"/>
  <anchor x="320.33962264150944" y="700.0" name="top"/>
  <outline>
    <contour>
      <point x="235.43396226415095" y="-2.0" type="curve" smooth="yes"/>
      <point x="261.2641509433962" y="-2.0" type="line" smooth="yes"/>
      <point x="295.50943396226415" y="-2.0"/>
      <point x="315.47169811320754" y="7.981132075471698"/>
      <point x="317.1320754716981" y="26.60377358490566" type="curve" smooth="yes"/>
      <point x="376.1698113207547" y="587.6792452830189" type="line"/>
      <point x="543.6981132075472" y="587.6792452830189" type="line" smooth="yes"/>
      <point x="562.3207547169811" y="587.6792452830189"/>
      <point x="574.9622641509434" y="600.6415094339623"/>
      <point x="578.2830188679245" y="638.5094339622641" type="curve" smooth="yes"/>
      <point x="579.2830188679245" y="650.8679245283018" type="line" smooth="yes"/>
      <point x="582.2641509433962" y="687.0377358490566"/>
      <point x="574.2830188679245" y="700.0"/>
      <point x="555.6603773584906" y="700.0" type="curve" smooth="yes"/>
      <point x="86.33962264150944" y="700.0" type="line" smooth="yes"/>
      <point x="67.71698113207547" y="700.0"/>
      <point x="55.075471698113205" y="687.0377358490566"/>
      <point x="51.75471698113208" y="649.1698113207547" type="curve" smooth="yes"/>
      <point x="50.75471698113208" y="636.811320754717" type="line" smooth="yes"/>
      <point x="47.77358490566038" y="600.6415094339623"/>
      <point x="55.75471698113208" y="587.6792452830189"/>
      <point x="74.37735849056604" y="587.6792452830189" type="curve" smooth="yes"/>
      <point x="243.9245283018868" y="587.6792452830189" type="line"/>
      <point x="185.88679245283018" y="30.58490566037736" type="line" smooth="yes"/>
      <point x="182.56603773584905" y="2.037735849056604"/>
      <point x="214.0188679245283" y="-2.0"/>
    </contour>
  </outline>
</glyph>
<glyph name="U" format="2">
  <advance width="712.0"/>
  <unicode hex="0055"/>
  <anchor x="329.33962264150944" y="0.0" name="bottom"/>
  <anchor x="384.3018867924528" y="0.0" name="ogonek"/>
  <anchor x="402.0188679245283" y="700.0" name="top"/>
  <anchor x="609.8490566037735" y="702.0" name="topright"/>
  <outline>
    <contour>
      <point x="328.33962264150944" y="-7.320754716981132" type="curve" smooth="yes"/>
      <point x="508.3018867924528" y="-7.320754716981132"/>
      <point x="622.2264150943396" y="80.0"/>
      <point x="637.8867924528302" y="230.60377358490567" type="curve" smooth="yes"/>
      <point x="683.9056603773585" y="673.3962264150944" type="line" smooth="yes"/>
      <point x="685.566037735849" y="691.3584905660377"/>
      <point x="672.6037735849056" y="702.0"/>
      <point x="634.3584905660377" y="702.0" type="curve" smooth="yes"/>
      <point x="609.8490566037735" y="702.0" type="line" smooth="yes"/>
      <point x="573.2641509433962" y="702.0"/>
      <point x="554.6415094339623" y="692.0188679245283"/>
      <point x="552.9811320754717" y="673.3962264150944" type="curve" smooth="yes"/>
      <point x="507.62264150943395" y="236.18867924528303" type="line" smooth="yes"/>
      <point x="498.9433962264151" y="151.0943396226415"/>
      <point x="440.1320754716981" y="105.0"/>
      <point x="340.3018867924528" y="105.0" type="curve" smooth="yes"/>
      <point x="237.73584905660377" y="105.0"/>
      <point x="194.0" y="152.73584905660377"/>
      <point x="201.33962264150944" y="227.79245283018867" type="curve" smooth="yes"/>
      <point x="247.03773584905662" y="673.3962264150944" type="line" smooth="yes"/>
      <point x="248.69811320754718" y="691.3584905660377"/>
      <point x="235.73584905660377" y="702.0"/>
      <point x="197.49056603773585" y="702.0" type="curve" smooth="yes"/>
      <point x="172.32075471698113" y="702.0" type="line" smooth="yes"/>
      <point x="135.73584905660377" y="702.0"/>
      <point x="117.11320754716981" y="692.0188679245283"/>
      <point x="115.45283018867924" y="673.3962264150944" type="curve" smooth="yes"/>
      <point x="69.43396226415095" y="218.28301886792454" type="line" smooth="yes"/>
      <point x="54.43396226415094" y="71.64150943396227"/>
      <point x="151.03773584905662" y="-7.320754716981132"/>
    </contour>
  </outline>
</glyph>
<glyph name="V" format="2">
  <advance width="617.0"/>
  <unicode hex="0056"/>
  <outline>
    <contour>
      <point x="259.39622641509436" y="-2.0" type="curve" smooth="yes"/>
      <point x="304.2641509433962" y="-2.0" type="line" smooth="yes"/>
      <point x="330.20754716981133" y="-2.0"/>
      <point x="350.1698113207547" y="2.660377358490566"/>
      <point x="356.49056603773585" y="17.30188679245283" type="curve" smooth="yes"/>
      <point x="644.5849056603773" y="665.0566037735849" type="line" smooth="yes"/>
      <point x="647.5849056603773" y="671.0566037735849"/>
      <point x="648.9245283018868" y="676.0566037735849"/>
      <point x="648.9245283018868" y="680.7169811320755" type="curve" smooth="yes"/>
      <point x="648.9245283018868" y="699.3018867924528"/>
      <point x="622.0566037735849" y="702.0"/>
      <point x="597.0188679245283" y="702.0" type="curve" smooth="yes"/>
      <point x="575.1698113207547" y="702.0" type="line" smooth="yes"/>
      <point x="549.8867924528302" y="702.0"/>
      <point x="527.9433962264151" y="695.3584905660377"/>
      <point x="520.3018867924528" y="677.4150943396227" type="curve" smooth="yes"/>
      <point x="332.2641509433962" y="244.41509433962264" type="line" smooth="yes"/>
      <point x="322.60377358490564" y="221.1132075471698"/>
      <point x="308.9433962264151" y="181.81132075471697"/>
      <point x="300.9433962264151" y="153.49056603773585" type="curve"/>
      <point x="297.2830188679245" y="153.49056603773585" type="line"/>
      <point x="295.2641509433962" y="177.24528301886792"/>
      <point x="289.2641509433962" y="218.54716981132074"/>
      <point x="282.62264150943395" y="249.0943396226415" type="curve" smooth="yes"/>
      <point x="188.37735849056602" y="677.4150943396227" type="line" smooth="yes"/>
      <point x="184.0566037735849" y="696.0188679245283"/>
      <point x="164.0943396226415" y="702.0"/>
      <point x="138.1509433962264" y="702.0" type="curve" smooth="yes"/>
      <point x="111.9622641509434" y="702.0" type="line" smooth="yes"/>
      <point x="70.0377358490566" y="702.0"/>
      <point x="51.41509433962264" y="691.0188679245283"/>
      <point x="55.735849056603776" y="671.7358490566038" type="curve" smooth="yes"/>
      <point x="210.49056603773585" y="17.9811320754717" type="line" smooth="yes"/>
      <point x="214.1509433962264" y="2.660377358490566"/>
      <point x="232.79245283018867" y="-2.0"/>
    </contour>
  </outline>
</glyph>
<glyph name="W" format="2">
  <advance width="882.0"/>
  <unicode hex="0057"/>
  <anchor x="488.92452830188677" y="700.0" name="top"/>
  <outline>
    <contour>
      <point x="190.45283018867926" y="-2.0" type="curve" smooth="yes"/>
      <point x="251.9245283018868" y="-2.0" type="line" smooth="yes"/>
      <point x="276.52830188679246" y="-2.0"/>
      <point x="297.8301886792453" y="3.981132075471698"/>
      <point x="303.49056603773585" y="17.30188679245283" type="curve" smooth="yes"/>
      <point x="423.9622641509434" y="354.20754716981133" type="line" smooth="yes"/>
      <point x="439.39622641509436" y="398.79245283018867"/>
      <point x="453.7358490566038" y="449.50943396226415"/>
      <point x="462.41509433962267" y="486.2830188679245" type="curve"/>
      <point x="466.41509433962267" y="486.2830188679245" type="line"/>
      <point x="466.0566037735849" y="457.45283018867923"/>
      <point x="470.41509433962267" y="395.1509433962264"/>
      <point x="477.47169811320754" y="340.9056603773585" type="curve" smooth="yes"/>
      <point x="523.5283018867924" y="17.30188679245283" type="line" smooth="yes"/>
      <point x="525.5283018867924" y="3.981132075471698"/>
      <point x="545.8301886792453" y="-2.0"/>
      <point x="571.7735849056604" y="-2.0" type="curve" smooth="yes"/>
      <point x="633.9056603773585" y="-2.0" type="line" smooth="yes"/>
      <point x="658.5283018867924" y="-2.0"/>
      <point x="680.811320754717" y="3.981132075471698"/>
      <point x="685.4716981132076" y="17.30188679245283" type="curve" smooth="yes"/>
      <point x="921.5471698113207" y="673.0566037735849" type="line" smooth="yes"/>
      <point x="928.2075471698113" y="692.3584905660377"/>
      <point x="907.5849056603773" y="702.0"/>
      <point x="870.0" y="702.0" type="curve" smooth="yes"/>
      <point x="860.6981132075472" y="702.0" type="line" smooth="yes"/>
      <point x="828.1509433962265" y="702.0"/>
      <point x="806.5283018867924" y="694.0377358490566"/>
      <point x="800.5471698113207" y="676.0943396226415" type="curve" smooth="yes"/>
      <point x="668.1698113207547" y="298.7358490566038" type="line" smooth="yes"/>
      <point x="654.8867924528302" y="257.2452830188679"/>
      <point x="636.9245283018868" y="194.43396226415095"/>
      <point x="625.9433962264151" y="151.8490566037736" type="curve"/>
      <point x="621.9433962264151" y="151.8490566037736" type="line"/>
      <point x="619.9622641509434" y="191.0754716981132"/>
      <point x="614.3207547169811" y="252.52830188679246"/>
      <point x="606.622641509434" y="313.0" type="curve" smooth="yes"/>
      <point x="555.4905660377359" y="682.3584905660377" type="line" smooth="yes"/>
      <point x="553.4905660377359" y="697.3396226415094"/>
      <point x="535.5094339622641" y="702.0"/>
      <point x="507.58490566037733" y="702.0" type="curve" smooth="yes"/>
      <point x="477.0566037735849" y="702.0" type="line" smooth="yes"/>
      <point x="447.4339622641509" y="702.0"/>
      <point x="431.49056603773585" y="697.3396226415094"/>
      <point x="425.8301886792453" y="682.3584905660377" type="curve" smooth="yes"/>
      <point x="290.1509433962264" y="298.0566037735849" type="line" smooth="yes"/>
      <point x="275.52830188679246" y="251.24528301886792"/>
      <point x="257.24528301886795" y="188.77358490566036"/>
      <point x="248.58490566037736" y="151.8490566037736" type="curve"/>
      <point x="244.58490566037736" y="151.8490566037736" type="line"/>
      <point x="242.9245283018868" y="183.50943396226415"/>
      <point x="237.9433962264151" y="245.96226415094338"/>
      <point x="230.24528301886792" y="313.33962264150944" type="curve" smooth="yes"/>
      <point x="179.73584905660377" y="676.0943396226415" type="line" smooth="yes"/>
      <point x="177.0754716981132" y="694.0377358490566"/>
      <point x="156.77358490566039" y="702.0"/>
      <point x="124.22641509433961" y="702.0" type="curve" smooth="yes"/>
      <point x="104.0" y="702.0" type="line" smooth="yes"/>
      <point x="65.81132075471699" y="702.0"/>
      <point x="42.79245283018868" y="693.3962264150944"/>
      <point x="45.79245283018868" y="672.0943396226415" type="curve" smooth="yes"/>
      <point x="142.20754716981133" y="18.62264150943396" type="line" smooth="yes"/>
      <point x="144.20754716981133" y="3.981132075471698"/>
      <point x="162.52830188679246" y="-2.0"/>
    </contour>
  </outline>
</glyph>
<glyph name="X" format="2">
  <advance width="611.0"/>
  <unicode hex="0058"/>
  <outline>
    <contour>
      <point x="40.264150943396224" y="-2.0" type="curve" smooth="yes"/>
      <point x="72.41509433962264" y="-2.0" type="line" smooth="yes"/>
      <point x="97.67924528301887" y="-2.0"/>
      <point x="117.66037735849056" y="-0.320754716981132"/>
      <point x="132.35849056603774" y="19.37735849056604" type="curve" smooth="yes"/>
      <point x="306.6981132075472" y="258.6792452830189" type="line"/>
      <point x="437.54716981132077" y="15.641509433962264" type="line" smooth="yes"/>
      <point x="445.20754716981133" y="1.6603773584905661"/>
      <point x="459.8679245283019" y="-2.0"/>
      <point x="490.1132075471698" y="-2.0" type="curve" smooth="yes"/>
      <point x="513.0" y="-2.0" type="line" smooth="yes"/>
      <point x="544.377358490566" y="-2.0"/>
      <point x="568.8679245283018" y="1.6981132075471699"/>
      <point x="568.8679245283018" y="20.962264150943398" type="curve" smooth="yes"/>
      <point x="568.8679245283018" y="25.62264150943396"/>
      <point x="567.188679245283" y="32.283018867924525"/>
      <point x="563.5283018867924" y="38.943396226415096" type="curve"/>
      <point x="389.77358490566036" y="362.7169811320755" type="line"/>
      <point x="616.8490566037735" y="661.0566037735849" type="line"/>
      <point x="623.1698113207547" y="670.0377358490566"/>
      <point x="626.8490566037735" y="677.6981132075472"/>
      <point x="626.8490566037735" y="683.3584905660377" type="curve" smooth="yes"/>
      <point x="626.8490566037735" y="700.3018867924528"/>
      <point x="599.3207547169811" y="702.0"/>
      <point x="572.6037735849056" y="702.0" type="curve" smooth="yes"/>
      <point x="541.5094339622641" y="702.0" type="line" smooth="yes"/>
      <point x="516.2452830188679" y="702.0"/>
      <point x="495.60377358490564" y="699.6603773584906"/>
      <point x="484.9622641509434" y="684.6981132075472" type="curve" smooth="yes"/>
      <point x="327.9622641509434" y="471.35849056603774" type="line"/>
      <point x="216.75471698113208" y="684.3584905660377" type="line" smooth="yes"/>
      <point x="209.0943396226415" y="698.3396226415094"/>
      <point x="190.47169811320754" y="702.0"/>
      <point x="164.18867924528303" y="702.0" type="curve" smooth="yes"/>
      <point x="140.66037735849056" y="702.0" type="line" smooth="yes"/>
      <point x="107.30188679245283" y="702.0"/>
      <point x="84.13207547169812" y="698.9622641509434"/>
      <point x="84.13207547169812" y="679.6981132075472" type="curve" smooth="yes"/>
      <point x="84.13207547169812" y="674.6981132075472"/>
      <point x="86.47169811320755" y="668.377358490566"/>
      <point x="90.13207547169812" y="661.0566037735849" type="curve" smooth="yes"/>
      <point x="247.8490566037736" y="368.0" type="line"/>
      <point x="-1.283018867924528" y="38.943396226415096" type="line"/>
      <point x="-8.60377358490566" y="29.962264150943398"/>
      <point x="-11.943396226415093" y="22.30188679245283"/>
      <point x="-11.943396226415093" y="16.641509433962263" type="curve" smooth="yes"/>
      <point x="-11.943396226415093" y="-0.3018867924528301"/>
      <point x="13.226415094339622" y="-2.0"/>
    </contour>
  </outline>
</glyph>
<glyph name="Y" format="2">
  <advance width="559.0"/>
  <unicode hex="0059"/>
  <anchor x="253.0" y="0.0" name="bottom"/>
  <anchor x="327.0" y="700.0" name="top"/>
  <outline>
    <contour>
      <point x="239.41509433962264" y="-2.0" type="curve" smooth="yes"/>
      <point x="264.58490566037733" y="-2.0" type="line" smooth="yes"/>
      <point x="301.1509433962264" y="-2.0"/>
      <point x="318.79245283018867" y="7.981132075471698"/>
      <point x="320.45283018867923" y="26.60377358490566" type="curve" smooth="yes"/>
      <point x="353.47169811320754" y="340.811320754717" type="line"/>
      <point x="589.8679245283018" y="660.3962264150944" type="line" smooth="yes"/>
      <point x="596.188679245283" y="669.377358490566"/>
      <point x="600.5283018867924" y="677.6981132075472"/>
      <point x="600.5283018867924" y="683.3584905660377" type="curve" smooth="yes"/>
      <point x="600.5283018867924" y="698.6415094339623"/>
      <point x="571.6981132075472" y="701.6603773584906"/>
      <point x="548.0188679245283" y="702.0" type="curve"/>
      <point x="520.5094339622641" y="702.0" type="line"/>
      <point x="494.5660377358491" y="702.0"/>
      <point x="473.2641509433962" y="698.3396226415094"/>
      <point x="463.9433962264151" y="684.6981132075472" type="curve" smooth="yes"/>
      <point x="302.3018867924528" y="459.49056603773585" type="line"/>
      <point x="189.39622641509433" y="684.3584905660377" type="line" smooth="yes"/>
      <point x="182.39622641509433" y="698.3396226415094"/>
      <point x="163.11320754716982" y="702.0"/>
      <point x="136.83018867924528" y="702.0" type="curve" smooth="yes"/>
      <point x="105.37735849056604" y="702.0" type="line" smooth="yes"/>
      <point x="72.01886792452831" y="702.0"/>
      <point x="47.15094339622642" y="698.9622641509434"/>
      <point x="47.15094339622642" y="679.6981132075472" type="curve" smooth="yes"/>
      <point x="47.15094339622642" y="674.0377358490566"/>
      <point x="49.15094339622642" y="667.7169811320755"/>
      <point x="53.15094339622642" y="660.3962264150944" type="curve" smooth="yes"/>
      <point x="221.88679245283018" y="343.811320754717" type="line"/>
      <point x="188.8679245283019" y="26.60377358490566" type="line"/>
      <point x="188.8679245283019" y="7.981132075471698"/>
      <point x="200.83018867924528" y="-2.0"/>
    </contour>
  </outline>
</glyph>
<glyph name="Z" format="2">
  <advance width="616.0"/>
  <unicode hex="005A"/>
  <anchor x="297.0" y="0.0" name="bottom"/>
  <anchor x="357.9811320754717" y="700.0" name="top"/>
  <outline>
    <contour>
      <point x="48.924528301886795" y="0.0" type="curve" smooth="yes"/>
      <point x="524.3207547169811" y="0.0" type="line" smooth="yes"/>
      <point x="542.9433962264151" y="0.0"/>
      <point x="555.2452830188679" y="12.962264150943396"/>
      <point x="558.9056603773585" y="50.83018867924528" type="curve" smooth="yes"/>
      <point x="560.2452830188679" y="63.18867924528302" type="line" smooth="yes"/>
      <point x="563.9056603773585" y="99.35849056603774"/>
      <point x="554.9056603773585" y="112.32075471698113"/>
      <point x="536.2830188679245" y="112.32075471698113" type="curve" smooth="yes"/>
      <point x="202.41509433962264" y="112.32075471698113" type="line"/>
      <point x="610.9811320754717" y="607.2641509433962" type="line" smooth="yes"/>
      <point x="615.6415094339623" y="612.9245283018868"/>
      <point x="617.3018867924528" y="618.5849056603773"/>
      <point x="617.3018867924528" y="626.2452830188679" type="curve" smooth="yes"/>
      <point x="617.3018867924528" y="651.8679245283018"/>
      <point x="606.6792452830189" y="700.0"/>
      <point x="588.3584905660377" y="700.0" type="curve" smooth="yes"/>
      <point x="137.35849056603774" y="700.0" type="line" smooth="yes"/>
      <point x="118.73584905660377" y="700.0"/>
      <point x="106.43396226415095" y="688.3962264150944"/>
      <point x="102.77358490566039" y="650.5283018867924" type="curve" smooth="yes"/>
      <point x="101.43396226415095" y="637.4905660377359" type="line" smooth="yes"/>
      <point x="98.11320754716981" y="601.3207547169811"/>
      <point x="106.77358490566039" y="587.6792452830189"/>
      <point x="125.39622641509433" y="587.6792452830189" type="curve" smooth="yes"/>
      <point x="430.9056603773585" y="587.6792452830189" type="line"/>
      <point x="24.0188679245283" y="94.09433962264151" type="line" smooth="yes"/>
      <point x="19.339622641509433" y="89.0754716981132"/>
      <point x="16.67924528301887" y="80.73584905660377"/>
      <point x="16.67924528301887" y="73.41509433962264" type="curve" smooth="yes"/>
      <point x="16.67924528301887" y="48.132075471698116"/>
      <point x="27.641509433962263" y="0.0"/>
    </contour>
  </outline>
</glyph>
<glyph name="bracketleft" format="2">
  <advance width="291.0"/>
  <unicode hex="005B"/>
  <outline>
    <contour>
      <point x="62.75471698113208" y="-138.0" type="curve" smooth="yes"/>
      <point x="191.33962264150944" y="-138.0" type="line" smooth="yes"/>
      <point x="206.64150943396226" y="-138.0"/>
      <point x="216.9811320754717" y="-129.03773584905662"/>
      <point x="218.9811320754717" y="-102.75471698113208" type="curve" smooth="yes"/>
      <point x="219.9811320754717" y="-88.75471698113208" type="line" smooth="yes"/>
      <point x="221.64150943396226" y="-63.15094339622642"/>
      <point x="213.58490566037736" y="-54.20754716981132"/>
      <point x="198.28301886792454" y="-54.20754716981132" type="curve" smooth="yes"/>
      <point x="135.8679245283019" y="-54.20754716981132" type="line"/>
      <point x="213.24528301886792" y="684.2075471698113" type="line"/>
      <point x="274.33962264150944" y="684.2075471698113" type="line" smooth="yes"/>
      <point x="293.6792452830189" y="684.2075471698113"/>
      <point x="303.0" y="692.5094339622641"/>
      <point x="305.0" y="718.7924528301887" type="curve" smooth="yes"/>
      <point x="306.0" y="732.433962264151" type="line" smooth="yes"/>
      <point x="308.0" y="759.0566037735849"/>
      <point x="301.64150943396226" y="768.0"/>
      <point x="283.9811320754717" y="768.0" type="curve" smooth="yes"/>
      <point x="157.75471698113208" y="768.0" type="line" smooth="yes"/>
      <point x="132.1320754716981" y="768.0"/>
      <point x="120.15094339622641" y="757.0188679245283"/>
      <point x="117.49056603773585" y="731.3962264150944" type="curve" smooth="yes"/>
      <point x="29.81132075471698" y="-106.0" type="line" smooth="yes"/>
      <point x="27.81132075471698" y="-129.66037735849056"/>
      <point x="37.45283018867924" y="-138.0"/>
    </contour>
  </outline>
</glyph>
<glyph name="backslash" format="2">
  <advance width="422.0"/>
  <unicode hex="005C"/>
  <outline>
    <contour>
      <point x="323.07547169811323" y="-79.0" type="curve" smooth="yes"/>
      <point x="336.66037735849056" y="-79.0" type="line" smooth="yes"/>
      <point x="366.5660377358491" y="-79.0"/>
      <point x="378.8301886792453" y="-73.67924528301887"/>
      <point x="378.8301886792453" y="-65.0377358490566" type="curve" smooth="yes"/>
      <point x="378.8301886792453" y="-62.37735849056604"/>
      <point x="376.50943396226415" y="-55.075471698113205"/>
      <point x="374.188679245283" y="-47.113207547169814" type="curve" smooth="yes"/>
      <point x="157.11320754716982" y="680.3962264150944" type="line" smooth="yes"/>
      <point x="152.1320754716981" y="696.6792452830189"/>
      <point x="137.54716981132074" y="702.0"/>
      <point x="109.94339622641509" y="702.0" type="curve" smooth="yes"/>
      <point x="99.32075471698113" y="702.0" type="line" smooth="yes"/>
      <point x="67.75471698113208" y="702.0"/>
      <point x="53.83018867924528" y="696.6792452830189"/>
      <point x="53.83018867924528" y="688.0377358490566" type="curve" smooth="yes"/>
      <point x="53.83018867924528" y="684.377358490566"/>
      <point x="55.509433962264154" y="679.3584905660377"/>
      <point x="58.83018867924528" y="667.3962264150944" type="curve" smooth="yes"/>
      <point x="274.8679245283019" y="-55.698113207547166" type="line" smooth="yes"/>
      <point x="280.188679245283" y="-73.98113207547169"/>
      <point x="295.1320754716981" y="-79.0"/>
    </contour>
  </outline>
</glyph>
<glyph name="bracketright" format="2">
  <advance width="291.0"/>
  <unicode hex="005D"/>
  <outline>
    <contour>
      <point x="23.18867924528302" y="-138.0" type="curve" smooth="yes"/>
      <point x="149.41509433962264" y="-138.0" type="line" smooth="yes"/>
      <point x="175.03773584905662" y="-138.0"/>
      <point x="187.0188679245283" y="-127.01886792452831"/>
      <point x="189.67924528301887" y="-101.39622641509433" type="curve" smooth="yes"/>
      <point x="277.35849056603774" y="736.0" type="line" smooth="yes"/>
      <point x="279.35849056603774" y="759.6603773584906"/>
      <point x="269.7169811320755" y="768.0"/>
      <point x="244.41509433962264" y="768.0" type="curve" smooth="yes"/>
      <point x="115.83018867924528" y="768.0" type="line" smooth="yes"/>
      <point x="100.52830188679245" y="768.0"/>
      <point x="90.18867924528301" y="759.0377358490566"/>
      <point x="88.18867924528301" y="732.7547169811321" type="curve" smooth="yes"/>
      <point x="87.18867924528301" y="718.7547169811321" type="line" smooth="yes"/>
      <point x="85.52830188679245" y="693.1509433962265"/>
      <point x="93.58490566037736" y="684.2075471698113"/>
      <point x="108.88679245283019" y="684.2075471698113" type="curve" smooth="yes"/>
      <point x="171.30188679245282" y="684.2075471698113" type="line"/>
      <point x="93.9245283018868" y="-54.20754716981132" type="line"/>
      <point x="32.83018867924528" y="-54.20754716981132" type="line" smooth="yes"/>
      <point x="13.49056603773585" y="-54.20754716981132"/>
      <point x="4.1698113207547145" y="-62.509433962264154"/>
      <point x="2.1698113207547145" y="-88.79245283018868" type="curve" smooth="yes"/>
      <point x="1.1698113207547145" y="-102.43396226415095" type="line" smooth="yes"/>
      <point x="-0.8301886792452855" y="-129.0566037735849"/>
      <point x="5.528301886792452" y="-138.0"/>
    </contour>
  </outline>
</glyph>
<glyph name="asciicircum" format="2">
  <advance width="450.0"/>
  <unicode hex="005E"/>
  <outline>
    <contour>
      <point x="82.67924528301887" y="318.6792452830189" type="curve" smooth="yes"/>
      <point x="92.32075471698113" y="318.6792452830189" type="line" smooth="yes"/>
      <point x="116.28301886792453" y="318.6792452830189"/>
      <point x="126.9245283018868" y="325.64150943396226"/>
      <point x="136.22641509433961" y="343.58490566037733" type="curve" smooth="yes"/>
      <point x="280.66037735849056" y="622.811320754717" type="line"/>
      <point x="241.1509433962264" y="623.4716981132076" type="line"/>
      <point x="324.188679245283" y="343.2830188679245" type="line" smooth="yes"/>
      <point x="329.50943396226415" y="324.3207547169811"/>
      <point x="341.45283018867923" y="318.6792452830189"/>
      <point x="367.75471698113205" y="318.6792452830189" type="curve" smooth="yes"/>
      <point x="373.7358490566038" y="318.6792452830189" type="line" smooth="yes"/>
      <point x="403.0188679245283" y="318.6792452830189"/>
      <point x="415.2830188679245" y="323.6792452830189"/>
      <point x="415.2830188679245" y="332.66037735849056" type="curve" smooth="yes"/>
      <point x="415.2830188679245" y="337.0"/>
      <point x="414.60377358490564" y="342.6792452830189"/>
      <point x="410.2830188679245" y="355.9811320754717" type="curve" smooth="yes"/>
      <point x="317.64150943396226" y="658.7169811320755" type="line"/>
      <point x="311.64150943396226" y="677.3584905660377"/>
      <point x="299.33962264150944" y="685.3207547169811"/>
      <point x="281.0188679245283" y="685.3207547169811" type="curve" smooth="yes"/>
      <point x="253.75471698113208" y="685.3207547169811" type="line" smooth="yes"/>
      <point x="233.77358490566039" y="685.3207547169811"/>
      <point x="221.1320754716981" y="677.0188679245283"/>
      <point x="211.81132075471697" y="658.7169811320755" type="curve" smooth="yes"/>
      <point x="53.81132075471698" y="355.66037735849056" type="line" smooth="yes"/>
      <point x="46.83018867924528" y="342.35849056603774"/>
      <point x="45.15094339622642" y="336.33962264150944"/>
      <point x="45.15094339622642" y="332.0" type="curve" smooth="yes"/>
      <point x="45.15094339622642" y="323.33962264150944"/>
      <point x="53.45283018867924" y="318.6792452830189"/>
    </contour>
  </outline>
</glyph>
<glyph name="underscore" format="2">
  <advance width="534.0"/>
  <unicode hex="005F"/>
  <outline>
    <contour>
      <point x="-37.37735849056604" y="-141.30188679245282" type="curve" smooth="yes"/>
      <point x="487.37735849056605" y="-141.30188679245282" type="line" smooth="yes"/>
      <point x="502.6792452830189" y="-141.30188679245282"/>
      <point x="513.0" y="-132.0188679245283"/>
      <point x="515.9811320754717" y="-102.83018867924528" type="curve" smooth="yes"/>
      <point x="516.9811320754717" y="-92.47169811320755" type="line" smooth="yes"/>
      <point x="519.9622641509434" y="-63.283018867924525"/>
      <point x="512.3207547169811" y="-54.339622641509436"/>
      <point x="496.33962264150944" y="-54.339622641509436" type="curve" smooth="yes"/>
      <point x="-29.09433962264151" y="-54.339622641509436" type="line" smooth="yes"/>
      <point x="-44.056603773584904" y="-54.339622641509436"/>
      <point x="-54.698113207547166" y="-63.62264150943396"/>
      <point x="-57.0188679245283" y="-90.15094339622641" type="curve" smooth="yes"/>
      <point x="-58.0188679245283" y="-102.15094339622641" type="line" smooth="yes"/>
      <point x="-60.339622641509436" y="-131.33962264150944"/>
      <point x="-53.35849056603774" y="-141.30188679245282"/>
    </contour>
  </outline>
</glyph>
<glyph name="grave" format="2">
  <advance width="180.81132075471697"/>
  <unicode hex="0060"/>
  <outline>
    <contour>
      <point x="179.26415094339623" y="573.3584905660377" type="curve" smooth="yes"/>
      <point x="205.81132075471697" y="573.3584905660377"/>
      <point x="214.81132075471697" y="577.6981132075472"/>
      <point x="214.81132075471697" y="588.0188679245283" type="curve" smooth="yes"/>
      <point x="214.81132075471697" y="594.6792452830189"/>
      <point x="211.1509433962264" y="602.0188679245283"/>
      <point x="205.49056603773585" y="615.3396226415094" type="curve" smooth="yes"/>
      <point x="176.1320754716981" y="683.4150943396227" type="line" smooth="yes"/>
      <point x="163.8490566037736" y="710.3207547169811"/>
      <point x="154.16981132075472" y="718.0"/>
      <point x="99.30188679245283" y="718.0" type="curve" smooth="yes"/>
      <point x="59.35849056603774" y="718.0"/>
      <point x="46.0" y="713.0"/>
      <point x="46.0" y="698.6792452830189" type="curve" smooth="yes"/>
      <point x="46.0" y="689.6792452830189"/>
      <point x="51.679245283018865" y="678.3584905660377"/>
      <point x="76.9245283018868" y="647.4528301886793" type="curve" smooth="yes"/>
      <point x="113.35849056603773" y="601.3207547169811" type="line" smooth="yes"/>
      <point x="131.0188679245283" y="579.6603773584906"/>
      <point x="149.28301886792454" y="573.3584905660377"/>
    </contour>
  </outline>
</glyph>
<glyph name="a" format="2">
  <advance width="545.0"/>
  <unicode hex="0061"/>
  <anchor x="231.0" y="0.0" name="bottom"/>
  <anchor x="498.35849056603774" y="0.0" name="ogonek"/>
  <anchor x="299.3207547169811" y="523.0" name="top"/>
  <outline>
    <contour>
      <point x="193.1320754716981" y="-7.981132075471698" type="curve" smooth="yes"/>
      <point x="251.1320754716981" y="-7.981132075471698"/>
      <point x="303.50943396226415" y="24.0"/>
      <point x="335.92452830188677" y="79.54716981132076" type="curve"/>
      <point x="344.49056603773585" y="20.113207547169814"/>
      <point x="379.7358490566038" y="-7.320754716981132"/>
      <point x="442.4339622641509" y="-7.320754716981132" type="curve" smooth="yes"/>
      <point x="471.66037735849056" y="-7.320754716981132"/>
      <point x="514.6037735849056" y="5.30188679245283"/>
      <point x="520.9245283018868" y="38.22641509433962" type="curve" smooth="yes"/>
      <point x="526.9056603773585" y="68.81132075471697"/>
      <point x="526.9056603773585" y="85.11320754716981"/>
      <point x="526.9056603773585" y="89.41509433962264" type="curve" smooth="yes"/>
      <point x="526.9056603773585" y="97.39622641509433"/>
      <point x="524.566037735849" y="100.0566037735849"/>
      <point x="519.5849056603773" y="100.0566037735849" type="curve" smooth="yes"/>
      <point x="514.9056603773585" y="100.0566037735849"/>
      <point x="503.5660377358491" y="93.71698113207547"/>
      <point x="487.8679245283019" y="93.71698113207547" type="curve" smooth="yes"/>
      <point x="467.20754716981133" y="93.71698113207547"/>
      <point x="456.8867924528302" y="105.41509433962264"/>
      <point x="459.8867924528302" y="133.41509433962264" type="curve" smooth="yes"/>
      <point x="496.24528301886795" y="494.0" type="line" smooth="yes"/>
      <point x="498.24528301886795" y="515.6792452830189"/>
      <point x="483.66037735849056" y="524.3396226415094"/>
      <point x="450.45283018867923" y="524.3396226415094" type="curve" smooth="yes"/>
      <point x="440.49056603773585" y="524.3396226415094" type="line" smooth="yes"/>
      <point x="397.3018867924528" y="523.6792452830189"/>
      <point x="392.9433962264151" y="509.9433962264151"/>
      <point x="382.2830188679245" y="476.3207547169811" type="curve"/>
      <point x="360.9433962264151" y="496.66037735849056"/>
      <point x="317.9433962264151" y="529.6603773584906"/>
      <point x="259.24528301886795" y="529.6603773584906" type="curve" smooth="yes"/>
      <point x="122.13207547169812" y="529.6603773584906"/>
      <point x="29.433962264150942" y="398.64150943396226"/>
      <point x="29.433962264150942" y="208.67924528301887" type="curve" smooth="yes"/>
      <point x="29.433962264150942" y="56.471698113207545"/>
      <point x="107.0" y="-7.981132075471698"/>
    </contour>
    <contour>
      <point x="236.56603773584905" y="96.71698113207547" type="curve" smooth="yes"/>
      <point x="187.8490566037736" y="96.71698113207547"/>
      <point x="158.03773584905662" y="132.37735849056602"/>
      <point x="158.03773584905662" y="216.66037735849056" type="curve" smooth="yes"/>
      <point x="158.03773584905662" y="341.9433962264151"/>
      <point x="200.77358490566039" y="427.60377358490564"/>
      <point x="280.33962264150944" y="427.60377358490564" type="curve" smooth="yes"/>
      <point x="319.20754716981133" y="427.60377358490564"/>
      <point x="345.64150943396226" y="411.52830188679246"/>
      <point x="363.3207547169811" y="396.52830188679246" type="curve"/>
      <point x="358.33962264150944" y="376.5660377358491"/>
      <point x="356.33962264150944" y="359.24528301886795"/>
      <point x="353.0188679245283" y="326.0566037735849" type="curve" smooth="yes"/>
      <point x="338.6792452830189" y="192.41509433962264" type="line"/>
      <point x="311.54716981132077" y="127.11320754716981"/>
      <point x="272.64150943396226" y="96.71698113207547"/>
    </contour>
  </outline>
</glyph>
<glyph name="b" format="2">
  <advance width="569.0"/>
  <unicode hex="0062"/>
  <outline>
    <contour>
      <point x="269.77358490566036" y="-7.320754716981132" type="curve" smooth="yes"/>
      <point x="418.8867924528302" y="-7.320754716981132"/>
      <point x="519.5849056603773" y="124.71698113207547"/>
      <point x="519.5849056603773" y="314.6792452830189" type="curve" smooth="yes"/>
      <point x="519.5849056603773" y="466.8867924528302"/>
      <point x="432.66037735849056" y="530.3207547169811"/>
      <point x="335.8867924528302" y="530.3207547169811" type="curve" smooth="yes"/>
      <point x="282.8301886792453" y="530.3207547169811"/>
      <point x="235.39622641509433" y="504.9433962264151"/>
      <point x="201.9811320754717" y="457.35849056603774" type="curve"/>
      <point x="230.67924528301887" y="725.377358490566" type="line"/>
      <point x="230.67924528301887" y="741.0377358490566"/>
      <point x="216.0566037735849" y="753.3207547169811"/>
      <point x="180.1320754716981" y="753.3207547169811" type="curve" smooth="yes"/>
      <point x="160.28301886792454" y="753.3207547169811" type="line" smooth="yes"/>
      <point x="125.69811320754717" y="753.3207547169811"/>
      <point x="106.41509433962264" y="744.0188679245283"/>
      <point x="104.41509433962264" y="724.7169811320755" type="curve" smooth="yes"/>
      <point x="30.07547169811321" y="23.962264150943398" type="line" smooth="yes"/>
      <point x="28.41509433962264" y="6.660377358490566"/>
      <point x="43.660377358490564" y="-2.0"/>
      <point x="76.86792452830188" y="-2.0" type="curve" smooth="yes"/>
      <point x="87.50943396226415" y="-2.0" type="line" smooth="yes"/>
      <point x="128.0" y="-1.3396226415094339"/>
      <point x="135.0566037735849" y="13.754716981132075"/>
      <point x="144.69811320754718" y="45.35849056603774" type="curve"/>
      <point x="167.03773584905662" y="24.0188679245283"/>
      <point x="210.39622641509433" y="-7.320754716981132"/>
    </contour>
    <contour>
      <point x="244.60377358490567" y="94.73584905660377" type="curve" smooth="yes"/>
      <point x="208.11320754716982" y="94.73584905660377"/>
      <point x="181.67924528301887" y="110.47169811320754"/>
      <point x="164.66037735849056" y="125.15094339622641" type="curve"/>
      <point x="168.32075471698113" y="149.39622641509433"/>
      <point x="172.64150943396226" y="174.9811320754717"/>
      <point x="175.30188679245282" y="200.24528301886792" type="curve" smooth="yes"/>
      <point x="189.30188679245282" y="332.2641509433962" type="line"/>
      <point x="216.77358490566039" y="396.22641509433964"/>
      <point x="256.0377358490566" y="425.62264150943395"/>
      <point x="292.45283018867923" y="425.62264150943395" type="curve" smooth="yes"/>
      <point x="355.1509433962264" y="425.62264150943395"/>
      <point x="390.9811320754717" y="392.9622641509434"/>
      <point x="390.9811320754717" y="306.6981132075472" type="curve" smooth="yes"/>
      <point x="390.9811320754717" y="181.41509433962264"/>
      <point x="347.37735849056605" y="94.73584905660377"/>
    </contour>
  </outline>
</glyph>
<glyph name="c" format="2">
  <advance width="485.0"/>
  <unicode hex="0063"/>
  <anchor x="266.0" y="0.0" name="bottom"/>
  <anchor x="304.0566037735849" y="523.0" name="top"/>
  <outline>
    <contour>
      <point x="262.7169811320755" y="-7.320754716981132" type="curve" smooth="yes"/>
      <point x="309.0" y="-7.320754716981132"/>
      <point x="427.92452830188677" y="12.09433962264151"/>
      <point x="427.92452830188677" y="58.886792452830186" type="curve" smooth="yes"/>
      <point x="427.92452830188677" y="78.50943396226415"/>
      <point x="407.64150943396226" y="123.73584905660377"/>
      <point x="389.35849056603774" y="123.73584905660377" type="curve" smooth="yes"/>
      <point x="386.37735849056605" y="123.73584905660377"/>
      <point x="380.7169811320755" y="121.0754716981132"/>
      <point x="373.39622641509436" y="118.41509433962264" type="curve"/>
      <point x="351.0943396226415" y="109.41509433962264"/>
      <point x="320.0" y="94.39622641509433"/>
      <point x="277.3018867924528" y="94.39622641509433" type="curve" smooth="yes"/>
      <point x="201.43396226415095" y="94.39622641509433"/>
      <point x="169.35849056603774" y="134.11320754716982"/>
      <point x="169.35849056603774" y="217.9433962264151" type="curve" smooth="yes"/>
      <point x="169.35849056603774" y="355.1509433962264"/>
      <point x="219.45283018867923" y="428.60377358490564"/>
      <point x="313.2641509433962" y="428.60377358490564" type="curve" smooth="yes"/>
      <point x="355.0188679245283" y="428.60377358490564"/>
      <point x="380.4339622641509" y="414.58490566037733"/>
      <point x="395.77358490566036" y="406.58490566037733" type="curve" smooth="yes"/>
      <point x="407.0377358490566" y="400.62264150943395"/>
      <point x="410.0566037735849" y="399.9433962264151"/>
      <point x="412.0566037735849" y="399.9433962264151" type="curve" smooth="yes"/>
      <point x="427.0188679245283" y="399.9433962264151"/>
      <point x="465.5660377358491" y="452.1509433962264"/>
      <point x="465.5660377358491" y="471.45283018867923" type="curve" smooth="yes"/>
      <point x="465.5660377358491" y="508.66037735849056"/>
      <point x="382.6981132075472" y="530.3207547169811"/>
      <point x="319.62264150943395" y="530.3207547169811" type="curve" smooth="yes"/>
      <point x="138.0754716981132" y="530.3207547169811"/>
      <point x="37.75471698113208" y="414.62264150943395"/>
      <point x="37.75471698113208" y="205.33962264150944" type="curve" smooth="yes"/>
      <point x="37.75471698113208" y="59.9622641509434"/>
      <point x="112.43396226415095" y="-7.320754716981132"/>
    </contour>
  </outline>
</glyph>
<glyph name="d" format="2">
  <advance width="565.0"/>
  <unicode hex="0064"/>
  <anchor x="254.39622641509433" y="0.0" name="bottom"/>
  <anchor x="452.77358490566036" y="630.0" name="center"/>
  <anchor x="571.8490566037735" y="752.0" name="topright"/>
  <outline>
    <contour>
      <point x="208.52830188679246" y="-7.320754716981132" type="curve" smooth="yes"/>
      <point x="267.8679245283019" y="-7.320754716981132"/>
      <point x="320.2641509433962" y="24.0"/>
      <point x="353.0188679245283" y="80.20754716981132" type="curve"/>
      <point x="362.2641509433962" y="20.09433962264151"/>
      <point x="396.1698113207547" y="-7.320754716981132"/>
      <point x="459.52830188679246" y="-7.320754716981132" type="curve" smooth="yes"/>
      <point x="488.75471698113205" y="-7.320754716981132"/>
      <point x="531.6981132075472" y="5.30188679245283"/>
      <point x="538.0188679245283" y="38.22641509433962" type="curve" smooth="yes"/>
      <point x="544.0" y="68.81132075471697"/>
      <point x="544.0" y="85.11320754716981"/>
      <point x="544.0" y="89.41509433962264" type="curve" smooth="yes"/>
      <point x="544.0" y="97.39622641509433"/>
      <point x="541.6603773584906" y="100.0566037735849"/>
      <point x="536.6792452830189" y="100.0566037735849" type="curve" smooth="yes"/>
      <point x="532.0" y="100.0566037735849"/>
      <point x="520.6603773584906" y="93.71698113207547"/>
      <point x="504.9622641509434" y="93.71698113207547" type="curve" smooth="yes"/>
      <point x="484.3018867924528" y="93.71698113207547"/>
      <point x="473.9811320754717" y="105.41509433962264"/>
      <point x="476.9811320754717" y="133.41509433962264" type="curve" smooth="yes"/>
      <point x="538.3396226415094" y="722.0377358490566" type="line" smooth="yes"/>
      <point x="540.3396226415094" y="741.0377358490566"/>
      <point x="524.3962264150944" y="753.3207547169811"/>
      <point x="487.79245283018867" y="753.3207547169811" type="curve" smooth="yes"/>
      <point x="467.9433962264151" y="753.3207547169811" type="line" smooth="yes"/>
      <point x="433.35849056603774" y="753.3207547169811"/>
      <point x="414.07547169811323" y="744.0188679245283"/>
      <point x="412.07547169811323" y="724.7169811320755" type="curve" smooth="yes"/>
      <point x="386.39622641509436" y="487.9622641509434" type="line"/>
      <point x="362.7169811320755" y="507.64150943396226"/>
      <point x="324.35849056603774" y="530.3207547169811"/>
      <point x="269.54716981132077" y="530.3207547169811" type="curve" smooth="yes"/>
      <point x="127.45283018867924" y="530.3207547169811"/>
      <point x="31.09433962264151" y="399.3018867924528"/>
      <point x="31.09433962264151" y="209.33962264150944" type="curve" smooth="yes"/>
      <point x="31.09433962264151" y="57.132075471698116"/>
      <point x="115.71698113207547" y="-7.320754716981132"/>
    </contour>
    <contour>
      <point x="251.96226415094338" y="97.37735849056604" type="curve" smooth="yes"/>
      <point x="192.1509433962264" y="97.37735849056604"/>
      <point x="160.03773584905662" y="133.03773584905662"/>
      <point x="160.03773584905662" y="217.32075471698113" type="curve" smooth="yes"/>
      <point x="160.03773584905662" y="342.60377358490564"/>
      <point x="201.0" y="428.2641509433962"/>
      <point x="296.07547169811323" y="428.2641509433962" type="curve" smooth="yes"/>
      <point x="333.9622641509434" y="428.2641509433962"/>
      <point x="360.0566037735849" y="413.52830188679246"/>
      <point x="377.41509433962267" y="399.50943396226415" type="curve"/>
      <point x="356.433962264151" y="193.05660377358492" type="line"/>
      <point x="328.9622641509434" y="127.43396226415095"/>
      <point x="289.0377358490566" y="97.37735849056604"/>
    </contour>
  </outline>
</glyph>
<glyph name="e" format="2">
  <advance width="539.0"/>
  <unicode hex="0065"/>
  <anchor x="270.0" y="0.0" name="bottom"/>
  <anchor x="374.9433962264151" y="0.0" name="ogonek"/>
  <anchor x="306.0377358490566" y="523.0" name="top"/>
  <outline>
    <contour>
      <point x="310.37735849056605" y="530.3207547169811" type="curve" smooth="yes"/>
      <point x="148.11320754716982" y="530.3207547169811"/>
      <point x="37.41509433962264" y="421.60377358490564"/>
      <point x="37.41509433962264" y="208.26415094339623" type="curve" smooth="yes"/>
      <point x="37.41509433962264" y="58.32075471698113"/>
      <point x="128.75471698113208" y="-7.320754716981132"/>
      <point x="270.0188679245283" y="-7.320754716981132" type="curve" smooth="yes"/>
      <point x="320.9433962264151" y="-7.320754716981132"/>
      <point x="427.0" y="8.358490566037736"/>
      <point x="440.62264150943395" y="60.64150943396226" type="curve" smooth="yes"/>
      <point x="445.2830188679245" y="78.33962264150944"/>
      <point x="447.60377358490564" y="109.90566037735849"/>
      <point x="447.60377358490564" y="126.77358490566037" type="curve" smooth="yes"/>
      <point x="447.60377358490564" y="139.43396226415095"/>
      <point x="443.9433962264151" y="140.0943396226415"/>
      <point x="439.9433962264151" y="140.0943396226415" type="curve" smooth="yes"/>
      <point x="427.92452830188677" y="140.0943396226415"/>
      <point x="368.33962264150944" y="94.39622641509433"/>
      <point x="284.9433962264151" y="94.39622641509433" type="curve" smooth="yes"/>
      <point x="214.11320754716982" y="94.39622641509433"/>
      <point x="166.0188679245283" y="119.47169811320754"/>
      <point x="166.0188679245283" y="219.9056603773585" type="curve" smooth="yes"/>
      <point x="166.0188679245283" y="263.62264150943395" type="line"/>
      <point x="137.1320754716981" y="218.71698113207546" type="line"/>
      <point x="169.69811320754718" y="212.0566037735849"/>
      <point x="206.0" y="206.39622641509433"/>
      <point x="263.90566037735846" y="206.39622641509433" type="curve" smooth="yes"/>
      <point x="375.47169811320754" y="206.39622641509433"/>
      <point x="497.58490566037733" y="254.35849056603774"/>
      <point x="497.58490566037733" y="389.39622641509436" type="curve" smooth="yes"/>
      <point x="497.58490566037733" y="441.0566037735849"/>
      <point x="462.8490566037736" y="530.3207547169811"/>
    </contour>
    <contour>
      <point x="302.75471698113205" y="428.60377358490564" type="curve" smooth="yes"/>
      <point x="344.20754716981133" y="428.60377358490564"/>
      <point x="372.9433962264151" y="409.8490566037736"/>
      <point x="372.9433962264151" y="374.1320754716981" type="curve" smooth="yes"/>
      <point x="372.9433962264151" y="320.0"/>
      <point x="300.07547169811323" y="296.22641509433964"/>
      <point x="228.1509433962264" y="296.22641509433964" type="curve" smooth="yes"/>
      <point x="172.33962264150944" y="296.22641509433964" type="line"/>
      <point x="186.67924528301887" y="373.8490566037736"/>
      <point x="229.54716981132074" y="428.60377358490564"/>
    </contour>
  </outline>
</glyph>
<glyph name="f" format="2">
  <advance width="325.0"/>
  <unicode hex="0066"/>
  <outline>
    <contour>
      <point x="102.0754716981132" y="-2.0" type="curve" smooth="yes"/>
      <point x="121.9245283018868" y="-2.0" type="line" smooth="yes"/>
      <point x="156.50943396226415" y="-2.0"/>
      <point x="175.79245283018867" y="7.6415094339622645"/>
      <point x="177.79245283018867" y="26.60377358490566" type="curve" smooth="yes"/>
      <point x="218.83018867924528" y="421.2830188679245" type="line"/>
      <point x="278.75471698113205" y="421.2830188679245" type="line" smooth="yes"/>
      <point x="297.37735849056605" y="421.2830188679245"/>
      <point x="306.35849056603774" y="434.24528301886795"/>
      <point x="309.6792452830189" y="464.49056603773585" type="curve" smooth="yes"/>
      <point x="311.33962264150944" y="479.79245283018867" type="line" smooth="yes"/>
      <point x="314.66037735849056" y="510.0377358490566"/>
      <point x="307.33962264150944" y="523.0"/>
      <point x="288.0377358490566" y="523.0" type="curve" smooth="yes"/>
      <point x="229.47169811320754" y="523.0" type="line"/>
      <point x="238.47169811320754" y="604.7547169811321" type="line" smooth="yes"/>
      <point x="242.49056603773585" y="644.2830188679245"/>
      <point x="257.5660377358491" y="656.9245283018868"/>
      <point x="285.2641509433962" y="656.9245283018868" type="curve" smooth="yes"/>
      <point x="308.66037735849056" y="656.9245283018868"/>
      <point x="315.6981132075472" y="651.2452830188679"/>
      <point x="322.33962264150944" y="651.2452830188679" type="curve" smooth="yes"/>
      <point x="337.64150943396226" y="651.2452830188679"/>
      <point x="355.60377358490564" y="702.7735849056604"/>
      <point x="355.60377358490564" y="717.7358490566038" type="curve" smooth="yes"/>
      <point x="355.60377358490564" y="753.0188679245283"/>
      <point x="305.5660377358491" y="758.6415094339623"/>
      <point x="268.0943396226415" y="758.6415094339623" type="curve" smooth="yes"/>
      <point x="187.35849056603774" y="758.6415094339623"/>
      <point x="121.56603773584905" y="713.5849056603773"/>
      <point x="111.88679245283019" y="606.8301886792453" type="curve" smooth="yes"/>
      <point x="103.86792452830188" y="523.0" type="line"/>
      <point x="76.41509433962264" y="523.0" type="line" smooth="yes"/>
      <point x="56.79245283018868" y="523.0"/>
      <point x="47.81132075471698" y="510.0377358490566"/>
      <point x="44.490566037735846" y="479.79245283018867" type="curve" smooth="yes"/>
      <point x="42.83018867924528" y="463.47169811320754" type="line" smooth="yes"/>
      <point x="39.509433962264154" y="434.24528301886795"/>
      <point x="46.490566037735846" y="421.2830188679245"/>
      <point x="65.77358490566039" y="421.2830188679245" type="curve" smooth="yes"/>
      <point x="92.56603773584905" y="421.2830188679245" type="line"/>
      <point x="51.528301886792455" y="25.943396226415093" type="line"/>
      <point x="51.528301886792455" y="10.283018867924529"/>
      <point x="66.15094339622641" y="-2.0"/>
    </contour>
  </outline>
</glyph>
<glyph name="g" format="2">
  <advance width="546.0"/>
  <unicode hex="0067"/>
  <anchor x="315.188679245283" y="523.0" name="top"/>
  <outline>
    <contour>
      <point x="219.60377358490567" y="-212.0" type="curve" smooth="yes"/>
      <point x="371.188679245283" y="-212.0"/>
      <point x="448.50943396226415" y="-120.18867924528303"/>
      <point x="470.8679245283019" y="95.0377358490566" type="curve" smooth="yes"/>
      <point x="512.5471698113207" y="501.35849056603774" type="line"/>
      <point x="512.5471698113207" y="516.3396226415094"/>
      <point x="498.9622641509434" y="525.0"/>
      <point x="465.75471698113205" y="525.0" type="curve" smooth="yes"/>
      <point x="455.79245283018867" y="525.0" type="line" smooth="yes"/>
      <point x="413.2641509433962" y="524.3396226415094"/>
      <point x="408.24528301886795" y="510.60377358490564"/>
      <point x="397.58490566037733" y="477.64150943396226" type="curve"/>
      <point x="375.9056603773585" y="497.9811320754717"/>
      <point x="332.22641509433964" y="530.3207547169811"/>
      <point x="273.50943396226415" y="530.3207547169811" type="curve" smooth="yes"/>
      <point x="131.41509433962264" y="530.3207547169811"/>
      <point x="35.39622641509434" y="400.62264150943395"/>
      <point x="35.39622641509434" y="211.9811320754717" type="curve" smooth="yes"/>
      <point x="35.39622641509434" y="64.77358490566037"/>
      <point x="116.62264150943396" y="2.641509433962264"/>
      <point x="207.39622641509433" y="2.641509433962264" type="curve" smooth="yes"/>
      <point x="274.07547169811323" y="2.641509433962264"/>
      <point x="332.1509433962264" y="44.60377358490566"/>
      <point x="362.92452830188677" y="112.26415094339623" type="curve"/>
      <point x="348.2830188679245" y="137.47169811320754" type="line"/>
      <point x="341.0" y="62.54716981132076" type="line"/>
      <point x="331.3018867924528" y="-55.45283018867924"/>
      <point x="284.2641509433962" y="-110.28301886792453"/>
      <point x="199.79245283018867" y="-110.28301886792453" type="curve" smooth="yes"/>
      <point x="112.9622641509434" y="-110.28301886792453"/>
      <point x="68.98113207547169" y="-64.86792452830188"/>
      <point x="56.9811320754717" y="-64.86792452830188" type="curve" smooth="yes"/>
      <point x="48.679245283018865" y="-64.86792452830188"/>
      <point x="39.0188679245283" y="-79.45283018867924"/>
      <point x="39.0188679245283" y="-141.0" type="curve" smooth="yes"/>
      <point x="39.0188679245283" y="-178.9245283018868"/>
      <point x="116.94339622641509" y="-212.0"/>
    </contour>
    <contour>
      <point x="250.83018867924528" y="107.33962264150944" type="curve" smooth="yes"/>
      <point x="197.1320754716981" y="107.33962264150944"/>
      <point x="164.0" y="140.67924528301887"/>
      <point x="164.0" y="219.96226415094338" type="curve" smooth="yes"/>
      <point x="164.0" y="343.2641509433962"/>
      <point x="203.94339622641508" y="428.2641509433962"/>
      <point x="298.6792452830189" y="428.2641509433962" type="curve" smooth="yes"/>
      <point x="334.1698113207547" y="428.2641509433962"/>
      <point x="360.60377358490564" y="412.188679245283"/>
      <point x="378.62264150943395" y="397.8490566037736" type="curve"/>
      <point x="373.64150943396226" y="375.24528301886795"/>
      <point x="371.3018867924528" y="350.66037735849056"/>
      <point x="367.9811320754717" y="322.7547169811321" type="curve"/>
      <point x="354.9811320754717" y="203.7169811320755" type="line"/>
      <point x="327.50943396226415" y="137.73584905660377"/>
      <point x="287.24528301886795" y="107.33962264150944"/>
    </contour>
  </outline>
</glyph>
<glyph name="h" format="2">
  <advance width="565.0"/>
  <unicode hex="0068"/>
  <anchor x="264.39622641509436" y="0.0" name="bottom"/>
  <anchor x="177.54716981132074" y="630.0" name="center"/>
  <anchor x="171.0188679245283" y="731.6037735849056" name="top"/>
  <outline>
    <contour>
      <point x="449.47169811320754" y="-7.320754716981132" type="curve" smooth="yes"/>
      <point x="478.6981132075472" y="-7.320754716981132"/>
      <point x="521.6415094339623" y="5.30188679245283"/>
      <point x="527.9622641509434" y="38.22641509433962" type="curve" smooth="yes"/>
      <point x="533.9433962264151" y="68.81132075471697"/>
      <point x="533.9433962264151" y="85.11320754716981"/>
      <point x="533.9433962264151" y="89.41509433962264" type="curve" smooth="yes"/>
      <point x="533.9433962264151" y="97.39622641509433"/>
      <point x="531.6037735849056" y="100.0566037735849"/>
      <point x="526.622641509434" y="100.0566037735849" type="curve" smooth="yes"/>
      <point x="521.9433962264151" y="100.0566037735849"/>
      <point x="510.60377358490564" y="93.71698113207547"/>
      <point x="494.9056603773585" y="93.71698113207547" type="curve" smooth="yes"/>
      <point x="474.24528301886795" y="93.71698113207547"/>
      <point x="463.92452830188677" y="105.41509433962264"/>
      <point x="466.92452830188677" y="133.41509433962264" type="curve" smooth="yes"/>
      <point x="490.62264150943395" y="382.3018867924528" type="line" smooth="yes"/>
      <point x="500.2830188679245" y="484.8867924528302"/>
      <point x="452.33962264150944" y="530.3207547169811"/>
      <point x="360.62264150943395" y="530.3207547169811" type="curve" smooth="yes"/>
      <point x="303.2641509433962" y="530.3207547169811"/>
      <point x="244.56603773584905" y="500.35849056603774"/>
      <point x="204.11320754716982" y="452.47169811320754" type="curve"/>
      <point x="232.81132075471697" y="725.377358490566" type="line" smooth="yes"/>
      <point x="234.81132075471697" y="741.0377358490566"/>
      <point x="218.18867924528303" y="753.3207547169811"/>
      <point x="182.26415094339623" y="753.3207547169811" type="curve" smooth="yes"/>
      <point x="162.41509433962264" y="753.3207547169811" type="line" smooth="yes"/>
      <point x="127.83018867924528" y="753.3207547169811"/>
      <point x="108.54716981132076" y="744.0188679245283"/>
      <point x="106.54716981132076" y="724.7169811320755" type="curve" smooth="yes"/>
      <point x="32.867924528301884" y="25.60377358490566" type="line" smooth="yes"/>
      <point x="31.20754716981132" y="10.962264150943396"/>
      <point x="47.83018867924528" y="-2.0"/>
      <point x="83.41509433962264" y="-2.0" type="curve" smooth="yes"/>
      <point x="103.26415094339623" y="-2.0" type="line" smooth="yes"/>
      <point x="137.16981132075472" y="-2.0"/>
      <point x="157.1320754716981" y="7.981132075471698"/>
      <point x="159.1320754716981" y="26.60377358490566" type="curve" smooth="yes"/>
      <point x="191.43396226415095" y="333.3207547169811" type="line"/>
      <point x="218.9245283018868" y="394.62264150943395"/>
      <point x="262.188679245283" y="424.9622641509434"/>
      <point x="305.62264150943395" y="424.9622641509434" type="curve" smooth="yes"/>
      <point x="347.0" y="424.9622641509434"/>
      <point x="367.37735849056605" y="404.24528301886795"/>
      <point x="362.6981132075472" y="355.79245283018867" type="curve" smooth="yes"/>
      <point x="340.33962264150944" y="123.22641509433961" type="line" smooth="yes"/>
      <point x="330.6792452830189" y="27.30188679245283"/>
      <point x="378.60377358490564" y="-7.320754716981132"/>
    </contour>
  </outline>
</glyph>
